
<svg id="HOme_2" data-name="HOme 2" xmlns="http://www.w3.org/2000/svg" width="563.744" height="432.075" viewBox="0 0 563.744 432.075">
  <g id="Group_19297" data-name="Group 19297" transform="translate(-407.5 -285.464)">
    <path id="Path_38129" data-name="Path 38129" d="M2078.64,1002.255c-.365.261-.678.522-1.044.783-.783.574-1.618,1.2-2.4,1.879a1.52,1.52,0,0,0-.157,2.192,1.561,1.561,0,0,0,1.2.574,1.379,1.379,0,0,0,.992-.365,34.534,34.534,0,0,1,3.184-2.454,1.551,1.551,0,0,0,.522-1.931c-.052-.1-.1-.157-.156-.261A1.529,1.529,0,0,0,2078.64,1002.255Z" transform="translate(-1566.998 -675.031)" fill="#003"/>
    <path id="Path_37976" data-name="Path 37976" d="M1886.258,1246.409c0-2.088.039-188-.065-190.083-.1-2.14-.209-4.385-.209-6.525,0-13.416,7.621-21.768,19.889-21.768,2.871,0,6.63,1.879,9.5,6.212.992-.313,1.984-.679,2.975-1.044-3.654-5.847-8.718-8.3-12.528-8.3-11.119,0-23.021,6.525-23.021,24.9,0,2.245.1,4.489.261,6.682.1,2.14.065,187.943.065,189.927a1.572,1.572,0,0,0,.887,1.409h1.409A1.624,1.624,0,0,0,1886.258,1246.409Z" transform="translate(-1475.3 -684.55)" fill="#003"/>
    <path id="Path_37977" data-name="Path 37977" d="M1957.637,1075.2l-3.132-1.1v.365c-.052,1.723,0,186.614,0,188.285a1.458,1.458,0,0,0,.313.94h2.506a1.458,1.458,0,0,0,.313-.94C1957.689,1261.294,1957.585,1076.664,1957.637,1075.2Z" transform="translate(-1509.182 -702.185)" fill="#003"/>
    <path id="Path_37978" data-name="Path 37978" d="M1951.276,1063.061v1.566c1.044.313,2.088.679,3.132,1.044,0-.887.052-1.723.052-2.61a40.307,40.307,0,0,0-3.236-16.861c-.992.365-1.984.679-2.923.992C1950.075,1051.055,1951.276,1056.275,1951.276,1063.061Z" transform="translate(-1506.608 -694.731)" fill="#003"/>
    <path id="Path_37979" data-name="Path 37979" d="M1927.087,1048.227c-1.566.522-3.08,1.044-4.437,1.462,2.871.574,4.907,2.61,4.907,5.064,0,4.594-2.349,9.187-7.517,9.187-1.879,0-7.36-1.775-7.36-7.308a6.365,6.365,0,0,1,4.019-6.212,12.623,12.623,0,0,1,4.385-.887h.052a1.708,1.708,0,0,1-.574-.783,1.557,1.557,0,0,1,.992-1.984,4.422,4.422,0,0,1,.887-.261,11.87,11.87,0,0,0-1.357-.1,15.076,15.076,0,0,0-5.481,1.1,9.615,9.615,0,0,0-6,9.135c0,7.36,6.839,10.44,10.493,10.44a9.8,9.8,0,0,0,6.316-2.14,1.019,1.019,0,0,1,.052-.365,1.514,1.514,0,0,1,1.514-1.2,13.93,13.93,0,0,0,2.767-8.613A8.131,8.131,0,0,0,1927.087,1048.227Z" transform="translate(-1488.109 -694.827)" fill="#003"/>
    <path id="Path_37980" data-name="Path 37980" d="M1922.467,1058.218a1.049,1.049,0,0,0-.418.209,4.52,4.52,0,0,0-3.55,4.019c0,2.923,2.871,5.063,5.377,5.063,2.923,0,4.907-2.767,4.907-5.22,0-2.715-1.618-4.49-4.072-4.49A9.843,9.843,0,0,0,1922.467,1058.218Zm3.237,4.124c0,.731-.679,2.088-1.775,2.088a2.351,2.351,0,0,1-2.245-1.932c0-.261.574-.783.887-.94a1.28,1.28,0,0,0,.835-.313c.052,0,.1,0,.1-.052a4.463,4.463,0,0,1,1.253-.261C1924.973,1060.984,1925.7,1060.984,1925.7,1062.342Z" transform="translate(-1492.364 -700.276)" fill="#fe6a00"/>
    <path id="Path_37981" data-name="Path 37981" d="M2127.519,1041.6c-.94.418-1.879.94-2.819,1.462a54.664,54.664,0,0,1,3.706,20.568c0,3.654-.156,5.22-1.566,8.457h3.393a20.168,20.168,0,0,0,1.3-8.457A58.248,58.248,0,0,0,2127.519,1041.6Z" transform="translate(-1590.925 -692.532)" fill="#003"/>
    <path id="Path_37982" data-name="Path 37982" d="M1932.313,1023.223a5.726,5.726,0,0,1-.89.261,1.56,1.56,0,0,0-.994,1.987,1.71,1.71,0,0,0,.576.784,1.665,1.665,0,0,0,1.413.209c.052,0,.1-.052.157-.052,1.361-.471,2.879-.941,4.448-1.464.838-.314,1.727-.575,2.669-.889s1.936-.68,2.931-.994c4.762-1.673,10.1-3.556,15.648-5.491,19.1-6.746,42.391-14.955,50.555-16.576.366-.261.68-.523,1.047-.784a1.6,1.6,0,0,1,2.2.418c.052.1.1.157.157.261,3.873,1.046,12.927,6.536,18.631,18.354a27.623,27.623,0,0,1,2.774-1.412c-6.751-13.962-17.951-20.237-22.556-20.237-4.972,0-25.487,7.059-53.852,17.1-5.7,1.987-11.2,3.922-16.119,5.647-1.047.366-2.041.68-2.983,1.046C1935.977,1021.968,1934.041,1022.648,1932.313,1023.223Z" transform="translate(-1498.291 -671.501)" fill="#003"/>
    <path id="Path_37984" data-name="Path 37984" d="M2093.884,1049.575a1.558,1.558,0,1,0,2.662,1.618,39.631,39.631,0,0,1,13.312-13.155c.887-.522,1.827-.992,2.819-1.462a24.076,24.076,0,0,1,9.814-2.192c4.124,0,6.421.731,7.621,2.036-5.533,2.871-10.44,7.256-11.38,12.633v.261c0,2.714,3.237,2.714,4.281,2.714a11.542,11.542,0,0,0,11.432-11.641,11.912,11.912,0,0,0-.261-2.506,26.973,26.973,0,0,1,9.344-2.245,6.184,6.184,0,0,1,5.429,2.506c-4.02,3.08-6.943,7.1-6.943,11.589,0,2.767.887,5.742,3.393,5.742,3.6,0,7.987-5.638,7.987-12.163a14.574,14.574,0,0,0-.574-4.124c4.646-2.923,10.336-4.8,14.2-4.8,3.445,0,5.585,3.289,6.16,6.943-4.49,1.514-6.734,3.6-6.734,6.421a5.2,5.2,0,0,0,.992,3.341,3.44,3.44,0,0,0,2.819,1.357c2.975,0,6.16-3.393,6.212-8.822a49.768,49.768,0,0,1,5.847-.992,178.913,178.913,0,0,1,20.254-.94c0-1.044.052-2.036.052-3.08v-.052a177.027,177.027,0,0,0-20.672.992,48.17,48.17,0,0,0-5.742.992c-.887-4.907-4.072-9.292-9.187-9.292-4.229,0-10.388,1.879-15.5,5.116a9.214,9.214,0,0,0-7.987-3.863,29.846,29.846,0,0,0-10.545,2.506c-2.3-3.341-6.838-3.811-10.545-3.811a28.68,28.68,0,0,0-13.886,3.863A45.324,45.324,0,0,0,2093.884,1049.575Zm76.423-.052a.474.474,0,0,1-.365-.157,2.247,2.247,0,0,1-.313-1.409c0-.679.47-1.984,3.706-3.184C2172.969,1047.9,2171.247,1049.523,2170.307,1049.523Zm-20.2-8.2a15.3,15.3,0,0,1,.157,2.14c0,5.011-3.132,8.718-4.7,9.031a7.035,7.035,0,0,1-.47-2.61C2145.094,1046.756,2147.13,1043.781,2150.1,1041.327Zm-18.792-.783a8.4,8.4,0,0,1-8.3,8.509,8.133,8.133,0,0,1-1.044-.052c.992-3.915,4.907-7.256,9.292-9.605A8.077,8.077,0,0,1,2131.313,1040.544Z" transform="translate(-1576.082 -687.561)" fill="#003"/>
    <path id="Path_38125" data-name="Path 38125" d="M2062.569,1020.2a1.569,1.569,0,0,0-2.193.261,42.482,42.482,0,0,0-2.506,3.5,1.6,1.6,0,0,0,.47,2.192,1.76,1.76,0,0,0,.887.261,1.632,1.632,0,0,0,1.3-.679c.731-1.148,1.566-2.245,2.349-3.289A1.641,1.641,0,0,0,2062.569,1020.2Z" transform="translate(-1558.86 -683.577)" fill="#003"/>
    <path id="Path_38127" data-name="Path 38127" d="M2049.979,1042.4a1.577,1.577,0,0,0-2.036.835,37.329,37.329,0,0,0-1.514,4.02,1.557,1.557,0,0,0,.992,1.984,1.445,1.445,0,0,0,.47.052,1.614,1.614,0,0,0,1.514-1.1c.418-1.253.887-2.558,1.409-3.811A1.537,1.537,0,0,0,2049.979,1042.4Z" transform="translate(-1553.475 -694.292)" fill="#003"/>
    <path id="Path_38128" data-name="Path 38128" d="M2043.984,1067.29a1.572,1.572,0,0,0-1.723,1.409,40.988,40.988,0,0,0-.261,4.333,1.566,1.566,0,1,0,3.132,0,35.188,35.188,0,0,1,.209-4.02A1.57,1.57,0,0,0,2043.984,1067.29Z" transform="translate(-1551.395 -706.238)" fill="#003"/>
    <path id="Path_48340" data-name="Path 48340" d="M1.984.011A1.572,1.572,0,0,0,.261,1.421,40.987,40.987,0,0,0,0,5.753,1.538,1.538,0,0,0,1.566,7.32,1.538,1.538,0,0,0,3.132,5.753a35.187,35.187,0,0,1,.209-4.02A1.57,1.57,0,0,0,1.984.011Z" transform="matrix(0.985, -0.174, 0.174, 0.985, 489.995, 374.74)" fill="#003"/>
    <g id="Group_19289" data-name="Group 19289" transform="translate(421.469 401.715)">
      <path id="Path_48141" data-name="Path 48141" d="M1291.663,993.257c-3.386,0-5.963-3.083-5.963-7.176,0-3.74,2.375-7.681,5.913-7.681a4.209,4.209,0,0,1,1.112.152c2.628.657,4.8,3.79,4.8,7.075C1297.525,988.709,1295.959,993.257,1291.663,993.257Zm-.051-12.078c-1.617,0-3.133,2.325-3.133,4.9,0,2.476,1.365,4.4,3.184,4.4.657,0,1.566-.152,2.324-1.668a7.642,7.642,0,0,0,.758-3.234c0-2.122-1.415-4.043-2.678-4.346C1291.916,981.23,1291.764,981.179,1291.613,981.179Z" transform="translate(-1285.7 -978.4)" fill="#003"/>
    </g>
    <g id="Group_19291" data-name="Group 19291" transform="translate(421.469 458.164)">
      <path id="Path_48141-2" data-name="Path 48141" d="M1291.663,993.257c-3.386,0-5.963-3.083-5.963-7.176,0-3.74,2.375-7.681,5.913-7.681a4.209,4.209,0,0,1,1.112.152c2.628.657,4.8,3.79,4.8,7.075C1297.525,988.709,1295.959,993.257,1291.663,993.257Zm-.051-12.078c-1.617,0-3.133,2.325-3.133,4.9,0,2.476,1.365,4.4,3.184,4.4.657,0,1.566-.152,2.324-1.668a7.642,7.642,0,0,0,.758-3.234c0-2.122-1.415-4.043-2.678-4.346C1291.916,981.23,1291.764,981.179,1291.613,981.179Z" transform="translate(-1285.7 -978.4)" fill="#003"/>
    </g>
    <g id="Group_19293" data-name="Group 19293" transform="translate(421.468 515.333)">
      <path id="Path_48141-3" data-name="Path 48141" d="M1291.663,993.257c-3.386,0-5.963-3.083-5.963-7.176,0-3.74,2.375-7.681,5.913-7.681a4.209,4.209,0,0,1,1.112.152c2.628.657,4.8,3.79,4.8,7.075C1297.525,988.709,1295.959,993.257,1291.663,993.257Zm-.051-12.078c-1.617,0-3.133,2.325-3.133,4.9,0,2.476,1.365,4.4,3.184,4.4.657,0,1.566-.152,2.324-1.668a7.642,7.642,0,0,0,.758-3.234c0-2.122-1.415-4.043-2.678-4.346C1291.916,981.23,1291.764,981.179,1291.613,981.179Z" transform="translate(-1285.7 -978.4)" fill="#003"/>
    </g>
    <g id="Group_19295" data-name="Group 19295" transform="translate(421.98 572.502)">
      <path id="Path_48141-4" data-name="Path 48141" d="M1291.663,993.257c-3.386,0-5.963-3.083-5.963-7.176,0-3.74,2.375-7.681,5.913-7.681a4.209,4.209,0,0,1,1.112.152c2.628.657,4.8,3.79,4.8,7.075C1297.525,988.709,1295.959,993.257,1291.663,993.257Zm-.051-12.078c-1.617,0-3.133,2.325-3.133,4.9,0,2.476,1.365,4.4,3.184,4.4.657,0,1.566-.152,2.324-1.668a7.642,7.642,0,0,0,.758-3.234c0-2.122-1.415-4.043-2.678-4.346C1291.916,981.23,1291.764,981.179,1291.613,981.179Z" transform="translate(-1285.7 -978.4)" fill="#003"/>
    </g>
    <g id="Group_19290" data-name="Group 19290" transform="translate(415.493 417.849)">
      <path id="Path_48142" data-name="Path 48142" d="M1275.252,1023.888a1.272,1.272,0,0,1-1.011-.455,1.3,1.3,0,0,1-.354-1.112c.809-6.064,2.173-16.221,13.948-16.221,8.439,0,8.641,9.5,8.793,15.211v.556a1.411,1.411,0,0,1-.4,1.011,1.5,1.5,0,0,1-1.011.4c-1.263-.051-2.527-.051-3.891-.051-4.5,0-9.046.253-13.443.505l-2.527.152Zm12.533-14.958c-8.49,0-10.107,6.367-10.966,12.128l.859-.051c4.447-.253,9.046-.505,13.594-.505.859,0,1.668,0,2.476.05C1293.6,1014.287,1292.839,1008.93,1287.785,1008.93Z" transform="translate(-1273.875 -1006.1)" fill="#003"/>
    </g>
    <g id="Group_19292" data-name="Group 19292" transform="translate(415.493 474.372)">
      <path id="Path_48142-2" data-name="Path 48142" d="M1275.252,1023.888a1.272,1.272,0,0,1-1.011-.455,1.3,1.3,0,0,1-.354-1.112c.809-6.064,2.173-16.221,13.948-16.221,8.439,0,8.641,9.5,8.793,15.211v.556a1.411,1.411,0,0,1-.4,1.011,1.5,1.5,0,0,1-1.011.4c-1.263-.051-2.527-.051-3.891-.051-4.5,0-9.046.253-13.443.505l-2.527.152Zm12.533-14.958c-8.49,0-10.107,6.367-10.966,12.128l.859-.051c4.447-.253,9.046-.505,13.594-.505.859,0,1.668,0,2.476.05C1293.6,1014.287,1292.839,1008.93,1287.785,1008.93Z" transform="translate(-1273.875 -1006.1)" fill="#003"/>
    </g>
    <g id="Group_19294" data-name="Group 19294" transform="translate(415.493 531.617)">
      <path id="Path_48142-3" data-name="Path 48142" d="M1275.252,1023.888a1.272,1.272,0,0,1-1.011-.455,1.3,1.3,0,0,1-.354-1.112c.809-6.064,2.173-16.221,13.948-16.221,8.439,0,8.641,9.5,8.793,15.211v.556a1.411,1.411,0,0,1-.4,1.011,1.5,1.5,0,0,1-1.011.4c-1.263-.051-2.527-.051-3.891-.051-4.5,0-9.046.253-13.443.505l-2.527.152Zm12.533-14.958c-8.49,0-10.107,6.367-10.966,12.128l.859-.051c4.447-.253,9.046-.505,13.594-.505.859,0,1.668,0,2.476.05C1293.6,1014.287,1292.839,1008.93,1287.785,1008.93Z" transform="translate(-1273.875 -1006.1)" fill="#003"/>
    </g>
    <g id="Group_19296" data-name="Group 19296" transform="translate(416.004 588.862)">
      <path id="Path_48142-4" data-name="Path 48142" d="M1275.252,1023.888a1.272,1.272,0,0,1-1.011-.455,1.3,1.3,0,0,1-.354-1.112c.809-6.064,2.173-16.221,13.948-16.221,8.439,0,8.641,9.5,8.793,15.211v.556a1.411,1.411,0,0,1-.4,1.011,1.5,1.5,0,0,1-1.011.4c-1.263-.051-2.527-.051-3.891-.051-4.5,0-9.046.253-13.443.505l-2.527.152Zm12.533-14.958c-8.49,0-10.107,6.367-10.966,12.128l.859-.051c4.447-.253,9.046-.505,13.594-.505.859,0,1.668,0,2.476.05C1293.6,1014.287,1292.839,1008.93,1287.785,1008.93Z" transform="translate(-1273.875 -1006.1)" fill="#003"/>
    </g>
    <g id="Group_19309" data-name="Group 19309">
      <g id="Group_19310" data-name="Group 19310" transform="translate(-1.254 17.746)">
        <g id="Group_19308" data-name="Group 19308" transform="translate(424.915 614.363)">
          <path id="Path_48141-5" data-name="Path 48141" d="M1291.663,993.257c-3.386,0-5.963-3.083-5.963-7.176,0-3.74,2.375-7.681,5.913-7.681a4.209,4.209,0,0,1,1.112.152c2.628.657,4.8,3.79,4.8,7.075C1297.525,988.709,1295.959,993.257,1291.663,993.257Zm-.051-12.078c-1.617,0-3.133,2.325-3.133,4.9,0,2.476,1.365,4.4,3.184,4.4.657,0,1.566-.152,2.324-1.668a7.642,7.642,0,0,0,.758-3.234c0-2.122-1.415-4.043-2.678-4.346C1291.916,981.23,1291.764,981.179,1291.613,981.179Z" transform="translate(-1285.7 -978.4)" fill="#003"/>
        </g>
        <g id="Group_19307" data-name="Group 19307" transform="translate(418.938 628.362)">
          <path id="Path_48142-5" data-name="Path 48142" d="M1275.252,1023.888a1.272,1.272,0,0,1-1.011-.455,1.3,1.3,0,0,1-.354-1.112c.809-6.064,2.173-16.221,13.948-16.221,8.439,0,8.641,9.5,8.793,15.211v.556a1.411,1.411,0,0,1-.4,1.011,1.5,1.5,0,0,1-1.011.4c-1.263-.051-2.527-.051-3.891-.051-4.5,0-9.046.253-13.443.505l-2.527.152Zm12.533-14.958c-8.49,0-10.107,6.367-10.966,12.128l.859-.051c4.447-.253,9.046-.505,13.594-.505.859,0,1.668,0,2.476.05C1293.6,1014.287,1292.839,1008.93,1287.785,1008.93Z" transform="translate(-1273.875 -1006.1)" fill="#003"/>
        </g>
      </g>
      <g id="Group_19311" data-name="Group 19311" transform="translate(44.746 17.746)">
        <g id="Group_19308-2" data-name="Group 19308" transform="translate(424.915 614.363)">
          <path id="Path_48141-6" data-name="Path 48141" d="M1291.663,993.257c-3.386,0-5.963-3.083-5.963-7.176,0-3.74,2.375-7.681,5.913-7.681a4.209,4.209,0,0,1,1.112.152c2.628.657,4.8,3.79,4.8,7.075C1297.525,988.709,1295.959,993.257,1291.663,993.257Zm-.051-12.078c-1.617,0-3.133,2.325-3.133,4.9,0,2.476,1.365,4.4,3.184,4.4.657,0,1.566-.152,2.324-1.668a7.642,7.642,0,0,0,.758-3.234c0-2.122-1.415-4.043-2.678-4.346C1291.916,981.23,1291.764,981.179,1291.613,981.179Z" transform="translate(-1285.7 -978.4)" fill="#003"/>
        </g>
        <g id="Group_19307-2" data-name="Group 19307" transform="translate(418.938 628.362)">
          <path id="Path_48142-6" data-name="Path 48142" d="M1275.252,1023.888a1.272,1.272,0,0,1-1.011-.455,1.3,1.3,0,0,1-.354-1.112c.809-6.064,2.173-16.221,13.948-16.221,8.439,0,8.641,9.5,8.793,15.211v.556a1.411,1.411,0,0,1-.4,1.011,1.5,1.5,0,0,1-1.011.4c-1.263-.051-2.527-.051-3.891-.051-4.5,0-9.046.253-13.443.505l-2.527.152Zm12.533-14.958c-8.49,0-10.107,6.367-10.966,12.128l.859-.051c4.447-.253,9.046-.505,13.594-.505.859,0,1.668,0,2.476.05C1293.6,1014.287,1292.839,1008.93,1287.785,1008.93Z" transform="translate(-1273.875 -1006.1)" fill="#003"/>
        </g>
      </g>
      <g id="Group_19312" data-name="Group 19312" transform="translate(90.746 17.746)">
        <g id="Group_19308-3" data-name="Group 19308" transform="translate(424.915 614.363)">
          <path id="Path_48141-7" data-name="Path 48141" d="M1291.663,993.257c-3.386,0-5.963-3.083-5.963-7.176,0-3.74,2.375-7.681,5.913-7.681a4.209,4.209,0,0,1,1.112.152c2.628.657,4.8,3.79,4.8,7.075C1297.525,988.709,1295.959,993.257,1291.663,993.257Zm-.051-12.078c-1.617,0-3.133,2.325-3.133,4.9,0,2.476,1.365,4.4,3.184,4.4.657,0,1.566-.152,2.324-1.668a7.642,7.642,0,0,0,.758-3.234c0-2.122-1.415-4.043-2.678-4.346C1291.916,981.23,1291.764,981.179,1291.613,981.179Z" transform="translate(-1285.7 -978.4)" fill="#003"/>
        </g>
        <g id="Group_19307-3" data-name="Group 19307" transform="translate(418.938 628.362)">
          <path id="Path_48142-7" data-name="Path 48142" d="M1275.252,1023.888a1.272,1.272,0,0,1-1.011-.455,1.3,1.3,0,0,1-.354-1.112c.809-6.064,2.173-16.221,13.948-16.221,8.439,0,8.641,9.5,8.793,15.211v.556a1.411,1.411,0,0,1-.4,1.011,1.5,1.5,0,0,1-1.011.4c-1.263-.051-2.527-.051-3.891-.051-4.5,0-9.046.253-13.443.505l-2.527.152Zm12.533-14.958c-8.49,0-10.107,6.367-10.966,12.128l.859-.051c4.447-.253,9.046-.505,13.594-.505.859,0,1.668,0,2.476.05C1293.6,1014.287,1292.839,1008.93,1287.785,1008.93Z" transform="translate(-1273.875 -1006.1)" fill="#003"/>
        </g>
      </g>
      <g id="Group_19313" data-name="Group 19313" transform="translate(136.746 17.746)">
        <g id="Group_19308-4" data-name="Group 19308" transform="translate(424.915 614.363)">
          <path id="Path_48141-8" data-name="Path 48141" d="M1291.663,993.257c-3.386,0-5.963-3.083-5.963-7.176,0-3.74,2.375-7.681,5.913-7.681a4.209,4.209,0,0,1,1.112.152c2.628.657,4.8,3.79,4.8,7.075C1297.525,988.709,1295.959,993.257,1291.663,993.257Zm-.051-12.078c-1.617,0-3.133,2.325-3.133,4.9,0,2.476,1.365,4.4,3.184,4.4.657,0,1.566-.152,2.324-1.668a7.642,7.642,0,0,0,.758-3.234c0-2.122-1.415-4.043-2.678-4.346C1291.916,981.23,1291.764,981.179,1291.613,981.179Z" transform="translate(-1285.7 -978.4)" fill="#003"/>
        </g>
        <g id="Group_19307-4" data-name="Group 19307" transform="translate(418.938 628.362)">
          <path id="Path_48142-8" data-name="Path 48142" d="M1275.252,1023.888a1.272,1.272,0,0,1-1.011-.455,1.3,1.3,0,0,1-.354-1.112c.809-6.064,2.173-16.221,13.948-16.221,8.439,0,8.641,9.5,8.793,15.211v.556a1.411,1.411,0,0,1-.4,1.011,1.5,1.5,0,0,1-1.011.4c-1.263-.051-2.527-.051-3.891-.051-4.5,0-9.046.253-13.443.505l-2.527.152Zm12.533-14.958c-8.49,0-10.107,6.367-10.966,12.128l.859-.051c4.447-.253,9.046-.505,13.594-.505.859,0,1.668,0,2.476.05C1293.6,1014.287,1292.839,1008.93,1287.785,1008.93Z" transform="translate(-1273.875 -1006.1)" fill="#003"/>
        </g>
      </g>
      <g id="Group_19314" data-name="Group 19314" transform="translate(182.746 17.746)">
        <g id="Group_19308-5" data-name="Group 19308" transform="translate(424.915 614.363)">
          <path id="Path_48141-9" data-name="Path 48141" d="M1291.663,993.257c-3.386,0-5.963-3.083-5.963-7.176,0-3.74,2.375-7.681,5.913-7.681a4.209,4.209,0,0,1,1.112.152c2.628.657,4.8,3.79,4.8,7.075C1297.525,988.709,1295.959,993.257,1291.663,993.257Zm-.051-12.078c-1.617,0-3.133,2.325-3.133,4.9,0,2.476,1.365,4.4,3.184,4.4.657,0,1.566-.152,2.324-1.668a7.642,7.642,0,0,0,.758-3.234c0-2.122-1.415-4.043-2.678-4.346C1291.916,981.23,1291.764,981.179,1291.613,981.179Z" transform="translate(-1285.7 -978.4)" fill="#003"/>
        </g>
        <g id="Group_19307-5" data-name="Group 19307" transform="translate(418.938 628.362)">
          <path id="Path_48142-9" data-name="Path 48142" d="M1275.252,1023.888a1.272,1.272,0,0,1-1.011-.455,1.3,1.3,0,0,1-.354-1.112c.809-6.064,2.173-16.221,13.948-16.221,8.439,0,8.641,9.5,8.793,15.211v.556a1.411,1.411,0,0,1-.4,1.011,1.5,1.5,0,0,1-1.011.4c-1.263-.051-2.527-.051-3.891-.051-4.5,0-9.046.253-13.443.505l-2.527.152Zm12.533-14.958c-8.49,0-10.107,6.367-10.966,12.128l.859-.051c4.447-.253,9.046-.505,13.594-.505.859,0,1.668,0,2.476.05C1293.6,1014.287,1292.839,1008.93,1287.785,1008.93Z" transform="translate(-1273.875 -1006.1)" fill="#003"/>
        </g>
      </g>
      <g id="Group_19315" data-name="Group 19315" transform="translate(228.746 17.746)">
        <g id="Group_19308-6" data-name="Group 19308" transform="translate(424.915 614.363)">
          <path id="Path_48141-10" data-name="Path 48141" d="M1291.663,993.257c-3.386,0-5.963-3.083-5.963-7.176,0-3.74,2.375-7.681,5.913-7.681a4.209,4.209,0,0,1,1.112.152c2.628.657,4.8,3.79,4.8,7.075C1297.525,988.709,1295.959,993.257,1291.663,993.257Zm-.051-12.078c-1.617,0-3.133,2.325-3.133,4.9,0,2.476,1.365,4.4,3.184,4.4.657,0,1.566-.152,2.324-1.668a7.642,7.642,0,0,0,.758-3.234c0-2.122-1.415-4.043-2.678-4.346C1291.916,981.23,1291.764,981.179,1291.613,981.179Z" transform="translate(-1285.7 -978.4)" fill="#003"/>
        </g>
        <g id="Group_19307-6" data-name="Group 19307" transform="translate(418.938 628.362)">
          <path id="Path_48142-10" data-name="Path 48142" d="M1275.252,1023.888a1.272,1.272,0,0,1-1.011-.455,1.3,1.3,0,0,1-.354-1.112c.809-6.064,2.173-16.221,13.948-16.221,8.439,0,8.641,9.5,8.793,15.211v.556a1.411,1.411,0,0,1-.4,1.011,1.5,1.5,0,0,1-1.011.4c-1.263-.051-2.527-.051-3.891-.051-4.5,0-9.046.253-13.443.505l-2.527.152Zm12.533-14.958c-8.49,0-10.107,6.367-10.966,12.128l.859-.051c4.447-.253,9.046-.505,13.594-.505.859,0,1.668,0,2.476.05C1293.6,1014.287,1292.839,1008.93,1287.785,1008.93Z" transform="translate(-1273.875 -1006.1)" fill="#003"/>
        </g>
      </g>
      <g id="Group_19316" data-name="Group 19316" transform="translate(274.746 17.746)">
        <g id="Group_19308-7" data-name="Group 19308" transform="translate(424.915 614.363)">
          <path id="Path_48141-11" data-name="Path 48141" d="M1291.663,993.257c-3.386,0-5.963-3.083-5.963-7.176,0-3.74,2.375-7.681,5.913-7.681a4.209,4.209,0,0,1,1.112.152c2.628.657,4.8,3.79,4.8,7.075C1297.525,988.709,1295.959,993.257,1291.663,993.257Zm-.051-12.078c-1.617,0-3.133,2.325-3.133,4.9,0,2.476,1.365,4.4,3.184,4.4.657,0,1.566-.152,2.324-1.668a7.642,7.642,0,0,0,.758-3.234c0-2.122-1.415-4.043-2.678-4.346C1291.916,981.23,1291.764,981.179,1291.613,981.179Z" transform="translate(-1285.7 -978.4)" fill="#003"/>
        </g>
        <g id="Group_19307-7" data-name="Group 19307" transform="translate(418.938 628.362)">
          <path id="Path_48142-11" data-name="Path 48142" d="M1275.252,1023.888a1.272,1.272,0,0,1-1.011-.455,1.3,1.3,0,0,1-.354-1.112c.809-6.064,2.173-16.221,13.948-16.221,8.439,0,8.641,9.5,8.793,15.211v.556a1.411,1.411,0,0,1-.4,1.011,1.5,1.5,0,0,1-1.011.4c-1.263-.051-2.527-.051-3.891-.051-4.5,0-9.046.253-13.443.505l-2.527.152Zm12.533-14.958c-8.49,0-10.107,6.367-10.966,12.128l.859-.051c4.447-.253,9.046-.505,13.594-.505.859,0,1.668,0,2.476.05C1293.6,1014.287,1292.839,1008.93,1287.785,1008.93Z" transform="translate(-1273.875 -1006.1)" fill="#003"/>
        </g>
      </g>
      <g id="Group_19317" data-name="Group 19317" transform="translate(320.746 17.746)">
        <g id="Group_19308-8" data-name="Group 19308" transform="translate(424.915 614.363)">
          <path id="Path_48141-12" data-name="Path 48141" d="M1291.663,993.257c-3.386,0-5.963-3.083-5.963-7.176,0-3.74,2.375-7.681,5.913-7.681a4.209,4.209,0,0,1,1.112.152c2.628.657,4.8,3.79,4.8,7.075C1297.525,988.709,1295.959,993.257,1291.663,993.257Zm-.051-12.078c-1.617,0-3.133,2.325-3.133,4.9,0,2.476,1.365,4.4,3.184,4.4.657,0,1.566-.152,2.324-1.668a7.642,7.642,0,0,0,.758-3.234c0-2.122-1.415-4.043-2.678-4.346C1291.916,981.23,1291.764,981.179,1291.613,981.179Z" transform="translate(-1285.7 -978.4)" fill="#003"/>
        </g>
        <g id="Group_19307-8" data-name="Group 19307" transform="translate(418.938 628.362)">
          <path id="Path_48142-12" data-name="Path 48142" d="M1275.252,1023.888a1.272,1.272,0,0,1-1.011-.455,1.3,1.3,0,0,1-.354-1.112c.809-6.064,2.173-16.221,13.948-16.221,8.439,0,8.641,9.5,8.793,15.211v.556a1.411,1.411,0,0,1-.4,1.011,1.5,1.5,0,0,1-1.011.4c-1.263-.051-2.527-.051-3.891-.051-4.5,0-9.046.253-13.443.505l-2.527.152Zm12.533-14.958c-8.49,0-10.107,6.367-10.966,12.128l.859-.051c4.447-.253,9.046-.505,13.594-.505.859,0,1.668,0,2.476.05C1293.6,1014.287,1292.839,1008.93,1287.785,1008.93Z" transform="translate(-1273.875 -1006.1)" fill="#003"/>
        </g>
      </g>
      <g id="Group_19318" data-name="Group 19318" transform="translate(366.746 17.746)">
        <g id="Group_19308-9" data-name="Group 19308" transform="translate(424.915 614.363)">
          <path id="Path_48141-13" data-name="Path 48141" d="M1291.663,993.257c-3.386,0-5.963-3.083-5.963-7.176,0-3.74,2.375-7.681,5.913-7.681a4.209,4.209,0,0,1,1.112.152c2.628.657,4.8,3.79,4.8,7.075C1297.525,988.709,1295.959,993.257,1291.663,993.257Zm-.051-12.078c-1.617,0-3.133,2.325-3.133,4.9,0,2.476,1.365,4.4,3.184,4.4.657,0,1.566-.152,2.324-1.668a7.642,7.642,0,0,0,.758-3.234c0-2.122-1.415-4.043-2.678-4.346C1291.916,981.23,1291.764,981.179,1291.613,981.179Z" transform="translate(-1285.7 -978.4)" fill="#fe6a00"/>
        </g>
        <g id="Group_19307-9" data-name="Group 19307" transform="translate(418.938 628.362)">
          <path id="Path_48142-13" data-name="Path 48142" d="M1275.252,1023.888a1.272,1.272,0,0,1-1.011-.455,1.3,1.3,0,0,1-.354-1.112c.809-6.064,2.173-16.221,13.948-16.221,8.439,0,8.641,9.5,8.793,15.211v.556a1.411,1.411,0,0,1-.4,1.011,1.5,1.5,0,0,1-1.011.4c-1.263-.051-2.527-.051-3.891-.051-4.5,0-9.046.253-13.443.505l-2.527.152Zm12.533-14.958c-8.49,0-10.107,6.367-10.966,12.128l.859-.051c4.447-.253,9.046-.505,13.594-.505.859,0,1.668,0,2.476.05C1293.6,1014.287,1292.839,1008.93,1287.785,1008.93Z" transform="translate(-1273.875 -1006.1)" fill="#fe6a00"/>
        </g>
      </g>
    </g>
    <path id="Path_48339" data-name="Path 48339" d="M1932.345,1001.024a5.749,5.749,0,0,0-.9-.27,1.616,1.616,0,0,1-1.01-2.052,1.766,1.766,0,0,1,.585-.81,1.669,1.669,0,0,1,1.436-.216c.053,0,.106.054.16.054,1.383.486,2.925.972,4.52,1.512.851.324,1.755.594,2.712.918s1.968.7,2.978,1.026c4.839,1.728,10.263,3.672,15.9,5.669,19.41,6.965,43.073,15.443,51.369,17.117a10.853,10.853,0,0,0,3.457.108c3.935-1.08,11.31-4.869,17.106-17.072a27.911,27.911,0,0,0,2.818,1.458c-6.86,14.417-16.415,19.016-21.094,19.016-5.052,0-25.9-7.289-54.719-17.657-5.8-2.052-11.38-4.05-16.379-5.831-1.063-.378-2.074-.7-3.031-1.08C1936.067,1002.32,1934.1,1001.618,1932.345,1001.024Z" transform="translate(-1493.932 -630.002)" fill="#003"/>
  </g>
  <g id="Group_19306" data-name="Group 19306" transform="translate(-230.981 -258.733)">
    <path id="Path_37805" data-name="Path 37805" d="M2196.079,633.348c.148-.074.222-.148.37-.222a230.321,230.321,0,0,0-22.044,7.693c-16.792,6.51-35.8,13.907-60.805,13.907-33.473.944-62.225-23.291-67.833-28.963s-13.537-22.6-13.537-28.81c0-3.4,1.036-5.178,2.515-7.619A44.85,44.85,0,0,0,2040,567.956a209.973,209.973,0,0,0-1.553-21.6c-2-17.606-4.586-21.156-7.767-21.156-2.885,0-5.03,2.959-7.027,6.732-.074,2.367-.148,4.882-.148,7.841a2.063,2.063,0,0,0,1.775-1.11c.222-.37.518-1.036.888-1.849,2.293-4.882,3.625-6.584,4.216-7.027,3.107,3.995,5.178,31.586,5.178,37.948,0,11.54-2.441,15.682-4.586,19.381-1.627,2.737-3.106,5.252-3.106,9.912,0,10.874,5.548,22.636,15.164,33.066a2.713,2.713,0,0,1,1.554.666,2.913,2.913,0,0,1,1.184,2.219c1.923,1.849,3.994,3.7,6.14,5.474.592.518,1.257.962,1.923,1.479a2.246,2.246,0,0,1,2.293,1.406.665.665,0,0,1,.074.37c16.126,11.392,36.247,17.605,57.329,17.605,25.817,0,45.272-7.545,62.36-14.2,7.1-2.737,13.685-5.326,20.12-7.175-.3-.444-.592-.962-.888-1.406A2.555,2.555,0,0,1,2196.079,633.348Z" transform="translate(-1533.1 -152.623)" fill="#003"/>
    <path id="Path_37811" data-name="Path 37811" d="M2279.333,593.176a2.225,2.225,0,0,0-1.627,4.142,22.882,22.882,0,0,0,8.506,1.554,27.934,27.934,0,0,0,13.612-3.625,2.22,2.22,0,0,0-2.219-3.846C2292.2,594.508,2284.881,595.247,2279.333,593.176Z" transform="translate(-1598.896 -169.78)" fill="#003"/>
    <path id="Path_37833" data-name="Path 37833" d="M2335,679.744a2.252,2.252,0,0,0-.592-.592l-.074-.074a2.4,2.4,0,0,0-2.441,0l-2.663,1.775q-8.766,5.77-17.531,11.984a2.134,2.134,0,0,1-.222,2.367,2.219,2.219,0,0,1-3.107.444l-.222-.222a215.281,215.281,0,0,0-24.559,20.564c-2.515-5.77-6.14-12.8-11.17-21.748-.518.37-1.109.74-1.7,1.11a2.236,2.236,0,0,1-2.515-3.7c.666-.444,1.258-.888,1.924-1.258-2.737-4.734-5.844-9.912-9.321-15.682-.518-.814-1.036-1.7-1.553-2.589a2.087,2.087,0,0,0-2.22-1.036,1.054,1.054,0,0,0-.444.148c-.148.074-.3.074-.37.222a2.193,2.193,0,0,0-.74,3.033c.3.518.592.962.888,1.405,13.241,21.748,20.564,35.211,24.337,44.9a2.289,2.289,0,0,0,1.627,1.332c.148,0,.3.074.444.074a2.3,2.3,0,0,0,1.628-.666c14.425-15.016,31.808-26.63,48.748-37.8.37-.3.814-.518,1.184-.814A2.254,2.254,0,0,0,2335,679.744Z" transform="translate(-1593.391 -190.585)" fill="#003"/>
    <path id="Path_37834" data-name="Path 37834" d="M2279.6,667.725a2.213,2.213,0,0,0,.148,3.107,13.458,13.458,0,0,0,1.184.962,29.879,29.879,0,0,0,12.723,6.066c4.069-2.441,6.214-3.181,8.211-2.811,1.849.37,3.033,1.627,4.216,3.329,7.915-.814,15.756-3.551,22.71-6.362.666-.3,1.332-.518,2-.814a2.2,2.2,0,1,0-1.7-4.068c-.592.222-1.258.518-1.849.74-7.693,3.107-17.236,6.362-26.113,6.362a26.771,26.771,0,0,1-17.088-5.548l-1.332-1.11A2.213,2.213,0,0,0,2279.6,667.725Z" transform="translate(-1599.609 -189.515)" fill="#003"/>
    <path id="Path_37835" data-name="Path 37835" d="M2315.451,693.846a44.97,44.97,0,0,1-10.43-11.318l-.887-1.332c-1.184-1.7-2.367-2.959-4.216-3.329-2-.37-4.143.37-8.211,2.811-2.663,1.627-6.14,3.995-11.022,7.249-1.85,1.258-3.921,2.663-6.214,4.142-.592.444-1.258.814-1.923,1.258a2.179,2.179,0,0,0-.592,3.107,2.242,2.242,0,0,0,3.107.592c.592-.37,1.109-.74,1.7-1.11,2.367-1.627,4.512-3.033,6.51-4.365,8.951-5.992,14.351-9.616,15.9-9.32.518.074,1.332,1.406,2.219,2.737a47.748,47.748,0,0,0,11.1,12.132l.222.222a2.219,2.219,0,0,0,3.107-.444,2.3,2.3,0,0,0,.222-2.367A1.686,1.686,0,0,0,2315.451,693.846Z" transform="translate(-1597.658 -192.335)" fill="#003"/>
    <path id="Path_37815" data-name="Path 37815" d="M2317.186,893.064a2.247,2.247,0,0,0-2.515.888c-.3.444-.666.962-.222,2.811a20.346,20.346,0,0,0,1.406,3.625,65.865,65.865,0,0,1,1.035,12.354,68.864,68.864,0,0,0-9.025-12.132c-.37-.37-.813-.814-1.257-1.184a2.2,2.2,0,0,0-2.959,3.255l.222.222c4.069,3.773,7.027,8.507,9.173,12.058,2.072,3.4,3.255,5.326,5.03,5.326a3.819,3.819,0,0,0,.814-.148c2.219-.666,2.367-3.181,2.367-7.027,0-1.184,0-2.293-.074-3.329,1.405,2.145,3.181,4.586,5.252,7.323a1.946,1.946,0,0,0,.444.37,2.218,2.218,0,0,0,2.663,0,2.244,2.244,0,0,0,.888-1.849,2.009,2.009,0,0,0-.444-1.258A90.991,90.991,0,0,1,2320,898.834a13.473,13.473,0,0,0-1.554-4.734A1.759,1.759,0,0,0,2317.186,893.064Z" transform="translate(-1605.829 -248.341)" fill="#003"/>
    <path id="Path_37799" data-name="Path 37799" d="M2339.3,396.969a2.219,2.219,0,1,0,4.438,0c0-8.951-21.008-25.669-61.1-25.669-39.871,0-78.633,18.937-101.195,49.488a2.219,2.219,0,0,0,1.775,3.551,2.205,2.205,0,0,0,1.775-.888c21.748-29.441,59.1-47.712,97.645-47.712C2319.4,375.738,2339.3,390.829,2339.3,396.969Z" transform="translate(-1574.094 -112.567)" fill="#003"/>
    <path id="Path_37800" data-name="Path 37800" d="M2371.5,687.622c-3.551-1.923-6.805-3.773-9.616-5.622a2.244,2.244,0,0,1,.592.592,2.326,2.326,0,0,1-.592,3.107c-.37.3-.814.518-1.183.814,2.663,1.7,5.622,3.329,8.729,5.03,18.567,10.134,41.647,22.784,41.647,73.825,0,5.326-.666,12.871-2.589,18.049a2.218,2.218,0,0,0,1.331,2.885,2.659,2.659,0,0,0,.814.148,2.158,2.158,0,0,0,2.071-1.405c2.663-7.175,2.885-16.792,2.885-19.6C2415.44,711.663,2390.067,697.756,2371.5,687.622Z" transform="translate(-1620.864 -193.434)" fill="#003"/>
    <path id="Path_37801" data-name="Path 37801" d="M2348.674,601.286a2.235,2.235,0,0,1-1.184,2.885c-.666.3-1.332.518-2,.814a24.017,24.017,0,0,0,6.731,7.767l2.664-1.775a2.245,2.245,0,0,1,2.441,0c-5.844-3.921-9.542-8.285-9.542-15.534,0-25.077,11.761-34.915,25.447-46.307,17.679-14.795,37.726-31.586,37.726-84.329,0-9.395-1.332-40.611-17.976-55.406a15.437,15.437,0,0,0-2.885.962,3.215,3.215,0,0,1-1.406.37,2.048,2.048,0,0,1-.666-.074,2.074,2.074,0,0,0,.74,1.036c16.422,13.019,17.679,44.014,17.679,53.186,0,37.43-10.5,56-22.783,68.869v1.332c0,1.406-.074,2.811-.148,4.216a2.2,2.2,0,0,1-2.219,2.071h-.148a2.185,2.185,0,0,1-2.071-2.367v-.888c-2.959,2.737-5.918,5.252-8.877,7.693-13.907,11.614-27,22.636-27,49.71a20.367,20.367,0,0,0,.666,5.4c.666-.222,1.257-.518,1.849-.74A2.122,2.122,0,0,1,2348.674,601.286Z" transform="translate(-1616.308 -122.484)" fill="#003"/>
    <path id="Path_37802" data-name="Path 37802" d="M2312,409.928a2.2,2.2,0,0,0-2-3.921c-2.441,1.258-8.8,1.775-16.865,2.515-22.709,2-59.4,5.252-88.545,28.406,5.917-11.466,13.315-18.863,22.932-22.932a2.2,2.2,0,0,0-1.7-4.068c-13.093,5.548-22.488,16.57-29.367,34.619a2.25,2.25,0,0,0,.887,2.663,2.457,2.457,0,0,0,1.183.37,2.129,2.129,0,0,0,1.554-.666c28.849-28.184,69.313-31.808,93.5-33.954C2302.379,412.073,2308.741,411.481,2312,409.928Z" transform="translate(-1578.076 -121.532)" fill="#003"/>
    <path id="Path_37803" data-name="Path 37803" d="M2366.864,544.505h.148a2.2,2.2,0,0,0,2.22-2.071c.074-1.406.147-2.811.147-4.216v-1.331a68.71,68.71,0,0,0-6.879-29.515c6.806-8.137,11.836-19.529,11.836-27,0-7.915-4.216-12.649-11.244-12.649a15.923,15.923,0,0,0-9.321,3.181c.222-2.293.3-5.03.3-8.507,0-5.7-.37-11.392-.666-16.866-.3-5.4-.666-11.022-.666-16.57,0-1.553,0-3.107.074-4.66a2.362,2.362,0,0,0-.814-1.775,2.244,2.244,0,0,0-1.923-.444,82.911,82.911,0,0,1-19.085,1.849c-2.885,0-5.844-.074-8.729-.148-2.959-.074-5.992-.148-8.951-.148-13.98,0-18.346,1.479-21.452,2.515a18.756,18.756,0,0,1-2.293.666,2.22,2.22,0,1,0,.814,4.364,25.434,25.434,0,0,0,2.811-.814c2.885-.962,6.805-2.293,20.047-2.293,2.958,0,5.992.074,8.876.148s5.844.148,8.8.148a88.482,88.482,0,0,0,17.31-1.406v2c0,5.622.37,11.318.666,16.866.3,5.474.666,11.1.666,16.644a66.745,66.745,0,0,1-1.11,13.833,2.234,2.234,0,0,0,1.184,2.441,2.263,2.263,0,0,0,2.663-.518c3.7-4.069,7.175-5.992,10.727-5.992,1.7,0,6.805,0,6.805,8.211,0,5.918-4.364,17.014-11.762,25.225a2.24,2.24,0,0,0-.3,2.515,65.077,65.077,0,0,1,7.1,30.181c0,1.036-.074,2.071-.074,3.107v.888A2.124,2.124,0,0,0,2366.864,544.505Z" transform="translate(-1601.877 -125.77)" fill="#003"/>
    <path id="Path_37804" data-name="Path 37804" d="M2244.659,616.154c.518.888,1.036,1.7,1.553,2.589a61.985,61.985,0,0,1,13.759-1.7,13.539,13.539,0,0,1-1.183-.962,2.2,2.2,0,0,1,2.959-3.255l1.331,1.11a48.588,48.588,0,0,0,.666-7.767c0-14.869-11.022-21.008-22.71-27.592-16.94-9.543-38.1-21.378-38.1-64.726,0-10.726,1.405-21.526,2.737-31.956.962-7.545,2-15.386,2.515-23.227a2.224,2.224,0,1,0-4.438-.3c-.518,7.693-1.48,15.46-2.441,22.932-1.405,10.578-2.812,21.452-2.812,32.474,0,38.244,25.542,59.3,27.745,61s10.943,6.61,12.645,7.572c11.392,6.436,20.417,11.466,20.417,23.745a41.182,41.182,0,0,1-.518,6.51,72.946,72.946,0,0,0-16.422,2.515A2.244,2.244,0,0,1,2244.659,616.154Z" transform="translate(-1578.647 -134.688)" fill="#003"/>
    <path id="Path_37806" data-name="Path 37806" d="M2240.464,501a2.229,2.229,0,0,0,2.811-1.331,2.169,2.169,0,0,0-1.332-2.811,17.692,17.692,0,0,0-6.066-.962c-7.767,0-15.978,4.216-15.978,12.132,0,5.03,2.663,8.359,6.731,8.359,3.773,0,5.548-4.364,5.548-8.507a9.65,9.65,0,0,0-2.219-6.51A16.543,16.543,0,0,1,2240.464,501Zm-13.833,10.948c-2.145,0-2.293-3.255-2.293-3.921a5.76,5.76,0,0,1,1.775-4.142,5.183,5.183,0,0,1,1.627,4.068C2227.667,509.881,2227,511.73,2226.631,511.952Z" transform="translate(-1584.217 -144.996)" fill="#003"/>
    <path id="Path_37807" data-name="Path 37807" d="M2298.2,509.775c0,6.288,6.14,8.877,8.655,8.877,2.885,0,6.065-3.7,6.065-8.655a20.639,20.639,0,0,0-2-8.211,13.252,13.252,0,0,1,7.841.962,2.2,2.2,0,0,0,2-3.921,16.218,16.218,0,0,0-7.4-1.627C2306.041,497.126,2298.2,501.564,2298.2,509.775Zm8.581-6.584a17.3,17.3,0,0,1,1.7,6.731,5.034,5.034,0,0,1-1.776,4.217c-.814-.148-4.068-1.258-4.068-4.438A7.488,7.488,0,0,1,2306.781,503.191Z" transform="translate(-1604.597 -145.336)" fill="#003"/>
    <path id="Path_37808" data-name="Path 37808" d="M2233.462,470.68a2.169,2.169,0,0,0,1.479-2.737,2.2,2.2,0,0,0-2.737-1.479l-.74.222c-4.882,1.479-10.356,3.107-14.5,7.249a2.144,2.144,0,0,0,0,3.107,2.145,2.145,0,0,0,3.107,0c3.329-3.329,8.063-4.734,12.649-6.14Z" transform="translate(-1583.281 -137.309)" fill="#003"/>
    <path id="Path_37809" data-name="Path 37809" d="M2319.2,471.762a26.253,26.253,0,0,1,7.693,2.071,2.276,2.276,0,0,0,.961.222,2.179,2.179,0,0,0,2-1.258,2.253,2.253,0,0,0-.961-2.959,28.886,28.886,0,0,0-8.95-2.441,30.976,30.976,0,0,1-6.51-1.553,2.225,2.225,0,0,0-1.628,4.142A38.424,38.424,0,0,0,2319.2,471.762Z" transform="translate(-1607.768 -137.134)" fill="#003"/>
    <path id="Path_37810" data-name="Path 37810" d="M2250.9,533.953a16.433,16.433,0,0,0,2.737-1.553c8.8-6.14,9.246-24.115,9.616-39.945.148-4.808.222-9.395.592-13.019a2.229,2.229,0,0,0-2-2.441,2.188,2.188,0,0,0-2.441,2c-.37,3.773-.518,8.433-.592,13.389-.37,14.055-.814,31.512-7.767,36.395a18.62,18.62,0,0,1-2.145,1.184c-2.811,1.405-7.1,3.551-7.1,8.8,0,3.847,2.663,7.915,7.619,7.915,1.924,0,3.625.148,5.548.3,1.849.148,3.772.3,5.844.3a2.219,2.219,0,1,0,0-4.438c-1.923,0-3.625-.148-5.548-.3-1.849-.148-3.772-.3-5.844-.3a3.253,3.253,0,0,1-3.181-3.477C2246.238,536.394,2248.014,535.359,2250.9,533.953Z" transform="translate(-1589.917 -140.072)" fill="#003"/>
    <path id="Path_37812" data-name="Path 37812" d="M2353.7,829.078a2.253,2.253,0,0,0-2.663,1.7c-6.362,28.332-28.11,52.669-57.847,68.425a2.345,2.345,0,0,1-.887,1.849,2.218,2.218,0,0,1-2.663,0,168.125,168.125,0,0,1-74.2,16.94c-11.761,0-16.57-1.184-20.417-2.219a33.476,33.476,0,0,0-9.468-1.332,38.629,38.629,0,0,0-8.433,1.258,37.249,37.249,0,0,1-7.989,1.184c-5.178,0-5.178-1.479-5.178-1.923,0-3.773,9.172-6.731,12.206-7.693a10.067,10.067,0,0,1,1.479-.444,2.2,2.2,0,1,0-1.479-4.142c-.3.148-.74.222-1.258.444a45.537,45.537,0,0,0-9.838,4.142,2.119,2.119,0,0,1,.592,1.627,2.262,2.262,0,0,1-2.219,2.145h-.074c-.814,0-1.554-.148-2.367-.148a7.043,7.043,0,0,0-1.405,4.216c0,2.885,1.7,6.362,9.616,6.362a38.46,38.46,0,0,0,9.025-1.331,33.193,33.193,0,0,1,7.4-1.109,30.884,30.884,0,0,1,8.433,1.183c4.142,1.036,9.247,2.293,21.526,2.293,68.129,0,128.269-38.984,139.883-90.617A2.419,2.419,0,0,0,2353.7,829.078Z" transform="translate(-1568.523 -231.699)" fill="#003"/>
    <path id="Path_37813" data-name="Path 37813" d="M2153.768,924.271a2.261,2.261,0,0,0,2.219-2.145,2.585,2.585,0,0,0-.592-1.627,2.126,2.126,0,0,0-1.479-.666c-16.348-.666-23.3-8.137-25.076-10.43a11.2,11.2,0,0,1-1.775-3.255,96.43,96.43,0,0,1,13.907,3.847c6.51,2.219,13.241,4.438,20.638,4.438h5.4c13.019,0,25.964-3.55,30.846-4.956a5.944,5.944,0,0,1,1.48-.37c5.992,0,9.1,1.923,12.132,3.7a27.053,27.053,0,0,0,3.846,2.071,2.461,2.461,0,0,0,1.627.074,101.713,101.713,0,0,1,13.611-3.773c6.51-1.406,11.022-2.441,26.556-11.466l-.222-.222a2.2,2.2,0,0,1,2.959-3.255c.444.37.814.814,1.258,1.184,2-1.184,4.216-2.515,6.583-3.921-.518-1.849-.074-2.367.222-2.811a2.285,2.285,0,0,1,2.515-.888,2.353,2.353,0,0,1,1.406,1.184c3.181-1.923,6.583-4.143,10.43-6.51a2.2,2.2,0,0,0-2.367-3.7c-36.764,23.227-41.5,24.263-50.228,26.186a106.073,106.073,0,0,0-13.241,3.625c-.814-.444-1.628-.888-2.515-1.406a25.133,25.133,0,0,0-14.573-4.364,8.794,8.794,0,0,0-2.515.592c-4.734,1.332-17.236,4.808-29.663,4.808h-5.4c-6.657,0-12.8-2.071-19.233-4.216a91.061,91.061,0,0,0-15.46-4.143c-.148,0-.37-.074-.518-.074a3.793,3.793,0,0,0-3.846,3.92c-.148,5.992,9.395,16.94,28.776,18.567.813.074,1.553.148,2.367.148C2153.694,924.271,2153.694,924.271,2153.768,924.271Z" transform="translate(-1558.918 -245.077)" fill="#003"/>
    <path id="Path_37814" data-name="Path 37814" d="M2339.938,852.185a2.085,2.085,0,0,0,1.11-.3c6.14-3.477,30.995-28.775,30.995-81.37a2.219,2.219,0,1,0-4.438,0c0,56.811-28.406,77.3-28.7,77.523a2.182,2.182,0,0,0-.814,3.033A2.007,2.007,0,0,0,2339.938,852.185Z" transform="translate(-1614.896 -215.895)" fill="#003"/>
    <path id="Path_37826" data-name="Path 37826" d="M2000.326,652.121a178.942,178.942,0,0,1-14.351-17.014c-23.08-30.995-35.137-66.871-35.137-86.326a82.267,82.267,0,0,1,.444-8.581c-.592.518-1.11,1.036-1.7,1.479a2.239,2.239,0,0,1-2.885.074c-.222,2.367-.3,4.66-.3,7.027,0,5.326,1.664,13.863,3.292,21.113,1.645,4.475,16.427,42.958,21,49.929,4.3,5.918,20.9,29.636,26.6,35.554a1.917,1.917,0,0,1,.518-.814C1998.7,653.748,1999.512,652.935,2000.326,652.121Z" transform="translate(-1513.033 -156.527)" fill="#003"/>
    <path id="Path_37827" data-name="Path 37827" d="M2029.97,706.352a2.493,2.493,0,0,1-1.257-.37,2.306,2.306,0,0,1-.962-2.367,21.461,21.461,0,0,1,.666-2.071c-2.145-1.923-4.29-3.847-6.288-5.844-.813.814-1.627,1.627-2.515,2.441a3.052,3.052,0,0,1-.814.518c20.638,20.491,49.784,38.614,88.323,38.614,15.608,0,39.058-2.441,41.2-2.737,1.775.222,5.992,8.655,8.063,33.954a2.2,2.2,0,0,0,2.219,2.071h.222a2.122,2.122,0,0,0,2-2.367c-3.181-38.022-10.208-38.022-12.575-38.022h-.222c-.222,0-24.855,2.737-40.907,2.737-30.994,0-55.775-12.28-74.713-27.888-.37.3-.814.666-1.183.962A1.709,1.709,0,0,1,2029.97,706.352Z" transform="translate(-1531.876 -196.999)" fill="#003"/>
    <path id="Path_37828" data-name="Path 37828" d="M1949.433,536.916a16.245,16.245,0,0,1,1.7-1.479c5.1-4.512,11.022-8.729,17.236-9.173-2.219,3.625-5.326,6.732-8.507,10.06a78.875,78.875,0,0,0-8.285,9.616,2.244,2.244,0,0,0,3.329,2.959c4.734-4.364,9.987-8.433,16.2-9.173-1.257,3.921-3.846,6.953-6.583,10.134-3.329,3.921-6.732,7.915-7.841,13.759a2.324,2.324,0,0,0,.961,2.293,2.233,2.233,0,0,0,2.515-.074,59.023,59.023,0,0,0,6.436-5.7c4.66-4.438,9.025-8.655,14.795-8.655h.37c-.074.148-.222.37-.3.518-3.773,6.066-15.238,24.485-16.792,32.326a2.193,2.193,0,0,0,1.776,2.589c.148,0,.3.074.444.074a2.151,2.151,0,0,0,2.145-1.775c.962-4.66,6.436-15.091,16.274-30.847,1.405-2.219,1.405-2.219,1.405-2.885,0-2.145-1.627-4.438-5.178-4.438-5.622,0-9.986,2.811-13.981,6.288.148-.148.3-.37.444-.518,3.255-3.773,6.584-7.767,7.915-13.463,0-.148.074-.37.074-.518a4.049,4.049,0,0,0-3.846-3.625,22.669,22.669,0,0,0-5.992,1.184,44.074,44.074,0,0,0,7.62-10.356,2.613,2.613,0,0,0,.222-1.036c0-2.589-3.551-3.107-4.216-3.107a21.116,21.116,0,0,0-7.1,1.258,5.6,5.6,0,0,1-.074,1.11,2.2,2.2,0,0,1-4.216.74,57.911,57.911,0,0,0-11.836,8.8,2.213,2.213,0,0,0-.148,3.107c.074.074.148.148.222.148A2.237,2.237,0,0,0,1949.433,536.916Z" transform="translate(-1512.886 -151.765)" fill="#003"/>
    <path id="Path_37829" data-name="Path 37829" d="M1964.4,517.628a2.228,2.228,0,0,0,2.367-2.071c0-.37.074-.74.074-1.11.074-.888.074-1.849.074-2.959V505.5c0-6.066.074-8.8,1.849-10.06,2.293-1.627,8.211-1.923,18.271-1.923h.518a91.139,91.139,0,0,1,12.279.592c4.586.666,5.622,1.775,5.622,2.145a114.439,114.439,0,0,1-.888,12.723,175.115,175.115,0,0,0-1.257,21.3c0,4.66.148,9.321.222,13.907.148,4.512.222,9.173.222,13.759v2.737c0,5.4,0,9.025-.962,10.06-.592.592-2.071.814-4.734.814a46.23,46.23,0,0,1-8.8-1.11,51.824,51.824,0,0,0-9.691-1.184,2.219,2.219,0,0,0,0,4.438,47.733,47.733,0,0,1,8.877,1.11,51.8,51.8,0,0,0,9.617,1.183c3.4,0,6.066-.37,7.841-2.145,2.293-2.367,2.293-5.992,2.293-13.167v-2.737c0-4.66-.148-9.321-.222-13.907-.148-4.512-.222-9.173-.222-13.759,0-2.959.074-5.474.148-7.841.222-5.326.666-9.32,1.11-13.019a119.2,119.2,0,0,0,.887-13.241c0-5.178-7.1-6.214-9.395-6.51a90.34,90.34,0,0,0-12.871-.666h-.518c-.814,0-18.271.962-20.86,2.811-3.773,2.589-3.773,7.027-3.773,13.833v5.844c0,1.479,0,2.663-.074,3.773a2.361,2.361,0,0,0,.222,1.036A2.015,2.015,0,0,0,1964.4,517.628Z" transform="translate(-1517.198 -143.201)" fill="#003"/>
    <path id="Path_37830" data-name="Path 37830" d="M1992.564,512.712c.592,0,1.183-.074,1.775-.074a12.027,12.027,0,0,1,4.068.592,2.163,2.163,0,0,0,.666.148,2.13,2.13,0,0,0,2.071-1.553,2.206,2.206,0,0,0-1.405-2.811,17.818,17.818,0,0,0-5.474-.814,16.7,16.7,0,0,0-1.923.074c-.592,0-1.258.074-1.923.074a2.219,2.219,0,0,0,0,4.438C1991.233,512.712,1991.9,512.712,1992.564,512.712Z" transform="translate(-1523.913 -148.198)" fill="#003"/>
    <path id="Path_37831" data-name="Path 37831" d="M2001.319,523.066a7.767,7.767,0,0,0-3.329-.666,9.918,9.918,0,0,0-1.48.074,9.588,9.588,0,0,1-2.071,0,2.207,2.207,0,0,0-1.036,4.29,12.55,12.55,0,0,0,3.4.148c.37,0,.814-.074,1.183-.074a3.091,3.091,0,0,1,1.332.222,2.278,2.278,0,0,0,.962.222,2.239,2.239,0,0,0,1.036-4.216Z" transform="translate(-1524.826 -151.895)" fill="#003"/>
    <path id="Path_37832" data-name="Path 37832" d="M2002.135,538.519a2.179,2.179,0,0,0-2.219-2.219h-7.4a2.219,2.219,0,1,0,0,4.438h7.4A2.179,2.179,0,0,0,2002.135,538.519Z" transform="translate(-1524.46 -155.512)" fill="#003"/>
    <path id="Path_37901" data-name="Path 37901" d="M2100.994,430.8a9.452,9.452,0,0,0-2.834.445c-.223,0-.445-.056-.667-.056-5.447,0-7.892,6.392-7.892,10.893,0,6.725,6.725,10.393,13.117,10.393a14.4,14.4,0,0,0,2.279-.222,10.32,10.32,0,0,1,1.834-.222c2.89,0,7.114-3.946,7.114-9.337C2114,436.969,2109,430.8,2100.994,430.8Zm5.891,17.9a10.959,10.959,0,0,0-2.446.278,9.767,9.767,0,0,1-1.723.222c-3.78,0-9.782-1.89-9.782-7.059,0-2.612,1.334-7.559,4.558-7.559a2.489,2.489,0,0,1,.611.056,1.649,1.649,0,0,0,.889-.111,5.385,5.385,0,0,1,2-.333c5.78,0,9.671,4.391,9.671,8.559C2110.665,446.418,2107.663,448.7,2106.885,448.7Z" transform="translate(-1626.79 -115.554)" fill="#003"/>
    <path id="Path_37902" data-name="Path 37902" d="M2106.479,444.2a3.584,3.584,0,0,0-1.112.167,1.733,1.733,0,0,0-1.112,1.723,3.5,3.5,0,1,0,6.447,2.168A4.38,4.38,0,0,0,2106.479,444.2Z" transform="translate(-1633.053 -121.506)" fill="#fe6a00"/>
    <path id="Path_37903" data-name="Path 37903" d="M2071.213,438.888a1.653,1.653,0,0,0-1.5-2.946c-1.612.834-3.613,2.668-3.613,6.725,0,4.947,1.111,6.225,2.445,7.281.111.111.222.167.333.278a1.612,1.612,0,0,0,2.334,0,1.611,1.611,0,0,0,0-2.334,5.474,5.474,0,0,0-.612-.556c-.555-.445-1.167-.945-1.167-4.669C2069.49,439.721,2070.824,439.055,2071.213,438.888Z" transform="translate(-1616.351 -117.75)" fill="#003"/>
    <path id="Path_37904" data-name="Path 37904" d="M2051.9,427.289a1.592,1.592,0,0,0-2.279.556,21.216,21.216,0,0,0-3.224,11.116,15.05,15.05,0,0,0,4.224,10.949,1.611,1.611,0,0,0,2.334,0,1.611,1.611,0,0,0,0-2.334,11.891,11.891,0,0,1-3.223-8.559,17.914,17.914,0,0,1,2.723-9.337A1.793,1.793,0,0,0,2051.9,427.289Z" transform="translate(-1607.6 -113.877)" fill="#003"/>
    <path id="Path_37905" data-name="Path 37905" d="M2140.659,449.008a1.538,1.538,0,0,0,.5.056,1.668,1.668,0,0,0,1.612-1.167,13.666,13.666,0,0,0,.556-4,13.423,13.423,0,0,0-2.724-8.226,1.667,1.667,0,1,0-2.667,2,10.213,10.213,0,0,1,2.056,6.225,10.6,10.6,0,0,1-.444,3A1.757,1.757,0,0,0,2140.659,449.008Z" transform="translate(-1648.114 -117.422)" fill="#003"/>
    <path id="Path_37906" data-name="Path 37906" d="M2154.051,448.26a1.482,1.482,0,0,0,.667.167,1.692,1.692,0,0,0,1.5-1,18.4,18.4,0,0,0,1.667-7.726,24.829,24.829,0,0,0-5.947-15.4,1.658,1.658,0,0,0-2.557,2.112,21.434,21.434,0,0,1,5.224,13.339,15.438,15.438,0,0,1-1.333,6.336A1.574,1.574,0,0,0,2154.051,448.26Z" transform="translate(-1653.171 -112.394)" fill="#003"/>
    <path id="Path_37989" data-name="Path 37989" d="M2051.692,676.863a1.741,1.741,0,0,0-.592.148c-6.51,2.515-11.1,6.879-15.534,11.1.3-.592.666-1.257.962-1.849,4.882-9.025,7.25-13.611,7.027-16.274a2.8,2.8,0,0,0-1.183-2.219,2.948,2.948,0,0,0-1.554-.666c-2.515-.148-7.471,3.107-22.635,18.123l-2.515,2.515a3.059,3.059,0,0,0-.518.814,2.223,2.223,0,0,0,2.811,2.885,1.911,1.911,0,0,0,.813-.518c.888-.888,1.7-1.7,2.515-2.441,9.691-9.542,14.647-13.759,17.162-15.534-1.257,3.107-3.921,7.989-5.7,11.244-2.145,3.995-4.068,7.545-5.178,10.134a10.936,10.936,0,0,0-.666,2.071,2.186,2.186,0,0,0,.962,2.367,2.494,2.494,0,0,0,1.258.37,2.386,2.386,0,0,0,1.331-.444,7.468,7.468,0,0,0,1.184-.962c2.589-2,4.882-4.216,7.175-6.288,4.29-4.142,8.359-7.989,14.055-10.134a2.292,2.292,0,0,0,1.406-2.515c0-.148-.074-.222-.074-.37A2.426,2.426,0,0,0,2051.692,676.863Z" transform="translate(-1530.889 -189.555)" fill="#003"/>
    <path id="Path_38130" data-name="Path 38130" d="M2403.562,401.6a13.606,13.606,0,0,1,2.885-.962c2.293-.592,6.14-1.11,12.427-1.11.888,0,1.7.074,2.515.148a2.23,2.23,0,1,0,.444-4.438c-.961-.074-2-.148-2.959-.148a57.284,57.284,0,0,0-14.2,1.405c0-3.255-.961-9.1-5.474-19.159a2.234,2.234,0,1,0-4.068,1.849c2.737,6.214,5.844,14.647,4.808,19.677a2.6,2.6,0,0,0,.739,2.663,1.744,1.744,0,0,0,.74.37,2.05,2.05,0,0,0,.666.074A3.289,3.289,0,0,0,2403.562,401.6Z" transform="translate(-1629.772 -113.797)" fill="#003"/>
  </g>
</svg>
