
<svg id="arabic" xmlns="http://www.w3.org/2000/svg" width="52.575" height="69.08" viewBox="0 0 52.575 69.08">
  <g id="Group_19130" data-name="Group 19130" transform="matrix(-0.035, 0.999, -0.999, -0.035, 36.586, 11.602)">
    <path id="Path_37386" data-name="Path 37386" d="M15.471,10.282c-1.891.824-3.783,1.552-5.626,2.328-2.57,1.018-5.286,2.085-7.76,3.3a1.46,1.46,0,0,1-1.406-.1A1.442,1.442,0,0,1,0,14.6c0-.727,0-1.406.048-2.134.194.048.34.048.534.1a1.432,1.432,0,1,0,.534-2.813,6.225,6.225,0,0,1-.922-.194c.048-.922.1-1.843.194-2.716C.533,5.093.63,3.25.679,1.407A1.37,1.37,0,0,1,1.406.194,1.368,1.368,0,0,1,2.134,0a1.368,1.368,0,0,1,.727.194c2.182,1.261,4.365,2.571,6.547,3.88,2.086,1.213,4.171,2.473,6.208,3.637a1.416,1.416,0,0,1,.728,1.358A1.3,1.3,0,0,1,15.471,10.282ZM7.905,6.547C6.4,5.675,4.947,4.8,3.443,3.929,3.4,5,3.3,6.014,3.249,7.033c-.1,1.746-.242,3.492-.291,5.286,1.94-.873,3.88-1.649,5.82-2.376.97-.388,1.891-.776,2.862-1.164C10.427,8,9.166,7.275,7.905,6.547Z" transform="translate(40.617 18.576)" fill="#fe6a00"/>
    <path id="Path_38047" data-name="Path 38047" d="M5.07,3.638C3.663,3.444,2.4,3.2,1.141,2.91A1.517,1.517,0,0,1,.026,1.164,1.449,1.449,0,0,1,1.432,0a.615.615,0,0,1,.291.048C2.887.291,4.1.534,5.458.728A1.46,1.46,0,0,1,6.67,2.377,1.392,1.392,0,0,1,5.07,3.638Z" transform="translate(23.664 25.851)" fill="#fe6a00"/>
    <path id="Path_38048" data-name="Path 38048" d="M2.544,6.645A1.446,1.446,0,0,1,.8,5.578C.507,4.317.216,3.007.022,1.649A1.435,1.435,0,0,1,1.235,0h.242A1.5,1.5,0,0,1,2.932,1.213c.194,1.261.437,2.522.728,3.686A1.518,1.518,0,0,1,2.544,6.645Z" transform="matrix(0.985, 0.174, -0.174, 0.985, 1.09, 0.715)" fill="#fe6a00"/>
    <path id="Path_38049" data-name="Path 38049" d="M4.345,5.917a1.433,1.433,0,0,1-2.037-.339A27.344,27.344,0,0,1,.174,2.134,1.488,1.488,0,0,1,.756.146,1.55,1.55,0,0,1,1.435,0,1.529,1.529,0,0,1,2.744.776a22.317,22.317,0,0,0,1.94,3.1A1.426,1.426,0,0,1,4.345,5.917Z" transform="translate(3.729 11.932)" fill="#fe6a00"/>
    <path id="Path_38050" data-name="Path 38050" d="M4.177,4.7A23.16,23.16,0,0,1,.636,2.668,1.47,1.47,0,0,1,.248.631,1.4,1.4,0,0,1,1.461,0a1.635,1.635,0,0,1,.825.242,22.705,22.705,0,0,0,3.2,1.795,1.453,1.453,0,0,1,.679,1.94A1.5,1.5,0,0,1,4.177,4.7Z" transform="translate(12.044 21.195)" fill="#fe6a00"/>
    <path id="Path_38051" data-name="Path 38051" d="M6.7,2.328a1.406,1.406,0,0,1-1.7,1.115c-.146-.048-.339-.048-.533-.1-.873-.146-1.892-.291-3.2-.485a1.459,1.459,0,0,1-1.261-1.6A1.464,1.464,0,0,1,1.466,0H1.66C2.872.146,3.842.291,4.667.437A5.156,5.156,0,0,1,5.588.63,1.48,1.48,0,0,1,6.7,2.328Z" transform="translate(36.193 27.645)" fill="#fe6a00"/>
    <path id="Path_48360" data-name="Path 48360" d="M2.544,6.645A1.446,1.446,0,0,1,.8,5.578C.507,4.317.216,3.007.022,1.649A1.435,1.435,0,0,1,1.235,0h.242A1.5,1.5,0,0,1,2.932,1.213c.194,1.261.437,2.522.728,3.686A1.518,1.518,0,0,1,2.544,6.645Z" transform="translate(5.139 -11.499) rotate(40)" fill="#fe6a00"/>
    <path id="Path_48361" data-name="Path 48361" d="M2.544,6.645A1.446,1.446,0,0,1,.8,5.578C.507,4.317.216,3.007.022,1.649A1.435,1.435,0,0,1,1.235,0h.242A1.5,1.5,0,0,1,2.932,1.213c.194,1.261.437,2.522.728,3.686A1.518,1.518,0,0,1,2.544,6.645Z" transform="translate(17.066 -15.601) rotate(90)" fill="#fe6a00"/>
    <path id="Path_48362" data-name="Path 48362" d="M2.544,6.645A1.446,1.446,0,0,1,.8,5.578C.507,4.317.216,3.007.022,1.649A1.435,1.435,0,0,1,1.235,0h.242A1.5,1.5,0,0,1,2.932,1.213c.194,1.261.437,2.522.728,3.686A1.518,1.518,0,0,1,2.544,6.645Z" transform="translate(28.533 -11.337) rotate(130)" fill="#fe6a00"/>
    <path id="Path_48363" data-name="Path 48363" d="M2.544,6.645A1.446,1.446,0,0,1,.8,5.578C.507,4.317.216,3.007.022,1.649A1.435,1.435,0,0,1,1.235,0h.242A1.5,1.5,0,0,1,2.932,1.213c.194,1.261.437,2.522.728,3.686A1.518,1.518,0,0,1,2.544,6.645Z" transform="matrix(-0.985, -0.174, 0.174, -0.985, 31.296, 0.359)" fill="#fe6a00"/>
    <path id="Path_48364" data-name="Path 48364" d="M2.544,6.645A1.446,1.446,0,0,1,.8,5.578C.507,4.317.216,3.007.022,1.649A1.435,1.435,0,0,1,1.235,0h.242A1.5,1.5,0,0,1,2.932,1.213c.194,1.261.437,2.522.728,3.686A1.518,1.518,0,0,1,2.544,6.645Z" transform="translate(25.294 11.179) rotate(-130)" fill="#fe6a00"/>
    <path id="Path_48365" data-name="Path 48365" d="M2.544,6.645A1.446,1.446,0,0,1,.8,5.578C.507,4.317.216,3.007.022,1.649A1.435,1.435,0,0,1,1.235,0h.242A1.5,1.5,0,0,1,2.932,1.213c.194,1.261.437,2.522.728,3.686A1.518,1.518,0,0,1,2.544,6.645Z" transform="translate(16.892 17.848) rotate(-110)" fill="#fe6a00"/>
    <path id="Path_48366" data-name="Path 48366" d="M2.544,6.645A1.446,1.446,0,0,1,.8,5.578C.507,4.317.216,3.007.022,1.649A1.435,1.435,0,0,1,1.235,0h.242A1.5,1.5,0,0,1,2.932,1.213c.194,1.261.437,2.522.728,3.686A1.518,1.518,0,0,1,2.544,6.645Z" transform="translate(7.282 22.188) rotate(-103)" fill="#fe6a00"/>
    <path id="Path_48367" data-name="Path 48367" d="M2.544,6.645A1.446,1.446,0,0,1,.8,5.578C.507,4.317.216,3.007.022,1.649A1.435,1.435,0,0,1,1.235,0h.242A1.5,1.5,0,0,1,2.932,1.213c.194,1.261.437,2.522.728,3.686A1.518,1.518,0,0,1,2.544,6.645Z" transform="translate(-1.613 24.401) rotate(-93)" fill="#fe6a00"/>
    <path id="Path_48368" data-name="Path 48368" d="M2.544,6.645A1.446,1.446,0,0,1,.8,5.578C.507,4.317.216,3.007.022,1.649A1.435,1.435,0,0,1,1.235,0h.242A1.5,1.5,0,0,1,2.932,1.213c.194,1.261.437,2.522.728,3.686A1.518,1.518,0,0,1,2.544,6.645Z" transform="translate(-10.401 25.62) rotate(-83)" fill="#fe6a00"/>
  </g>
</svg>
