<?xml version="1.0" encoding="utf-8"?>
<!-- Generator: Adobe Illustrator 16.0.0, SVG Export Plug-In . SVG Version: 6.00 Build 0)  -->
<!DOCTYPE svg PUBLIC "-//W3C//DTD SVG 1.1//EN" "http://www.w3.org/Graphics/SVG/1.1/DTD/svg11.dtd">
<svg version="1.1" id="Layer_1" xmlns="http://www.w3.org/2000/svg" xmlns:xlink="http://www.w3.org/1999/xlink" x="0px" y="0px"
	 width="80px" height="80px" viewBox="0 0 80 80" enable-background="new 0 0 80 80" xml:space="preserve">

<svg xmlns="http://www.w3.org/2000/svg" viewBox="0 0 499.66 499.66"><defs><style>.cls-1{fill:#003;stroke:#003;stroke-width:19.85px;}.cls-1,.cls-4{stroke-linecap:round;}.cls-2,.cls-3{fill:#fff;stroke:#fff;}.cls-2{stroke-width:5px;}.cls-4{fill:none;stroke:#fe6a00;stroke-miterlimit:10;stroke-width:20px;}</style></defs><g id="Layer_2" data-name="Layer 2"><g id="Layer_1-2" data-name="Layer 1"><circle id="Ellipse_536" data-name="Ellipse 536" class="cls-1" cx="249.83" cy="249.83" r="239.91"/><g id="Group_19300" data-name="Group 19300"><path id="Path_16654" data-name="Path 16654" class="cls-2" d="M176.07,251.6H165.25v51.83c0,48.45,39.64,89.69,88.08,88.87a86.67,86.67,0,0,0,85.1-86.58v-.61a10.21,10.21,0,0,0-10.21-10.21h-2.51a8.92,8.92,0,0,0-8.93,8.92h0c0,33.8-25,63.39-58.68,66.55a65,65,0,0,1-70.91-58.53q-.28-3-.29-6.12V251.6"/><path id="Rectangle_4475" data-name="Rectangle 4475" class="cls-3" d="M176.66,236.82H323a13.45,13.45,0,0,1,13.44,13.45h0A13.44,13.44,0,0,1,323,263.71H176.66a13.44,13.44,0,0,1-13.44-13.44h0A13.45,13.45,0,0,1,176.66,236.82Z"/><path id="Path_16655" data-name="Path 16655" class="cls-2" d="M323.59,248.06h10.82V196.23c0-48.45-39.64-89.69-88.08-88.87a86.69,86.69,0,0,0-85.1,86.58v.61a10.21,10.21,0,0,0,10.21,10.21H174a8.92,8.92,0,0,0,8.93-8.92h0c0-33.8,25-63.38,58.68-66.55a65,65,0,0,1,70.91,58.53q.28,3.06.29,6.12v54.12"/></g><path id="Path_48342" data-name="Path 48342" class="cls-4" d="M265.31,309l-20.6-.08"/></g></g></svg>
</svg>
