
<svg id="WAITLIST" xmlns="http://www.w3.org/2000/svg" width="305.032" height="144.256" viewBox="0 0 305.032 144.256">
  <g id="Group_19268" data-name="Group 19268" transform="translate(-20009.275 9494.443)">
    <g id="Group_19083" data-name="Group 19083" transform="translate(20046.67 -9378.965)">
      <path id="Path_48136" data-name="Path 48136" d="M1364.775,1014.545c-4.065,0-6.275-4.772-6.275-9.323,0-4.772,2.121-9.721,5.7-9.721a3.678,3.678,0,0,1,.972.133c1.237.353,3.491,1.5,4.507,5.7a14.42,14.42,0,0,1,.354,3.226C1369.989,1009.552,1368.4,1014.545,1364.775,1014.545Zm-.574-16.614c-1.5,0-3.27,3.182-3.27,7.291,0,3.314,1.458,6.893,3.844,6.893,1.547,0,2.784-3.4,2.784-7.556a11.682,11.682,0,0,0-.265-2.651c-.53-2.165-1.5-3.623-2.74-3.933A.973.973,0,0,0,1364.2,997.93Z" transform="translate(-1358.5 -995.5)" fill="#003"/>
    </g>
    <g id="Group_19097" data-name="Group 19097" transform="translate(20091.113 -9395.321)">
      <path id="Path_48150" data-name="Path 48150" d="M1471.021,976.121a1.238,1.238,0,0,1-1.016-.53l-10.693-15.2a1.207,1.207,0,0,1,1.988-1.37l10.693,15.2a1.169,1.169,0,0,1-.309,1.679A1.191,1.191,0,0,1,1471.021,976.121Z" transform="translate(-1459.083 -958.483)" fill="#003"/>
    </g>
    <g id="Group_19084" data-name="Group 19084" transform="translate(20148.477 -9378.965)">
      <path id="Path_48137" data-name="Path 48137" d="M1595.175,1014.545c-4.065,0-6.275-4.772-6.275-9.323,0-4.772,2.121-9.721,5.7-9.721a3.678,3.678,0,0,1,.972.133c1.237.353,3.491,1.5,4.507,5.7a14.42,14.42,0,0,1,.354,3.226C1600.389,1009.552,1598.8,1014.545,1595.175,1014.545Zm-.574-16.614c-1.5,0-3.27,3.182-3.27,7.291,0,3.314,1.458,6.893,3.844,6.893,1.547,0,2.784-3.4,2.784-7.556a11.682,11.682,0,0,0-.265-2.651c-.53-2.165-1.5-3.623-2.74-3.933A.973.973,0,0,0,1594.6,997.93Z" transform="translate(-1588.9 -995.5)" fill="#003"/>
    </g>
    <g id="Group_19085" data-name="Group 19085" transform="translate(20051.396 -9379.628)">
      <path id="Path_48138" data-name="Path 48138" d="M1470.3,996.475h-99.863a1.237,1.237,0,1,1,0-2.475H1470.3a1.235,1.235,0,0,1,1.237,1.237A1.264,1.264,0,0,1,1470.3,996.475Z" transform="translate(-1369.2 -994)" fill="#003"/>
    </g>
    <g id="Group_19086" data-name="Group 19086" transform="translate(20051.883 -9362.218)">
      <path id="Path_48139" data-name="Path 48139" d="M1472.373,1035.874H1371.537a1.235,1.235,0,0,1-1.237-1.237,1.208,1.208,0,0,1,1.237-1.237h100.835a1.237,1.237,0,1,1,0,2.474Z" transform="translate(-1370.3 -1033.4)" fill="#003"/>
    </g>
    <g id="Group_19087" data-name="Group 19087" transform="translate(20050.426 -9370.922)">
      <path id="Path_48140" data-name="Path 48140" d="M1464.079,1016.174h-4.419a1.237,1.237,0,1,1,0-2.474h4.419a1.235,1.235,0,0,1,1.237,1.237A1.264,1.264,0,0,1,1464.079,1016.174Zm-11.489,0h-4.419a1.237,1.237,0,1,1,0-2.474h4.419a1.235,1.235,0,0,1,1.237,1.237A1.264,1.264,0,0,1,1452.591,1016.174Zm-11.489,0h-4.419a1.237,1.237,0,0,1,0-2.474h4.419a1.235,1.235,0,0,1,1.237,1.237A1.264,1.264,0,0,1,1441.1,1016.174Zm-11.489,0h-4.419a1.237,1.237,0,1,1,0-2.474h4.419a1.235,1.235,0,0,1,1.237,1.237A1.264,1.264,0,0,1,1429.613,1016.174Zm-11.489,0h-4.419a1.237,1.237,0,1,1,0-2.474h4.419a1.235,1.235,0,0,1,1.237,1.237A1.264,1.264,0,0,1,1418.125,1016.174Zm-11.489,0h-4.419a1.237,1.237,0,0,1,0-2.474h4.419a1.235,1.235,0,0,1,1.237,1.237A1.264,1.264,0,0,1,1406.636,1016.174Zm-11.489,0h-4.419a1.237,1.237,0,1,1,0-2.474h4.419a1.235,1.235,0,0,1,1.237,1.237A1.264,1.264,0,0,1,1395.147,1016.174Zm-11.489,0h-4.419a1.237,1.237,0,1,1,0-2.474h4.419a1.235,1.235,0,0,1,1.237,1.237A1.264,1.264,0,0,1,1383.659,1016.174Zm-11.489,0h-3.933a1.237,1.237,0,0,1,0-2.474h3.933a1.235,1.235,0,0,1,1.237,1.237A1.264,1.264,0,0,1,1372.17,1016.174Z" transform="translate(-1367 -1013.7)" fill="#003"/>
    </g>
    <g id="Group_19088" data-name="Group 19088" transform="translate(20014.5 -9386.521)">
      <path id="Path_48141" data-name="Path 48141" d="M1290.914,991.391c-2.961,0-5.214-2.7-5.214-6.275,0-3.27,2.077-6.716,5.17-6.716a3.679,3.679,0,0,1,.972.133c2.3.574,4.2,3.314,4.2,6.186C1296.04,987.414,1294.67,991.391,1290.914,991.391Zm-.044-10.561c-1.414,0-2.74,2.033-2.74,4.286,0,2.165,1.193,3.844,2.784,3.844.574,0,1.37-.133,2.033-1.458a6.684,6.684,0,0,0,.663-2.828c0-1.856-1.237-3.535-2.342-3.8C1291.135,980.875,1291,980.83,1290.87,980.83Z" transform="translate(-1285.7 -978.4)" fill="#003"/>
    </g>
    <g id="Group_19089" data-name="Group 19089" transform="translate(20009.275 -9374.28)">
      <path id="Path_48142" data-name="Path 48142" d="M1275.079,1021.654a1.113,1.113,0,0,1-.884-.4,1.139,1.139,0,0,1-.309-.972c.707-5.3,1.9-14.184,12.2-14.184,7.379,0,7.556,8.307,7.689,13.3v.486a1.234,1.234,0,0,1-.354.884,1.314,1.314,0,0,1-.884.354c-1.1-.044-2.209-.044-3.4-.044-3.933,0-7.91.221-11.754.442l-2.209.133Zm10.958-13.079c-7.423,0-8.838,5.568-9.589,10.6l.751-.044c3.889-.221,7.91-.442,11.886-.442.751,0,1.458,0,2.165.044C1291.119,1013.258,1290.457,1008.575,1286.038,1008.575Z" transform="translate(-1273.875 -1006.1)" fill="#003"/>
    </g>
    <g id="Group_19090" data-name="Group 19090" transform="translate(20031.818 -9370.967)">
      <path id="Path_48143" data-name="Path 48143" d="M1329.006,1016.384c-1.061,0-2.033-.044-2.961-.088a1.217,1.217,0,0,1,.133-2.43c.884.044,1.812.088,2.828.088,1.9,0,3.889-.088,5.833-.177,1.9-.088,3.889-.177,5.833-.177a1.237,1.237,0,1,1,0,2.474c-1.856,0-3.844.088-5.744.177C1332.983,1016.34,1330.995,1016.384,1329.006,1016.384Z" transform="translate(-1324.894 -1013.6)" fill="#003"/>
    </g>
    <g id="Group_19094" data-name="Group 19094" transform="translate(20056.383 -9395.321)">
      <path id="Path_48147" data-name="Path 48147" d="M1392.421,976.121a1.238,1.238,0,0,1-1.016-.53l-10.693-15.2a1.207,1.207,0,1,1,1.988-1.37l10.693,15.2a1.169,1.169,0,0,1-.309,1.679A1.191,1.191,0,0,1,1392.421,976.121Z" transform="translate(-1380.483 -958.483)" fill="#003"/>
    </g>
    <g id="Group_19095" data-name="Group 19095" transform="translate(20067.105 -9409.314)">
      <path id="Path_48148" data-name="Path 48148" d="M1405.965,958.844a1.176,1.176,0,0,1-.53-.133,1.245,1.245,0,0,1-.574-1.635,215.285,215.285,0,0,1,11.4-19.928c1.989-3.182,4.021-6.451,5.921-9.721a1.228,1.228,0,0,1,2.121,1.237c-1.944,3.314-3.977,6.584-5.965,9.81a216.33,216.33,0,0,0-11.268,19.708A1.3,1.3,0,0,1,1405.965,958.844Z" transform="translate(-1404.75 -926.815)" fill="#003"/>
    </g>
    <g id="Group_19096" data-name="Group 19096" transform="translate(20080.586 -9410.205)">
      <path id="Path_48149" data-name="Path 48149" d="M1442.346,930.5a1.108,1.108,0,0,1-1.061-.663,7.391,7.391,0,0,1-.4-1.1c-.133-.353-.309-.928-.486-1.414-.8.133-1.547.309-2.386.486-.442.088-.884.177-1.281.265a1.246,1.246,0,0,1-1.326-.619,1.138,1.138,0,0,1,.221-1.414l.088-.088a1.171,1.171,0,0,1,.972-.354c.265-.044.53-.133.8-.177a28,28,0,0,1,3.447-.619h.177c1.016,0,1.281.751,2.077,3.182.088.309.221.663.265.8a1.23,1.23,0,0,1-.53,1.591A1.526,1.526,0,0,1,1442.346,930.5Z" transform="translate(-1435.257 -924.8)" fill="#003"/>
    </g>
    <g id="Group_19098" data-name="Group 19098" transform="translate(20101.836 -9409.314)">
      <path id="Path_48151" data-name="Path 48151" d="M1484.565,958.844a1.177,1.177,0,0,1-.53-.133,1.245,1.245,0,0,1-.574-1.635,215.286,215.286,0,0,1,11.4-19.928c1.988-3.182,4.021-6.451,5.921-9.721a1.228,1.228,0,0,1,2.121,1.237c-1.944,3.314-3.977,6.584-5.965,9.81a216.3,216.3,0,0,0-11.268,19.708A1.3,1.3,0,0,1,1484.565,958.844Z" transform="translate(-1483.35 -926.815)" fill="#003"/>
    </g>
    <g id="Group_19099" data-name="Group 19099" transform="translate(20115.316 -9410.205)">
      <path id="Path_48152" data-name="Path 48152" d="M1520.946,930.5a1.108,1.108,0,0,1-1.061-.663,7.376,7.376,0,0,1-.4-1.1c-.133-.353-.309-.928-.486-1.414-.8.133-1.547.309-2.386.486-.442.088-.884.177-1.281.265a1.246,1.246,0,0,1-1.326-.619,1.137,1.137,0,0,1,.221-1.414l.088-.088a1.171,1.171,0,0,1,.972-.354c.265-.044.53-.133.8-.177a28,28,0,0,1,3.447-.619h.177c1.016,0,1.281.751,2.077,3.182.088.309.221.663.265.8a1.23,1.23,0,0,1-.53,1.591A1.359,1.359,0,0,1,1520.946,930.5Z" transform="translate(-1513.857 -924.8)" fill="#003"/>
    </g>
    <g id="Group_19100" data-name="Group 19100" transform="translate(20125.846 -9395.321)">
      <path id="Path_48153" data-name="Path 48153" d="M1549.621,976.121a1.238,1.238,0,0,1-1.016-.53l-10.693-15.2a1.207,1.207,0,1,1,1.988-1.37l10.738,15.156a1.169,1.169,0,0,1-.309,1.679A1.083,1.083,0,0,1,1549.621,976.121Z" transform="translate(-1537.683 -958.483)" fill="#003"/>
    </g>
    <g id="Group_19101" data-name="Group 19101" transform="translate(20136.568 -9409.314)">
      <path id="Path_48154" data-name="Path 48154" d="M1563.165,958.844a1.176,1.176,0,0,1-.53-.133,1.245,1.245,0,0,1-.574-1.635,215.285,215.285,0,0,1,11.4-19.928c1.989-3.182,4.021-6.451,5.921-9.721a1.228,1.228,0,0,1,2.121,1.237c-1.944,3.314-3.977,6.584-5.965,9.81a216.33,216.33,0,0,0-11.268,19.708A1.3,1.3,0,0,1,1563.165,958.844Z" transform="translate(-1561.95 -926.815)" fill="#003"/>
    </g>
    <g id="Group_19102" data-name="Group 19102" transform="translate(20150.049 -9410.205)">
      <path id="Path_48155" data-name="Path 48155" d="M1599.546,930.5a1.108,1.108,0,0,1-1.06-.663,7.376,7.376,0,0,1-.4-1.1c-.133-.353-.309-.928-.486-1.414-.8.133-1.547.309-2.386.486-.442.088-.884.177-1.281.265a1.246,1.246,0,0,1-1.326-.619,1.137,1.137,0,0,1,.221-1.414l.088-.088a1.171,1.171,0,0,1,.972-.354c.265-.044.53-.133.8-.177a28,28,0,0,1,3.447-.619h.177c1.016,0,1.281.751,2.077,3.182.088.309.221.663.265.8a1.23,1.23,0,0,1-.53,1.591A1.361,1.361,0,0,1,1599.546,930.5Z" transform="translate(-1592.457 -924.8)" fill="#003"/>
    </g>
  </g>
  <g id="Group_19281" data-name="Group 19281" transform="translate(-748.62 -673.6)">
    <path id="Path_32953" data-name="Path 32953" d="M1214.126,790.371c.688-1.086,1.159-1.774,1.7-1.774.833,0,1.738.76,2.679,1.521,1.159.941,2.462,1.991,4.019,1.991,2.86,0,5.4-4.055,6.735-6.228a1.08,1.08,0,1,0-1.847-1.122c-.905,1.412-3.259,5.214-4.888,5.214a5.051,5.051,0,0,1-2.643-1.521c-1.159-.941-2.462-2.028-4.055-2.028-1.811,0-2.788,1.557-3.548,2.788-.507.8-1.05,1.666-1.521,1.666-.543,0-1.05-.507-1.774-1.376-.905-1.05-2.028-2.317-3.838-2.317-3.114,0-5.5,2.535-6.626,4.055a1.086,1.086,0,1,0,1.738,1.3c.724-.978,2.643-3.186,4.888-3.186.76,0,1.34.579,2.209,1.593s1.847,2.136,3.44,2.136C1212.461,793.05,1213.4,791.566,1214.126,790.371Z" transform="translate(-203.064 -70.568)" fill="#fe6a00"/>
    <path id="Path_32954" data-name="Path 32954" d="M1178.315,775.995c.109,5.5.362,22.268,12.818,22.268,6.807,0,14.013-6.554,14.013-18.648a42.769,42.769,0,0,0-.362-5.468,1.074,1.074,0,0,0-1.122-.941c-1.159.036-2.317.109-3.476.181.724-6.807,4.707-11.84,8.907-17.163,5.105-6.481,10.392-13.144,10.392-23.536,0-16.221-10.356-25.889-27.7-25.889-16.946,0-31.284,13.687-31.284,29.908,0,10.03,5.323,15.859,10.971,22.051,4.164,4.562,8.473,9.269,10.935,16.04-1.05.072-2.064.109-3.114.181A.96.96,0,0,0,1178.315,775.995Zm-5.178-18.792c-5.576-6.119-10.428-11.406-10.428-20.6,0-15.027,13.325-27.736,29.112-27.736,15.968,0,25.527,8.871,25.527,23.717,0,9.632-5.033,16-9.921,22.2-4.273,5.431-8.69,11.044-9.414,18.684-2.354.181-4.707.362-6.988.579-2.064.181-4.2.362-6.3.507C1182.153,767.088,1177.554,762.055,1173.137,757.2Zm10.826,19.589h0c2.462-.181,4.888-.362,7.242-.579,3.8-.326,7.676-.652,11.551-.833.145,1.485.254,2.9.254,4.2,0,10.718-6.119,16.475-11.84,16.475-6.735,0-10.211-6.228-10.609-19.082C1181.646,776.936,1182.8,776.864,1183.963,776.792Z" transform="translate(-178.948 -21.179)" fill="#003"/>
    <path id="Path_32955" data-name="Path 32955" d="M1228.527,910.754c1.267-.072,2.607-.145,3.874-.145a21.912,21.912,0,0,1,3.44.181,25.592,25.592,0,0,1-2.607,1.448c-3.476,1.847-5.576,3.078-5.576,4.78a1.315,1.315,0,0,0,.434,1.014,2.311,2.311,0,0,0,1.738.507h.543a26.106,26.106,0,0,0,8.364-1.557,1.088,1.088,0,1,0-.688-2.064,24.144,24.144,0,0,1-7.568,1.412,27.735,27.735,0,0,1,3.766-2.209c2.969-1.593,4.743-2.535,4.381-4.019-.326-1.267-1.883-1.7-6.264-1.7-1.34,0-2.679.072-3.983.145s-2.607.145-3.911.145q-1.3,0-2.39-.109a1.092,1.092,0,0,0-.217,2.173c.8.072,1.629.109,2.571.109C1225.848,910.9,1227.187,910.826,1228.527,910.754Z" transform="translate(-217.465 -149.782)" fill="#003"/>
    <path id="Path_32965" data-name="Path 32965" d="M897.367,982.217c6.3,0,9.161,3.549,12.492,7.64,3.729,4.562,7.93,9.74,17.67,9.74,10.573,0,16.62-7.024,16.62-19.227a18.332,18.332,0,0,0-.217-2.5,14.106,14.106,0,0,1-.181-2.1c7.6-.8,8-9.6,8.256-16.113a1.116,1.116,0,0,0-1.159-1.159c-2.317.145-4.526.326-6.409.507-1.992.181-3.983.181-5.938.181-1.267,0-2.535,0-3.8.072a1.019,1.019,0,0,0-.76.362,1.265,1.265,0,0,0-.29.8c.036.579.036,1.267.072,1.991.072,4.816.217,12.709,7.857,13.361a16.231,16.231,0,0,0,.217,2.354,16.07,16.07,0,0,1,.181,2.245c0,6.373-1.883,17.054-14.447,17.054-8.69,0-12.383-4.562-15.968-8.943-3.367-4.128-6.88-8.437-14.194-8.437C897.662,979.757,897.285,982.242,897.367,982.217Zm38.526-19.879a8.843,8.843,0,0,0-.036-.978c.905-.036,1.774-.036,2.643-.036a58.277,58.277,0,0,0,6.119-.217c1.521-.145,3.295-.29,5.142-.434-.4,7.6-1.34,12.89-7.206,12.89C936.581,973.6,936,968.494,935.893,962.338Z" transform="translate(0 -181.741)" fill="#003"/>
    <path id="Path_32966" data-name="Path 32966" d="M1050.083,975.864v-.181c-.181-1.738-1.412-1.883-1.774-1.883a1.055,1.055,0,0,0-1.014.724.964.964,0,0,0-.434.109,1.328,1.328,0,0,0-.76,1.231.8.8,0,0,0,.036.29,1.688,1.688,0,0,0,1.883,1.557A1.933,1.933,0,0,0,1050.083,975.864Z" transform="translate(-105.971 -191.501)" fill="#003"/>
    <path id="Path_32967" data-name="Path 32967" d="M1071.945,810.946c-3.512,2.354-8.762,1.919-14.266,1.448-11.514-.978-24.549-2.064-26.758,21.472-4.056.905-7.821,4.562-7.821,10.718,0,.833.036,1.666.072,2.462.036.4.036.833.073,1.231a1.019,1.019,0,0,0,.362.76,1.149,1.149,0,0,0,.724.29h.073c.869-.073,1.774-.109,2.643-.145.036.471.036.905.072,1.376a16.941,16.941,0,0,0,.326,3.295,1.079,1.079,0,0,0,1.05.833.617.617,0,0,0,.253-.036,1.08,1.08,0,0,0,.8-1.3,14.493,14.493,0,0,1-.254-2.86c0-.471-.036-.941-.072-1.412,1.593-.036,3.186-.073,4.779-.073.688,0,1.376-.036,2.064-.036.036,1.448.109,2.86.217,4.309l.036.29a1.076,1.076,0,0,0,1.086,1.014h.072a1.07,1.07,0,0,0,1.014-1.159l-.036-.29c-.109-1.412-.181-2.788-.181-4.2.833-.036,1.666-.036,2.5-.072a1.141,1.141,0,0,0,1.05-1.122c-.181-5.576-2.643-13.8-8.654-14.049,2.136-20.965,12.927-20.06,24.369-19.118,5.938.507,11.514.978,15.678-1.81a1.067,1.067,0,0,0,.29-1.521A1.125,1.125,0,0,0,1071.945,810.946ZM1039.5,846.684c-1.847.072-3.729.072-5.54.109-2.824.036-5.721.072-8.618.253V846.9c-.036-.8-.072-1.593-.072-2.354,0-5.685,3.911-8.763,7.568-8.763C1036.859,835.821,1039.068,841.868,1039.5,846.684Z" transform="translate(-91.299 -87.486)" fill="#003"/>
    <path id="Path_33003" data-name="Path 33003" d="M1106.19,782.624a1.134,1.134,0,0,0-.905,1.267,1.062,1.062,0,0,0,1.086.905h.181a34.446,34.446,0,0,1,5.142-.254,1.086,1.086,0,0,0,0-2.172A31.165,31.165,0,0,0,1106.19,782.624Z" transform="translate(-143.72 -69.376)" fill="#003"/>
    <path id="Path_33004" data-name="Path 33004" d="M1122.578,744.23a1.056,1.056,0,0,0,.326.072,1.043,1.043,0,0,0,1.014-.76,1.08,1.08,0,0,0-.688-1.376,11.406,11.406,0,0,1-1.774-.869,9.55,9.55,0,0,0-3.44-1.412,1.081,1.081,0,0,0-.326,2.136,7.668,7.668,0,0,1,2.643,1.123A11.64,11.64,0,0,0,1122.578,744.23Z" transform="translate(-151.056 -42.279)" fill="#003"/>
    <path id="Path_33005" data-name="Path 33005" d="M1158.722,698.3a1.1,1.1,0,0,0-1.122,1.086,1.059,1.059,0,0,0,1.05,1.086,7.957,7.957,0,0,1,1.376,2.317c.145.326.326.652.471.978a1.067,1.067,0,0,0,.978.616,1,1,0,0,0,.471-.109,1.042,1.042,0,0,0,.471-1.448c-.181-.326-.326-.652-.471-.941C1161.076,699.857,1160.316,698.3,1158.722,698.3Z" transform="translate(-177.098 -15.756)" fill="#003"/>
    <path id="Path_33006" data-name="Path 33006" d="M1206.294,675.206a1.08,1.08,0,0,0-.688,1.376,12.87,12.87,0,0,1,.507,4.417,1.086,1.086,0,1,0,2.173,0,14.838,14.838,0,0,0-.616-5.105A1.08,1.08,0,0,0,1206.294,675.206Z" transform="translate(-207.687 -0.99)" fill="#003"/>
    <path id="Path_33007" data-name="Path 33007" d="M1259.416,679.864a1.538,1.538,0,0,0,.4.072,1.091,1.091,0,0,0,1.014-.688,6.56,6.56,0,0,0,.434-2.5c0-.362,0-.724-.036-1.086,0-.326-.036-.652-.036-.978a1.086,1.086,0,0,0-2.173,0c0,.362,0,.724.036,1.086,0,.326.036.652.036.978a4.684,4.684,0,0,1-.254,1.7A1.052,1.052,0,0,0,1259.416,679.864Z" transform="translate(-241.619 0)" fill="#003"/>
    <path id="Path_33008" data-name="Path 33008" d="M1306.219,691.751a9.565,9.565,0,0,0-.833,1.267,7.191,7.191,0,0,1-1.448,1.883,1.094,1.094,0,0,0-.217,1.521,1.086,1.086,0,0,0,1.521.217,8.664,8.664,0,0,0,2.028-2.462c.254-.4.471-.76.724-1.086a1.112,1.112,0,0,0-1.774-1.34Z" transform="translate(-270.172 -11.307)" fill="#003"/>
    <path id="Path_33009" data-name="Path 33009" d="M1329.953,730.9a.943.943,0,0,0,.543-.145,12.118,12.118,0,0,1,4.092-1.81,1.135,1.135,0,0,0,.905-1.267,1.107,1.107,0,0,0-1.267-.905,14,14,0,0,0-4.852,2.1,1.073,1.073,0,0,0-.362,1.485A1.091,1.091,0,0,0,1329.953,730.9Z" transform="translate(-286.339 -33.908)" fill="#003"/>
    <path id="Path_33010" data-name="Path 33010" d="M1345.473,762.476a1.071,1.071,0,0,0-1.231-.905,24.688,24.688,0,0,1-2.861.253c-.977.073-1.991.145-3.005.29a1.071,1.071,0,0,0-.905,1.231,1.093,1.093,0,0,0,1.086.941h.145a24.689,24.689,0,0,1,2.86-.253c.978-.073,1.991-.145,3.005-.29A1.179,1.179,0,0,0,1345.473,762.476Z" transform="translate(-291.829 -56.107)" fill="#003"/>
    <path id="Path_33011" data-name="Path 33011" d="M1333.248,798.2a46.226,46.226,0,0,0,5.142,2.86,1.114,1.114,0,0,0,.471.109,1.067,1.067,0,0,0,.978-.616,1.1,1.1,0,0,0-.471-1.448,41.6,41.6,0,0,1-4.924-2.716,1.085,1.085,0,1,0-1.195,1.81Z" transform="translate(-288.837 -78.217)" fill="#003"/>
  </g>
</svg>
