
<svg id="SCAN_QR_CODE" data-name="SCAN QR CODE" xmlns="http://www.w3.org/2000/svg" width="94.53" height="127.621" viewBox="0 0 94.53 127.621">
  <path id="Path_47645" data-name="Path 47645" d="M2244.4,758.857a9.619,9.619,0,0,0-12.3-7.469c-2.823.789-5.981,2.429-7.347,5.162a9.578,9.578,0,0,0-.547,6.073,4.1,4.1,0,0,0-.182,2.186c1.032,5.04,8.653,7.773,13.147,7.044C2242.824,770.911,2245.436,763.867,2244.4,758.857Zm-6.771-1.913a4.384,4.384,0,0,0-.334-.789c.182.121.395.243.577.364A1.19,1.19,0,0,0,2237.632,756.944Zm-4.554,9.23a4.654,4.654,0,0,0,.516.577,1.709,1.709,0,0,0,.031.395,8.552,8.552,0,0,1-.941-.3A4.819,4.819,0,0,0,2233.078,766.174Zm4.585.486a1.036,1.036,0,0,0-.03-.3.887.887,0,0,0,.273.061A1.83,1.83,0,0,1,2237.663,766.66Z" transform="translate(-2169.615 -728.67)" fill="#fe6a00"/>
  <path id="Path_47961" data-name="Path 47961" d="M2045.809,871.572a1.079,1.079,0,0,1-.3-.061.837.837,0,0,1-.455-1.093c7.955-19.4,12.145-36.01,15.212-48.155,2.642-10.475,4.372-17.4,7.044-19.948a216.784,216.784,0,0,0,18.065-19.037c3.583-4.251,4.8-5.678,8.259-5.678,2.854,0,4.281,2.034,5.951,4.372,2.186,3.067,4.888,6.892,11.993,8.744a.829.829,0,0,1,.546.455.924.924,0,0,1,0,.7c-1.062,2.247-2.641,4.676-7.773,4.676a13.5,13.5,0,0,1-9.534-3.31,16.822,16.822,0,0,0-3.765-2.307.837.837,0,0,1,.638-1.549,18.836,18.836,0,0,1,4.129,2.52,11.9,11.9,0,0,0,8.532,2.976c3.492,0,4.888-1.245,5.8-2.824-6.984-2.1-9.838-6.133-11.933-9.109-1.7-2.4-2.7-3.674-4.585-3.674-2.672,0-3.4.88-6.983,5.071a223.2,223.2,0,0,1-18.187,19.189c-2.308,2.186-4.1,9.291-6.589,19.128-3.066,12.175-7.256,28.875-15.272,48.368A.917.917,0,0,1,2045.809,871.572Z" transform="translate(-2044.984 -747.201)" fill="#003"/>
  <path id="Path_47962" data-name="Path 47962" d="M2175.786,834.784a.78.78,0,0,1-.547-.213.854.854,0,0,1-.091-1.184l.334-.395a51.548,51.548,0,0,0,7.1-9.534.835.835,0,1,1,1.488.759,51.336,51.336,0,0,1-7.317,9.868l-.334.395A.967.967,0,0,1,2175.786,834.784Z" transform="translate(-2135.49 -778.819)" fill="#003"/>
  <path id="Path_47963" data-name="Path 47963" d="M2097.3,1036.519h-.152a.857.857,0,0,1-.7-.972l.364-2.277c1.063-6.376,2.156-12.965,3.886-19.341-1.549-.152-3.067-.334-4.585-.486-8.046-.85-16.335-1.731-24.594-1.974a.835.835,0,0,1,.03-1.67c8.289.243,16.639,1.123,24.715,1.974,1.852.182,3.7.395,5.587.577a.86.86,0,0,1,.607.364.82.82,0,0,1,.122.7,179.365,179.365,0,0,0-4.129,20.13q-.182,1.139-.365,2.277A.769.769,0,0,1,2097.3,1036.519Z" transform="translate(-2062.891 -908.898)" fill="#003"/>
  <path id="Path_47964" data-name="Path 47964" d="M2157.377,939.063a1.332,1.332,0,0,1-.3-.061.833.833,0,0,1-.486-1.063,120.648,120.648,0,0,0,3.856-13.572l.3-1.245a.847.847,0,0,1,.668-.638c15.515-2.642,17.641-6.558,22.256-15.151.7-1.275,1.427-2.611,2.247-4.1a.844.844,0,1,1,1.457.85c-.82,1.457-1.548,2.763-2.216,4.038-4.554,8.441-7.074,13.147-22.924,15.91l-.182.729a115.666,115.666,0,0,1-3.917,13.785A.8.8,0,0,1,2157.377,939.063Z" transform="translate(-2122.668 -834.397)" fill="#003"/>
  <path id="Path_47965" data-name="Path 47965" d="M2225.21,748.018h-.121l-31.273-.972a3.686,3.686,0,0,1-2.52-1.154,3.542,3.542,0,0,1-.911-2.611c.212-3.917.546-7.894.85-11.75.152-2.034.334-4.069.486-6.1a.8.8,0,0,1,.88-.759.819.819,0,0,1,.759.88c-.152,2.034-.3,4.069-.486,6.1-.3,3.856-.638,7.8-.85,11.72a1.867,1.867,0,0,0,1.822,1.974l31.273.972a2.081,2.081,0,0,0,2.156-2.034l2.064-61.94a1.855,1.855,0,0,0-1.761-1.913l-30.3-1.336a2.165,2.165,0,0,0-2.247,2.065c-.334,7.742-.881,15.637-1.4,23.258-.091,1.549-.213,3.127-.3,4.676a.836.836,0,1,1-1.67-.091c.091-1.548.213-3.127.3-4.676.516-7.621,1.032-15.485,1.4-23.2a3.807,3.807,0,0,1,3.978-3.643l30.3,1.336a3.561,3.561,0,0,1,3.37,3.643l-2.065,61.94A3.688,3.688,0,0,1,2225.21,748.018Z" transform="translate(-2146.232 -677.479)" fill="#003"/>
  <path id="Path_47966" data-name="Path 47966" d="M2233.942,773.168a.842.842,0,0,1-.82-.668.829.829,0,0,1,.668-.972c6.315-1.275,7.621-5.951,7.621-9.655,0-9.018-7.014-9.5-8.441-9.5-9.5,0-10.9,6.164-10.9,9.807a11.959,11.959,0,0,0,.152,1.822.834.834,0,1,1-1.639.3,12.281,12.281,0,0,1-.182-2.125,11.117,11.117,0,0,1,3.036-8.168c2.186-2.186,5.4-3.31,9.564-3.31a9.349,9.349,0,0,1,7.925,3.765,12.793,12.793,0,0,1,2.186,7.409c0,6.133-3.188,10.141-8.987,11.295Z" transform="translate(-2167.139 -728.469)" fill="#003"/>
  <path id="Path_47967" data-name="Path 47967" d="M2246.949,784.29c-.941,0-1.852-1.032-4.524-4.1a.84.84,0,0,1,1.275-1.093,38.725,38.725,0,0,0,3.128,3.4c.061-.121.121-.273.182-.395a9.484,9.484,0,0,1,4.8-5.01.835.835,0,0,1,.759,1.488,7.784,7.784,0,0,0-4.008,4.22c-.334.729-.638,1.4-1.4,1.488Z" transform="translate(-2182.333 -746.786)" fill="#003"/>
  <path id="Path_47968" data-name="Path 47968" d="M2312.416,882.506a.836.836,0,0,1-.031-1.67c.334-.03.729-.03,1.124-.061,3.613-.152,6.619-.516,6.74-3.127,0-1.123-4.8-1.609-7.1-1.852l-.425-.03a.838.838,0,1,1,.152-1.67l.425.03c4.22.425,8.593.88,8.593,3.522v.061c-.212,4.372-5.283,4.615-8.35,4.737-.395.03-.759.03-1.062.061C2312.476,882.476,2312.446,882.506,2312.416,882.506Z" transform="translate(-2230.643 -814.396)" fill="#003"/>
  <path id="Path_47969" data-name="Path 47969" d="M2314.34,824.691a.835.835,0,0,1-.759-.455.818.818,0,0,1,.364-1.123c4.342-2.216,9.443-5.89,10.657-9.5a48.663,48.663,0,0,0-9.686,3.1.837.837,0,0,1-.638-1.548,46.932,46.932,0,0,1,11.265-3.37.961.961,0,0,1,.7.213.833.833,0,0,1,.243.7c-.577,5.8-9.169,10.6-11.781,11.932A1.311,1.311,0,0,1,2314.34,824.691Z" transform="translate(-2231.962 -771.003)" fill="#003"/>
  <path id="Path_47970" data-name="Path 47970" d="M2315.96,786.382a.818.818,0,0,1-.729-.425.847.847,0,0,1,.3-1.154l.79-.456c2.459-1.427,7.56-4.342,7.773-5.5a6.965,6.965,0,0,0-1.791-.152,19.421,19.421,0,0,0-5.86,1.214.845.845,0,1,1-.516-1.609,21.116,21.116,0,0,1,6.376-1.306c1.761,0,2.611.182,3.1.638a1.4,1.4,0,0,1,.395,1.063c0,1.974-3.249,3.977-8.593,7.044l-.79.455A.681.681,0,0,1,2315.96,786.382Z" transform="translate(-2233.095 -746.783)" fill="#003"/>
  <path id="Path_47971" data-name="Path 47971" d="M2317.079,748.248a.9.9,0,0,1-.668-.334.862.862,0,0,1,.152-1.184l.243-.182c2.733-2.125,6.467-5.04,6.467-6.8,0-.577-.152-.577-.3-.577a11.679,11.679,0,0,0-5.253,1.518.835.835,0,0,1-.759-1.488,13.17,13.17,0,0,1,6.012-1.7,1.96,1.96,0,0,1,1.973,2.247c0,2.55-3.613,5.374-7.1,8.107l-.243.182A.711.711,0,0,1,2317.079,748.248Z" transform="translate(-2233.881 -719.276)" fill="#003"/>
</svg>
