
<svg id="Management" xmlns="http://www.w3.org/2000/svg" width="199.657" height="140.382" viewBox="0 0 199.657 140.382">
  <path id="Path_48246" data-name="Path 48246" d="M809.423,868.457c.237.095.473.166.71.26.852-1.822,1.727-3.644,2.674-5.419a.72.72,0,1,0-1.278-.663c-1.065,2.035-2.059,4.094-3.029,6.176A.735.735,0,0,1,809.423,868.457Z" transform="translate(-800.149 -765.149)" fill="#003"/>
  <path id="Path_48251" data-name="Path 48251" d="M781.56,890.2c-1.42,3.052-2.721,6.128-4.023,9.157-1.443,3.36-5.206,11.594-4.141,11.618h.071a.749.749,0,0,0,.663-.4c1.656-3.526,3.218-7.146,4.732-10.648,1.207-2.839,2.461-5.726,3.762-8.566-.213-.071-.426-.166-.639-.237A.718.718,0,0,1,781.56,890.2Z" transform="translate(-773.209 -786.49)" fill="#003"/>
  <path id="Path_48219" data-name="Path 48219" d="M836.777,646.855c-1.609,6.341-4.07,15.924-11.784,33.647a.677.677,0,0,0,.379.923.629.629,0,0,0,.284.071.728.728,0,0,0,.663-.426c7.761-17.794,10.222-27.471,11.855-33.86,2.3-9.039,2.65-10.388,14.244-18.007,0-.591,0-1.159.024-1.7C839.569,635.9,839.143,637.58,836.777,646.855Z" transform="translate(-812.69 -585.95)" fill="#003"/>
  <path id="Path_48230" data-name="Path 48230" d="M825.507,895.321a.655.655,0,0,1-.308-.071.681.681,0,0,1-.308-.946,2.2,2.2,0,0,0,.118-.237c-2.3-.97-4.614-1.917-6.933-2.768-1.325-.473-2.7-.9-4-1.3-1.325-.4-2.674-.828-4-1.3-.237-.095-.473-.166-.71-.26a.7.7,0,0,0-.9.355.023.023,0,0,1-.024.024.717.717,0,0,0,.4.923c.213.071.426.166.639.237,1.372.521,2.792.946,4.188,1.372,1.3.4,2.65.8,3.928,1.278,2.792,1.017,5.632,2.224,8.376,3.384.757.331,1.514.639,2.3.97a237.984,237.984,0,0,0-12.825,27.874.706.706,0,0,0,.071.615c.118.189,1.547-1.038,1.585-.994a248.012,248.012,0,0,1,12.777-27.519.679.679,0,0,0,.047-.568.786.786,0,0,0-.4-.426c-.994-.426-1.988-.828-2.981-1.254-.071-.024-.142-.071-.213-.095-.047.095-.095.213-.142.308A.855.855,0,0,1,825.507,895.321Z" transform="translate(-800.073 -785.104)" fill="#003"/>
  <path id="Path_48212" data-name="Path 48212" d="M898.262,699.514a.706.706,0,0,1,.45.095,11.24,11.24,0,0,0,.237-2.224,20.428,20.428,0,0,0-.4-3.62,20.229,20.229,0,0,1-.355-3.289c0-1.609.852-3.62,1.775-5.75,1.159-2.674,2.461-5.726,2.461-8.9,0-2.508-1.041-3.029-2.627-3.029a2.686,2.686,0,0,0-1.585.615c0,.521,0,1.041.024,1.562a.71.71,0,1,1-1.42,0v-.284c-.757.8-1.585,1.846-2.532,3.029a3,3,0,0,1-.26.308v1.988a.71.71,0,1,1-1.42,0v-.26a39.64,39.64,0,0,1-5.395,5.537.706.706,0,1,0,.9,1.088,50.114,50.114,0,0,0,7.264-7.808c1.751-2.177,3.549-4.425,4.425-4.425,1.207,0,1.207.379,1.207,1.609,0,2.887-1.23,5.773-2.343,8.353-.97,2.272-1.893,4.4-1.893,6.318a22.012,22.012,0,0,0,.379,3.526,20.571,20.571,0,0,1,.379,3.384c0,4.851-3.5,8.282-6.909,11.594-.923.9-1.869,1.822-2.721,2.745a32.408,32.408,0,0,0-4.378,7.193,59.309,59.309,0,0,1-3.881,6.909,16.487,16.487,0,0,0-1.372,2.626c-.142.355-.308.686-.473,1.018a2.2,2.2,0,0,0-.118.237.721.721,0,0,0,.308.947.729.729,0,0,0,.308.071.7.7,0,0,0,.639-.4c.047-.095.095-.213.142-.308.166-.331.308-.663.45-.994a15.568,15.568,0,0,1,1.254-2.414,61.057,61.057,0,0,0,3.975-7.075,31.532,31.532,0,0,1,4.164-6.886c.828-.9,1.727-1.775,2.674-2.7.615-.591,1.207-1.183,1.8-1.775v-.237c0-.355,0-.734-.024-1.088a.68.68,0,0,1,.663-.734.714.714,0,0,1,.734.592,18.278,18.278,0,0,0,3.052-4.472c-.047-.615-.095-1.254-.189-1.94A.735.735,0,0,1,898.262,699.514Z" transform="translate(-852.904 -620.531)" fill="#003"/>
  <path id="Path_48252" data-name="Path 48252" d="M929.139,672.47c-2.532,1.751-2.839,4.685-2.839,6.744a.71.71,0,0,0,1.42,0c0-2.626.639-4.354,2.011-5.419v-1.42A.607.607,0,0,0,929.139,672.47Z" transform="translate(-890.076 -620.176)" fill="#003"/>
  <path id="Path_48247" data-name="Path 48247" d="M941.61,547.159a.712.712,0,0,0,.71-.71v-2.887c0-28.11.331-39.066,3.9-42.591,1.917-1.869,5.016-1.822,9.678-1.7,1.159.024,2.366.047,3.715.047,2.6,0,5.253.047,7.808.095,2.579.047,5.253.118,7.879.118a.71.71,0,0,0,0-1.42c-2.627,0-5.277-.047-7.856-.118-2.556-.047-5.206-.118-7.832-.118-1.325,0-2.508-.024-3.668-.047-.71-.024-1.4-.024-2.035-.024a1.789,1.789,0,0,0,.024.355.68.68,0,0,1-.663.733h-.047a.7.7,0,0,1-.71-.663c0-.142-.024-.284-.024-.426-3.171.047-5.49.426-7.24,2.153-3.194,3.147-4.07,10.577-4.283,28.536,0,.568-.024,1.136-.024,1.7-.024,2.745-.047,5.7-.047,8.921v7.312A.717.717,0,0,0,941.61,547.159Z" transform="translate(-901.222 -486.939)" fill="#003"/>
  <path id="Path_48205" data-name="Path 48205" d="M945.058,813.7a.692.692,0,0,0-.663.734c.024.355.024.71.024,1.089v1.514c0,3.668.331,6.389,4.614,7.619,3.739,1.065,10.766,1.207,23.52,1.443,3.147.071,6.625.118,10.53.213a.71.71,0,0,0,.047-1.42c-3.9-.095-7.383-.166-10.529-.213-26-.5-26.738-.71-26.738-7.643v-1.538c0-.4,0-.781-.024-1.159a.087.087,0,0,0-.024-.071A.761.761,0,0,0,945.058,813.7Z" transform="translate(-903.889 -728.086)" fill="#003"/>
  <path id="Path_48241" data-name="Path 48241" d="M1183.944,522.166a.713.713,0,0,1,.946-.308c.071.047.166.095.237.142l.308-12.99a7.773,7.773,0,0,0-7.548-7.927l-2.887-.071v.047a.71.71,0,1,1-1.42,0v-.095l-6.957-.189a.689.689,0,0,1-.663.473.71.71,0,0,1-.686-.521l-58.942-1.633a.712.712,0,0,0-.734.686.729.729,0,0,0,.686.734l71.553,1.988a6.334,6.334,0,0,1,6.152,6.483l-.97,41.834c.118.237.213.473.331.686.284.592.639,1.349,1.018,2.059l.237-9.962a6.894,6.894,0,0,0-1.136-1.3.689.689,0,0,1-.071-.994.71.71,0,0,1,.994-.071c.095.071.166.166.26.237l.426-17.723a5.1,5.1,0,0,0-.852-.592A.761.761,0,0,1,1183.944,522.166Z" transform="translate(-1026.95 -487.927)" fill="#003"/>
  <path id="Path_48206" data-name="Path 48206" d="M1196.318,815.5l-.118,4.685a7.481,7.481,0,0,1-7.453,7.288h-.142l-47.111-.9-17.06-.331a.71.71,0,0,0-.047,1.42l16.35.308,1.42.024,46.425.875h.166a8.9,8.9,0,0,0,8.873-8.66l.095-3.573c-.26-.237-.521-.45-.757-.639A2.929,2.929,0,0,1,1196.318,815.5Z" transform="translate(-1040.768 -729.465)" fill="#003"/>
  <path id="Path_48291" data-name="Path 48291" d="M1089.7,551.29c0,.308,0,.615.024.923a.71.71,0,0,0,1.42-.047c0-.284-.024-.592-.024-.9,0-.734.024-1.467.047-2.224a2.576,2.576,0,0,1-.426-.024.679.679,0,0,1-.639-.757.694.694,0,0,1,.757-.639h.355c.024-.8.071-1.609.071-2.414,0-.308,0-.615-.024-.923a.712.712,0,0,0-.734-.686.7.7,0,0,0-.686.734c0,.284.024.592.024.9,0,.994-.047,2.011-.095,3.005S1089.7,550.273,1089.7,551.29Z" transform="translate(-1014.813 -521.902)" fill="#003"/>
  <path id="Path_48292" data-name="Path 48292" d="M1106.6,549.127a.7.7,0,0,1-.686.544h-.047c-.047,1.112-.071,2.272-.071,3.384a.71.71,0,0,0,1.42,0c0-1.325.047-2.674.095-4s.095-2.7.095-4.046a.71.71,0,0,0-1.42,0c0,1.065-.024,2.153-.071,3.218.047,0,.118.024.166.024A.722.722,0,0,1,1106.6,549.127Z" transform="translate(-1027.103 -522.436)" fill="#003"/>
  <path id="Path_48297" data-name="Path 48297" d="M1091.3,561.263a.7.7,0,0,0,.639.757c.142.024.284,0,.426.024.26,0,.544,0,.8-.024.213,0,.449-.024.662-.024a2.848,2.848,0,0,1,.828.095c.047,0,.095.024.142.024h.047a.708.708,0,0,0,.166-1.4.4.4,0,0,0-.166-.024,4.51,4.51,0,0,0-1.017-.095c-.237,0-.5.024-.734.024s-.449.024-.686.024h-.355A.673.673,0,0,0,1091.3,561.263Z" transform="translate(-1016.029 -534.879)" fill="#003"/>
  <path id="Path_48287" data-name="Path 48287" d="M1120.957,551.4c0-2.13-1.443-4.4-3.573-4.4a1.486,1.486,0,0,0-.947.331c-1.491,1.23-1.491,3.218-1.514,4.8,0,.284,0,.568-.024.852v.071a3.192,3.192,0,0,0,2.816,2.958C1119.041,555.991,1120.957,554.075,1120.957,551.4Zm-4.614,1.609c0-.284,0-.592.024-.9,0-1.42.024-2.91.994-3.715h.047c1.23,0,2.153,1.585,2.153,2.981a3.416,3.416,0,0,1-1.8,3.194C1116.959,554.572,1116.343,553.483,1116.343,553.01Z" transform="translate(-1034.049 -524.498)" fill="#003"/>
  <path id="Path_48293" data-name="Path 48293" d="M1142.41,550.9a.708.708,0,0,1,.047-.994,7.438,7.438,0,0,1,.97-.71c0-.095-.024-.166-.024-.26a.733.733,0,0,0-.781-.639.716.716,0,0,0-.639.781c.095,1.018.118,2.059.118,2.934V553a28.217,28.217,0,0,0,.118,3.076.735.735,0,0,0,.71.639H1143a.716.716,0,0,0,.639-.781c-.095-1.017-.118-2.059-.118-2.934v-2.153c-.024.024-.071.047-.095.095A.694.694,0,0,1,1142.41,550.9Z" transform="translate(-1054.722 -525.486)" fill="#003"/>
  <path id="Path_48294" data-name="Path 48294" d="M1146.646,552.6a.681.681,0,0,1-.308-.946,2.266,2.266,0,0,1,.615-.734,1.675,1.675,0,0,0-1.3-.615,3.011,3.011,0,0,0-1.42.426,4.674,4.674,0,0,0-.97.71.7.7,0,1,0,.947,1.041c.024-.024.071-.047.095-.095a2.715,2.715,0,0,1,1.325-.686c.379,0,.733.97.733,2.035a12.2,12.2,0,0,1-.118,1.562,13.331,13.331,0,0,0-.118,1.68v.284a.723.723,0,0,0,.71.686h.024a.728.728,0,0,0,.686-.734v-.237a11.808,11.808,0,0,1,.118-1.538,13.818,13.818,0,0,0,.118-1.727,6.277,6.277,0,0,0-.189-1.491A.66.66,0,0,1,1146.646,552.6Z" transform="translate(-1055.526 -527.017)" fill="#003"/>
  <path id="Path_48288" data-name="Path 48288" d="M1159.45,558.188a.71.71,0,1,0,1.42,0c0-.5,0-.994.024-1.467,0-.5.024-.97.024-1.467,0-2.343,0-4.354-2.035-4.354a2.561,2.561,0,0,0-1.491.5,2.045,2.045,0,0,0-.615.733.7.7,0,0,0,1.254.639.967.967,0,0,1,.828-.426c.5,0,.615.355.615,2.934,0,.473,0,.946-.024,1.443C1159.474,557.17,1159.45,557.667,1159.45,558.188Z" transform="translate(-1065.964 -527.475)" fill="#003"/>
  <path id="Path_48289" data-name="Path 48289" d="M1183.8,550.2h.592a5.918,5.918,0,0,1,.994.071.706.706,0,1,0,.213-1.4,9.33,9.33,0,0,0-1.23-.071h-1.207c-1.065,0-1.349,1.443-1.42,1.917a17.273,17.273,0,0,0-.237,2.981c0,4.164.71,4.164,1.159,4.164.284,0,.568,0,.852-.024.26,0,.521-.024.781-.024a4.251,4.251,0,0,1,1.017.095c.047,0,.095.024.142.024a.707.707,0,0,0,.686-.568.74.74,0,0,0-.544-.852,5.749,5.749,0,0,0-1.325-.118c-.284,0-.568,0-.852.024a1.565,1.565,0,0,0-.331.024,17.394,17.394,0,0,1-.189-2.3h-.615a.71.71,0,0,1,0-1.42h.639a7.894,7.894,0,0,1,.4-2.508C1183.511,550.22,1183.653,550.2,1183.8,550.2Z" transform="translate(-1084.891 -525.872)" fill="#003"/>
  <path id="Path_48296" data-name="Path 48296" d="M1182,566.01a.7.7,0,0,0,.71.71h.615c.284,0,.568.024.852.024.5.024.994.047,1.538.047a.71.71,0,0,0,0-1.42c-.5,0-.994-.024-1.467-.047-.308-.024-.592-.024-.9-.024h-.639A.712.712,0,0,0,1182,566.01Z" transform="translate(-1085.272 -538.466)" fill="#003"/>
  <path id="Path_48290" data-name="Path 48290" d="M1220.61,550.92a4.593,4.593,0,0,1,.568.047.716.716,0,0,0,.189-1.42c-.26-.024-.5-.047-.757-.047-1.42,0-3.81.639-3.81,4.874,0,3.384,1.727,4.59,3.194,4.59a3.985,3.985,0,0,0,2.461-.852.7.7,0,1,0-.994-.994,2.7,2.7,0,0,1-1.467.45c-.852,0-1.775-.828-1.775-3.171C1218.22,550.92,1219.947,550.92,1220.61,550.92Z" transform="translate(-1111.838 -526.406)" fill="#003"/>
  <path id="Path_48282" data-name="Path 48282" d="M1243.3,562.094c2.437,0,3.005-3.573,3.005-4.8a5.563,5.563,0,0,0-.237-1.633,6.137,6.137,0,0,0-1.609-2.579,1.339,1.339,0,0,0-.994-.379c-1.8,0-2.863,1.727-2.863,4.614C1240.6,560.343,1241.594,562.094,1243.3,562.094Zm.166-7.974a4.572,4.572,0,0,1,1.23,1.94,4.277,4.277,0,0,1,.189,1.207c0,1.183-.544,3.384-1.585,3.384-1.23,0-1.278-2.792-1.278-3.36C1242.02,556.793,1242.091,554.12,1243.463,554.12Z" transform="translate(-1130.007 -528.848)" fill="#003"/>
  <path id="Path_48286" data-name="Path 48286" d="M1267.129,561.061a.7.7,0,0,0,.71-.663,44.948,44.948,0,0,1,.45-4.685c.189.592.379,1.3.5,1.8.639,2.437.946,3.549,1.869,3.431.828-.095,1.23-.5,1.467-8.613a.729.729,0,0,0-.686-.734.712.712,0,0,0-.734.686c-.071,2.91-.189,4.685-.308,5.8-.095-.331-.166-.639-.26-.923-.662-2.532-1.041-3.928-2.059-3.81-.781.071-1.3.592-1.68,6.957a.715.715,0,0,0,.662.757Z" transform="translate(-1149.698 -528.004)" fill="#003"/>
  <path id="Path_48283" data-name="Path 48283" d="M1302.41,563.692a.7.7,0,0,0,.71-.71V554.7h-.4c-.355,0-.71,0-1.017.024v8.258A.712.712,0,0,0,1302.41,563.692Z" transform="translate(-1176.649 -530.375)" fill="#003"/>
  <path id="Path_48298" data-name="Path 48298" d="M1295.985,550.12c.734,0,1.443.047,2.106.071a.7.7,0,0,0,.734-.686.684.684,0,0,0-.686-.733c-.781-.047-1.68-.071-2.556-.071a17.528,17.528,0,0,0-2.626.166.7.7,0,0,0-.591.8.714.714,0,0,0,.71.615h.095a12.325,12.325,0,0,1,1.4-.118c.331-.024.662-.024,1.018-.024A2.286,2.286,0,0,1,1295.985,550.12Z" transform="translate(-1169.515 -525.794)" fill="#003"/>
  <path id="Path_48284" data-name="Path 48284" d="M1324.814,553.92c0-2.343-2.816-3.62-3.739-3.62-.781,0-.875.426-.875,3.833,0,1.893.118,3.833.213,5.537a.711.711,0,1,0,1.42-.095c-.047-.663-.071-1.349-.118-2.059a24.017,24.017,0,0,0,1.8,2.65.706.706,0,0,0,.568.284.763.763,0,0,0,.426-.142.715.715,0,0,0,.142-.994,18.924,18.924,0,0,1-1.988-3.076.142.142,0,0,0,.095-.024A2.058,2.058,0,0,0,1324.814,553.92Zm-2.271.923a2.433,2.433,0,0,0-.923.284v-.994c0-.568.024-1.562.047-2.224.71.331,1.727,1.041,1.727,2.011C1323.394,554.7,1323.158,554.748,1322.542,554.843Z" transform="translate(-1190.771 -527.017)" fill="#003"/>
  <path id="Path_48281" data-name="Path 48281" d="M1346.132,562.235a6.33,6.33,0,0,0-.544-2.6,2.918,2.918,0,0,0-.97-1.254,2.346,2.346,0,0,0-1.23-.379c-2.153,0-2.887,3.1-2.887,4.5,0,3.336,1.727,4.4,2.579,4.4C1343.884,566.921,1346.132,565.477,1346.132,562.235Zm-4.235.284c0-1.207.639-3.076,1.467-3.076a.854.854,0,0,1,.473.142,1.648,1.648,0,0,1,.449.639,5.1,5.1,0,0,1,.426,2.011,3.363,3.363,0,0,1-1.68,3.265C1342.748,565.406,1341.9,564.7,1341.9,562.519Z" transform="translate(-1206.269 -532.895)" fill="#003"/>
  <path id="Path_48279" data-name="Path 48279" d="M1372.87,564.445a.7.7,0,0,0-.71-.71c-.26,0-.521-.024-.8-.047s-.568-.047-.875-.047a11,11,0,0,1-.047-1.183v-1.349c0-.5-.047-1.041-.095-1.609-.047-.662-.118-1.42-.118-2.3,0-.284,0-.568.024-.852a.715.715,0,0,0-.662-.757.73.73,0,0,0-.757.663c-.024.308-.024.639-.024.946,0,.923.071,1.727.118,2.414.047.544.095,1.041.095,1.467v1.325c0,1.443.071,2.011.426,2.366a1.082,1.082,0,0,0,.828.26,7.01,7.01,0,0,1,.947.047c.308.024.615.047.923.047A.671.671,0,0,0,1372.87,564.445Z" transform="translate(-1227.872 -531.058)" fill="#003"/>
  <path id="Path_48253" data-name="Path 48253" d="M959.181,554.462a.712.712,0,0,0,.71-.71c0-.521-.024-1.041-.024-1.562,0-1.088-.024-2.153-.024-3.242,0-6.7.284-21.556,1.349-30.216a6.219,6.219,0,0,0,.9-1.585c.5-1.112.734-1.68,6.365-1.68h.024c1.23.071,7.856.45,16.114.45,3.242,0,6.1-.024,8.211-.047,1.159,0,2.082-.024,2.65-.024,3.1,0,14.386.5,26.336,1.017,15,.663,31.991,1.4,37.93,1.4,2.082,0,4.117-.047,4.117-.047,1.893,0,3.052.355,3.573,1.065a4.863,4.863,0,0,1,.45,2.674v.142a28.559,28.559,0,0,1-.213,3.194c-.095,1.065-.213,2.153-.213,3.242a.71.71,0,1,0,1.42,0c0-1.017.095-2.035.189-3.123s.213-2.2.213-3.336v-.142a5.9,5.9,0,0,0-.71-3.5c-.8-1.136-2.319-1.68-4.732-1.68-.024,0-2.035.047-4.094.047-5.892,0-22.881-.757-37.859-1.4-12.47-.544-23.26-1.017-26.407-1.017-.568,0-1.491,0-2.674.024-2.106.024-4.969.047-8.211.047-8.234,0-14.789-.355-16.019-.45h-.095c-6.01,0-6.886.686-7.69,2.532a4.905,4.905,0,0,1-.828,1.4.7.7,0,0,0-.166.355c-1.088,8.731-1.372,23.827-1.372,30.595,0,1.514,0,3.029.024,4.543v.284A.778.778,0,0,0,959.181,554.462Z" transform="translate(-914.58 -499.305)" fill="#003"/>
  <path id="Path_48183" data-name="Path 48183" d="M1468.2,886.415a.707.707,0,0,0-.473.852c.8,3.265,1.538,6.436,2.3,9.8.568,2.532,1.159,5.135,1.8,7.785.4,1.68.852,3.336,1.278,4.945.45,1.7,2.13,6.218,2.272,6.052s.709-.066.662-.279c-.45-2.059-1.017-4.141-1.562-6.152-.426-1.609-.875-3.242-1.278-4.922-.639-2.65-1.23-5.253-1.8-7.785-.71-3.147-1.4-6.128-2.153-9.157,4.969-1.538,10.222-3.407,16-5.7-.142-.45-.284-.9-.45-1.349C1478.8,882.89,1473.335,884.83,1468.2,886.415Z" transform="translate(-1303.374 -779.084)" fill="#003"/>
  <path id="Path_48184" data-name="Path 48184" d="M1616.924,985.4a.352.352,0,0,0-.024.166c0-.024.024-.047.024-.071Z" transform="translate(-1417.267 -859.164)" fill="#003"/>
  <path id="Path_48185" data-name="Path 48185" d="M1450.626,615.307c-3.171-6.791-9.2-17.841-13.014-20.136-.071-.047-.166-.095-.237-.142a.7.7,0,1,0-.639,1.254,5.091,5.091,0,0,1,.852.592c4.851,4.07,13.535,22.1,13.747,23.756,1.065,16.137,4.732,27.235,8.968,40.107.189.592.4,1.183.592,1.8.142.45.284.9.45,1.349,2.271,6.957,4.59,14.315,6.7,23.307a.7.7,0,0,0,.663.544c1.017.024-4.5-19.639-7.051-27.448-4.212-12.754-7.832-23.78-8.9-39.752C1452.732,620.11,1450.6,615.307,1450.626,615.307Z" transform="translate(-1279.434 -561.097)" fill="#003"/>
  <path id="Path_48207" data-name="Path 48207" d="M1404.578,694.317c-.71-1.443-1.42-2.863-2.177-4.07a.709.709,0,0,1-.686.615h-.071a.749.749,0,0,1-.639-.781q.071-.745.142-1.491a3.9,3.9,0,0,0-2.816-1.491c-2.532,0-2.532,2.958-2.532,3.928,0,.639,2.6,11.689,4.827,19.024a.707.707,0,0,1,.591-.308.7.7,0,0,1,.71.71V714a13.239,13.239,0,0,0,.875,1.988,6.335,6.335,0,0,0,1.254,1.538c.213.189.426.355.639.521a8.354,8.354,0,0,1,.757.639c1.514,1.443,3.62,4.661,7.856,18.788a.71.71,0,0,0,.686.5.655.655,0,0,0,.213-.024.694.694,0,0,0,.473-.875c-5.087-16.989-7.217-18.646-9.086-20.113a5.377,5.377,0,0,1-1.538-1.68c-1.917-3.218-6.625-23.094-6.815-24.277,0-2.461.71-2.461,1.112-2.461,1.893,0,3.786,3.952,5.324,7.122,1.585,3.289,2.745,5.679,4.33,5.679a1.561,1.561,0,0,0,.331-.024.71.71,0,0,0-.26-1.4h-.047c-.473,0-1.278-1.372-2.035-2.816-.379-.71-.734-1.443-1.017-2.059A3.864,3.864,0,0,1,1404.578,694.317Z" transform="translate(-1248.483 -631.447)" fill="#003"/>
  <path id="Path_48242" data-name="Path 48242" d="M1433.923,676.594a.688.688,0,0,0,.071.994,6.9,6.9,0,0,1,1.136,1.3,12.235,12.235,0,0,1,1.325,2.674,6.326,6.326,0,0,1,.308,2.153c0,.308,0,.615-.024.923,0,.308-.024.639-.024.947a.71.71,0,1,0,1.42,0c0-.308,0-.592.024-.9,0-.308.024-.639.024-.97a7.53,7.53,0,0,0-.4-2.65,11.146,11.146,0,0,0-2.6-4.306c-.095-.071-.166-.166-.26-.237A.689.689,0,0,0,1433.923,676.594Z" transform="translate(-1277.449 -623.236)" fill="#003"/>
  <path id="Path_48210" data-name="Path 48210" d="M1070.886,785.421V783.41a.7.7,0,0,0-.71-.71.707.707,0,0,0-.592.308.733.733,0,0,0-.118.4v2.035c.024,6.46.024,9.678-1.4,11.1-1.372,1.372-4.543,1.349-10.293,1.349h-1.917c-4.212,0-8.495-.189-12.635-.4-4.165-.189-8.471-.4-12.754-.4-2.224,0-3.407.047-4.543.095-.97.047-1.893.071-3.431.071-1.987,0-4-.071-5.939-.118-1.964-.071-3.975-.118-6.01-.118-.8,0-1.23,0-1.656.024-.355,0-.71.024-1.278.024-.663,0-1.3,0-1.94-.024-.639,0-1.3-.024-1.964-.024-.639,0-1.7.024-3.052.047-2.532.047-6.365.142-10.553.142-15.759,0-23.165-.355-25.247-2.461-.994-.994-.97-2.555-.97-4.9a37.762,37.762,0,0,0-.284-5.8.731.731,0,0,0-.355-.521.74.74,0,0,0-.45-.095.721.721,0,0,0-.615.8c.095.686.142,1.325.189,1.94.095,1.349.095,2.555.071,3.644-.024,2.508-.024,4.472,1.372,5.892,2.272,2.3,7.666,2.887,26.265,2.887,4.212,0,8.045-.095,10.577-.142,1.349-.024,2.414-.047,3.029-.047.639,0,1.3,0,1.94.024.639,0,1.3.024,1.964.024.592,0,.923,0,1.3-.024.4,0,.828-.024,1.633-.024,1.988,0,4,.071,5.963.118,1.964.071,3.975.118,5.986.118,1.562,0,2.485-.024,3.478-.071,1.112-.047,2.3-.095,4.5-.095,4.236,0,8.542.189,12.683.4,4.164.189,8.447.4,12.706.4h3.5c5.3,0,8.092-.142,9.725-1.751,1.68-1.68,1.822-4.732,1.8-10.553C1070.886,786.462,1070.886,785.942,1070.886,785.421Z" transform="translate(-917.464 -704.426)" fill="#003"/>
  <path id="Path_48254" data-name="Path 48254" d="M1418.163,616.329h.071a.691.691,0,0,0,.686-.615v-.024a81.234,81.234,0,0,0,.426-8.8c0-2.437-.071-4.922-.142-7.311s-.142-4.874-.142-7.312c0-.686,0-1.349.024-2.035a.71.71,0,1,0-1.42-.047c-.024.686-.024,1.372-.024,2.059,0,2.461.071,4.945.142,7.359.071,2.39.142,4.851.142,7.264,0,2.674-.095,4.993-.284,7.17l-.142,1.491A.762.762,0,0,0,1418.163,616.329Z" transform="translate(-1265.049 -556.937)" fill="#003"/>
  <path id="Path_48214" data-name="Path 48214" d="M997.586,656.753c3.431.284,6.483.426,9.346.426,1.089,0,2.177-.024,3.218-.071a.723.723,0,0,0,.686-.71l.426-45.573a.727.727,0,0,0-.734-.734c-.947.024-1.94.024-3.076.024-1.325,0-2.65-.024-4-.024-1.917-.024-3.81-.047-5.7-.024a.728.728,0,0,0-.71.71L996.9,656A.833.833,0,0,0,997.586,656.753Zm.142-25.413c.237,0,.473-.024.71-.024l.024-6.412-.568-.071a.706.706,0,1,1,.213-1.4c.118.024.237.024.355.047l.024-6.625c-.118-.024-.26-.047-.379-.071a.71.71,0,1,1,.26-1.4c.047,0,.071.024.118.024v-3.881c1.656,0,3.313,0,4.969.024,1.325.024,2.674.024,4,.024.852,0,1.633,0,2.366-.024l-.047,4.5h.071a.71.71,0,1,1,0,1.42h-.095l-.071,6.649a.52.52,0,0,1,.189.024.7.7,0,0,1-.095,1.4h-.118l-.047,5.442h.284a.71.71,0,1,1,0,1.42h-.308l-.047,6.152h.071a.71.71,0,1,1,0,1.42h-.095l-.047,4.756h.047a.711.711,0,0,1-.047,1.42h-.024l.024,3.881h.047a.73.73,0,0,1,.781.639.716.716,0,0,1-.639.781.52.52,0,0,0-.189.024l-.047,4.235a101.042,101.042,0,0,1-11.05-.331l.024-4c-.189-.024-.379-.024-.568-.047a.713.713,0,1,1,.142-1.42c.142.024.284.024.45.047l.024-4.378c-.142-.024-.26-.024-.4-.047a.706.706,0,0,1,.213-1.4c.047,0,.118.024.166.024l.024-4.472c-.189-.024-.4-.024-.592-.047a.713.713,0,0,1,.142-1.42c.166.024.308.024.473.047l.024-5.513c-.213,0-.426.024-.663.024a.729.729,0,0,1-.733-.686A.657.657,0,0,1,997.728,631.34Z" transform="translate(-943.971 -572.635)" fill="#003"/>
  <path id="Path_48237" data-name="Path 48237" d="M1375.023,620.466h-.568a.637.637,0,0,0-.118.355c-.166,3.289-.237,6.815-.237,10.813v1.23h.71a.712.712,0,0,1,.71.71.728.728,0,0,1-.71.71h-.71c.024,3.265.095,6.531.166,9.7.024,1.136.047,2.272.071,3.431h.734a.728.728,0,0,1,.71.71c-.024-1.4-.047-2.792-.071-4.164-.071-4.046-.166-8.211-.166-12.328,0-3.975.071-7.477.237-10.742a.7.7,0,0,0-.26-.592A1.033,1.033,0,0,1,1375.023,620.466Z" transform="translate(-1231.918 -580.453)" fill="#003"/>
  <path id="Path_48213" data-name="Path 48213" d="M1095.333,703.989l66.277,1.018a.692.692,0,0,0,.71-.686c.095-2.532.142-5.229.142-8.234,0-2.721-.047-5.466-.095-8.163a.707.707,0,0,1-.71.686h-.71c.047,2.484.071,4.993.071,7.477,0,2.721-.047,5.182-.118,7.5l-22.077-.331v.686a.71.71,0,1,1-1.42,0v-.734l-21.248-.331v.71a.71.71,0,0,1-1.42,0v-.71l-18.716-.284c.071-4.922.071-9.867.071-14.694h-.71a.71.71,0,0,1,0-1.42h.71v-.047c0-4.377,0-8.85.047-13.345h-.71a.687.687,0,0,1-.686-.686c-.047,4.732-.047,9.441-.047,14.031,0,5.513,0,11.216-.095,16.847A.749.749,0,0,0,1095.333,703.989Z" transform="translate(-1018.553 -620.225)" fill="#003"/>
  <path id="Path_48262" data-name="Path 48262" d="M1095.934,624.69h.71c.024-1.68.047-3.36.071-5.016,0-.473.024-.946.024-1.4.024-1.159.047-2.342.047-3.526s-.024-2.224-.095-3.194a.711.711,0,0,0-1.42.095c.047.946.071,1.94.071,3.1s-.024,2.343-.047,3.478c0,.473-.024.946-.024,1.4-.047,1.893-.071,3.81-.071,5.726A.762.762,0,0,1,1095.934,624.69Z" transform="translate(-1019.012 -573.272)" fill="#003"/>
  <path id="Path_48274" data-name="Path 48274" d="M1184.61,611.882v.71c5.537.095,11.026.237,16.421.379,1.467.047,2.934.071,4.425.118V612.4a.71.71,0,1,1,1.42,0v.734c7.382.166,14.907.331,22.36.4h.568a.747.747,0,0,0,.45-.166.673.673,0,0,0,.26-.544.7.7,0,0,0-.71-.71c-9.607-.071-19.332-.308-28.749-.544-5.655-.142-11.381-.284-17.155-.379A.678.678,0,0,1,1184.61,611.882Z" transform="translate(-1086.723 -573.502)" fill="#003"/>
  <path id="Path_48276" data-name="Path 48276" d="M1125.73,610.489c-5.774-.095-11.571-.189-17.321-.189a.71.71,0,0,0,0,1.42c5.513,0,11.074.071,16.611.166v-.71A.707.707,0,0,1,1125.73,610.489Z" transform="translate(-1028.554 -572.82)" fill="#003"/>
  <path id="Path_48238" data-name="Path 48238" d="M1181.62,689.822l.071-13.3-1.42-.024-.071,13.3Z" transform="translate(-1083.898 -623.355)" fill="#003"/>
  <path id="Path_48215" data-name="Path 48215" d="M1179.895,738.624l-.095,14.765v.71a.71.71,0,0,0,1.42,0v-.71l.095-14.789Z" transform="translate(-1083.593 -670.761)" fill="#003"/>
  <path id="Path_48264" data-name="Path 48264" d="M1182.091,612.52v-.71a.712.712,0,0,0-.71-.71.7.7,0,0,0-.71.71v.71l-.071,12.635,1.42.024Z" transform="translate(-1084.204 -573.43)" fill="#003"/>
  <path id="Path_48239" data-name="Path 48239" d="M1276.667,691.127l-.047-13.2-1.42-.024.047,13.227Z" transform="translate(-1156.42 -624.424)" fill="#003"/>
  <path id="Path_48216" data-name="Path 48216" d="M1275.4,739.8l.047,14.86v.734a.7.7,0,0,0,.71.71.712.712,0,0,0,.71-.71v-.686l-.047-14.883Z" transform="translate(-1156.572 -671.677)" fill="#003"/>
  <path id="Path_48263" data-name="Path 48263" d="M1276.42,613.91a.7.7,0,0,0-.71-.71.712.712,0,0,0-.71.71v.686l.047,12.47,1.42.024-.047-12.47Z" transform="translate(-1156.267 -575.033)" fill="#003"/>
  <path id="Path_48260" data-name="Path 48260" d="M1096.01,670.62h.71l18.74.284,1.42.024,20.988.308,1.42.024,21.958.331h.686a.71.71,0,1,0,0-1.42h-.71l-21.958-.331-1.42-.024-20.964-.308-1.42-.024-18.74-.284h-.71a.692.692,0,0,0-.71.686v.047A.723.723,0,0,0,1096.01,670.62Z" transform="translate(-1019.088 -617.783)" fill="#003"/>
  <path id="Path_48236" data-name="Path 48236" d="M1161.963,732.533h-.734l-22.147-.237-1.42-.024-21.106-.237-1.42-.024-18.717-.213h-.71a.712.712,0,0,0-.71.71.7.7,0,0,0,.71.71h.71l18.717.213,1.42.024,21.106.237,1.42.024,22.171.237h.686a.692.692,0,0,0,.71-.686A.671.671,0,0,0,1161.963,732.533Z" transform="translate(-1018.858 -665.57)" fill="#003"/>
  <path id="Path_48269" data-name="Path 48269" d="M1115.648,625.075a.745.745,0,0,1,.781.426c.639-.5,1.136-.9,1.514-1.207.355-.284.686-.544.9-.71a6.55,6.55,0,0,0,1.3,1.727.714.714,0,0,1,.45-.118.687.687,0,0,1,.639.781c0,.071-.024.142-.024.213.166.118.331.237.521.355a.7.7,0,0,0,.757-1.183,6.082,6.082,0,0,1-2.461-2.508c-.189-.331-.379-.734-.852-.828-.544-.118-.923.189-2.153,1.159-.781.639-1.988,1.585-3.833,2.958a.715.715,0,0,0-.142.994.706.706,0,0,0,.568.284.763.763,0,0,0,.426-.142q.568-.426,1.065-.781a4.648,4.648,0,0,0-.047-.615A.746.746,0,0,1,1115.648,625.075Z" transform="translate(-1032.526 -581.75)" fill="#003"/>
  <path id="Path_48265" data-name="Path 48265" d="M1121.771,637.613c-.024.379-.071.757-.071,1.136,0,.875.071,1.42.449,1.775a1.215,1.215,0,0,0,.947.26h.166c.331,0,.662.024.994.047.355.024.71.047,1.065.047h.071c2.224,0,2.272-.663,2.461-3.171.024-.4.071-.875.118-1.42,0-.071.024-.142.024-.213a.73.73,0,0,0-.639-.781.621.621,0,0,0-.45.118.776.776,0,0,0-.331.521c-.047.639-.094,1.207-.142,1.656a11.134,11.134,0,0,1-.213,1.822,7.4,7.4,0,0,1-.8.024h-.071c-.331,0-.663-.024-.97-.024-.379-.024-.8-.047-1.183-.047,0-.118-.024-.308-.024-.592,0-.331.024-.663.047-1.017.024-.379.071-.757.071-1.136a5.326,5.326,0,0,0-.071-.9.335.335,0,0,0-.047-.142.689.689,0,0,0-.781-.426.741.741,0,0,0-.592.828,4.693,4.693,0,0,1,.047.615v.047C1121.842,636.927,1121.795,637.258,1121.771,637.613Z" transform="translate(-1039.24 -591.779)" fill="#003"/>
  <path id="Path_48266" data-name="Path 48266" d="M1219.089,628.347a9.906,9.906,0,0,0-1.7.166,11.263,11.263,0,0,1-1.514.142h-.544c.213-.379.615-.946,1.017-1.514.355-.521.8-1.159,1.3-1.917a.715.715,0,0,0-1.183-.8c-.5.757-.946,1.4-1.3,1.917-1.278,1.846-1.7,2.461-1.349,3.147.331.615,1.041.615,2.035.615a9.907,9.907,0,0,0,1.7-.166,9.327,9.327,0,0,1,1.372-.142,10.939,10.939,0,0,1-1.988,2.059.708.708,0,0,0-.047.994.671.671,0,0,0,.521.237.641.641,0,0,0,.473-.189c2.153-1.917,2.863-2.981,2.555-3.81C1220.319,628.749,1219.988,628.347,1219.089,628.347Z" transform="translate(-1109.465 -583.365)" fill="#003"/>
  <path id="Path_48267" data-name="Path 48267" d="M1319.527,632.2c-.544-.5-1.065-1.017-1.609-1.491a.7.7,0,0,0-.97.024c-.781.781-1.467,1.656-2.153,2.484-.213.237-.4.5-.615.733a.7.7,0,0,0,.071.97c1.017.946,2.461,2.224,3.431,3.005a.807.807,0,0,0,.45.166.625.625,0,0,0,.45-.166c1.065-.9,1.988-1.822,3.029-2.863a.734.734,0,0,0,.213-.521.76.76,0,0,0-.237-.521C1320.852,633.428,1320.19,632.813,1319.527,632.2Zm-1.443,4.259c-.734-.615-1.633-1.42-2.413-2.13a2.081,2.081,0,0,0,.189-.237c.521-.639,1.065-1.278,1.609-1.893.355.331.734.663,1.088,1.017.473.45.97.923,1.491,1.372C1319.385,635.25,1318.746,635.865,1318.084,636.457Z" transform="translate(-1186.053 -588.257)" fill="#003"/>
  <path id="Path_48248" data-name="Path 48248" d="M1122.852,703.042c-.757,0-1.538-.047-2.3-.095a23.183,23.183,0,0,0-3.833-.047.713.713,0,1,0,.142,1.42,23.5,23.5,0,0,1,3.62.071c.734.047,1.514.095,2.272.118a7.351,7.351,0,0,1,.9-.592C1123.372,703.634,1123.112,703.35,1122.852,703.042Z" transform="translate(-1034.95 -643.461)" fill="#003"/>
  <path id="Path_48243" data-name="Path 48243" d="M1142.718,696.279a8.334,8.334,0,0,1-2.248-2.413.715.715,0,0,0-1.183.8c.331.5.662.923.97,1.3a8.891,8.891,0,0,0,.781.828c-.308.189-.615.379-.9.592a5.159,5.159,0,0,0-1.089,1.065.7.7,0,0,0,.166.994.71.71,0,0,0,.994-.142,6.3,6.3,0,0,1,2.2-1.633l.284-.142a.779.779,0,0,0,.379-.592A.729.729,0,0,0,1142.718,696.279Z" transform="translate(-1052.379 -636.367)" fill="#003"/>
  <path id="Path_48224" data-name="Path 48224" d="M1132.35,767.084c-1.372-.166-2.721-.213-4.023-.26-.189,0-.379-.024-.568-.024-.331.26-.663.521-.994.8-.047.047-.118.095-.166.142l.45.45c.4.024.8.047,1.207.047,1.325.047,2.579.095,3.9.26h.095a.713.713,0,0,0,.095-1.42Z" transform="translate(-1042.98 -692.289)" fill="#003"/>
  <path id="Path_48225" data-name="Path 48225" d="M1121.04,759.844c.355-.26.686-.544.994-.8.473-.379.946-.781,1.42-1.183a.7.7,0,1,0-.947-1.041c-.733.663-1.514,1.278-2.342,1.94-.26.213-.544.426-.8.639a.628.628,0,0,0-.26.521.75.75,0,0,0,.213.544l.047.047a28.875,28.875,0,0,1,2.484,2.626.745.745,0,0,0,.544.26.664.664,0,0,0,.449-.166.688.688,0,0,0,.095-.994c-.521-.639-1.065-1.207-1.609-1.775-.142-.166-.308-.308-.45-.45A.283.283,0,0,1,1121.04,759.844Z" transform="translate(-1037.256 -684.528)" fill="#003"/>
  <path id="Path_48244" data-name="Path 48244" d="M1218.652,696.958a.667.667,0,0,0,.355.095.705.705,0,0,0,.568-.284c.237-.331.5-.639.757-.946a8.4,8.4,0,0,0,2.2-3.975,1.249,1.249,0,0,0,.024-.308,2.859,2.859,0,0,0-2.839-2.839c-1.467,0-4.117,1.775-4.117,3.526C1215.624,693.385,1217.422,696.224,1218.652,696.958Zm1.088-6.838a1.486,1.486,0,0,1,1.42,1.42v.071a7.268,7.268,0,0,1-1.893,3.289l-.355.426a8.309,8.309,0,0,1-1.869-3.123C1217.043,691.468,1218.771,690.12,1219.741,690.12Z" transform="translate(-1110.922 -632.668)" fill="#003"/>
  <path id="Path_48226" data-name="Path 48226" d="M1220.177,759.275a.627.627,0,0,0-.521-.189c-.8.024-1.609.024-2.39,0h-1.159c-.757,0-1.372.024-1.94.047a.761.761,0,0,0-.5.237.693.693,0,0,0-.166.521c.024.4.047.828.047,1.278,0,.9-.071,1.8-.118,2.721l-.047.71a.627.627,0,0,0,.189.521.717.717,0,0,0,.521.237h1.491c1.3,0,2.65,0,3.952.095h.047a.7.7,0,0,0,.473-.189.717.717,0,0,0,.237-.521c0-.757.024-1.514.047-2.272.024-.9.047-1.822.047-2.721A.631.631,0,0,0,1220.177,759.275Zm-1.254,3.194c-.024.521-.024,1.018-.047,1.538-1.112-.047-2.224-.047-3.313-.071h-.734c.071-.9.118-1.846.118-2.792v-.663c.662-.024,1.491-.024,2.3,0,.568,0,1.136.024,1.7,0C1218.946,761.168,1218.922,761.807,1218.922,762.469Z" transform="translate(-1109.229 -686.396)" fill="#003"/>
  <path id="Path_48245" data-name="Path 48245" d="M1314.989,701.383A3.3,3.3,0,0,0,1318.4,698a3.109,3.109,0,0,0-2.981-3.1,1.789,1.789,0,0,0-.355.024h-.213a3.326,3.326,0,0,0-3.147,3.218A3.6,3.6,0,0,0,1314.989,701.383Zm-.142-5.04a1.458,1.458,0,0,0,.308-.024c.095,0,.166-.024.26-.024a1.682,1.682,0,0,1,1.562,1.68,1.877,1.877,0,0,1-1.988,1.964c-.52,0-1.845-.8-1.845-1.8A1.861,1.861,0,0,1,1314.847,696.343Z" transform="translate(-1184.283 -637.401)" fill="#003"/>
  <path id="Path_48232" data-name="Path 48232" d="M1315.176,758.323a21.25,21.25,0,0,1,2.981.047q1.029.071,2.059.071a.71.71,0,0,0,0-1.42c-.639,0-1.3-.047-1.988-.071a28.753,28.753,0,0,0-3.171-.047.712.712,0,0,0-.662.757A.749.749,0,0,0,1315.176,758.323Z" transform="translate(-1186.34 -684.71)" fill="#003"/>
  <path id="Path_48227" data-name="Path 48227" d="M1319.276,770.5c-1.514.118-3.052.118-4.567.118a.71.71,0,0,0,0,1.42c1.514,0,3.1,0,4.661-.118a.711.711,0,0,0-.095-1.42Z" transform="translate(-1186.039 -695.109)" fill="#003"/>
  <path id="Path_48221" data-name="Path 48221" d="M1319.833,782a26.146,26.146,0,0,0-4.259.237.742.742,0,0,0-.592.828.694.694,0,0,0,.71.592h.118a22.7,22.7,0,0,1,4.023-.237.71.71,0,0,0,0-1.42Z" transform="translate(-1186.784 -703.892)" fill="#003"/>
  <path id="Path_48272" data-name="Path 48272" d="M1011.719,634.545h.095a.71.71,0,1,0,0-1.42h-1.349a54.892,54.892,0,0,1-10.056-.639c-.047,0-.071-.024-.118-.024a.71.71,0,0,0-.26,1.4c.118.024.26.047.379.071a57.428,57.428,0,0,0,10.056.615Z" transform="translate(-945.918 -589.729)" fill="#003"/>
  <path id="Path_48261" data-name="Path 48261" d="M1010.981,668.671h.118a.7.7,0,0,0,.095-1.4.521.521,0,0,1-.189-.024,51.847,51.847,0,0,0-5.395-.284,54.221,54.221,0,0,1-5.868-.355c-.118-.024-.237-.024-.355-.047a.7.7,0,0,0-.8.592.717.717,0,0,0,.592.8l.568.071a54.2,54.2,0,0,0,5.844.355A51.49,51.49,0,0,1,1010.981,668.671Z" transform="translate(-945.25 -615.762)" fill="#003"/>
  <path id="Path_48249" data-name="Path 48249" d="M998.282,700.275c.237,0,.45-.024.686-.024,1.112-.047,2.224-.071,3.36-.118,2.6-.095,5.277-.213,7.856-.213h.308a.71.71,0,0,0,0-1.42h-.284c-2.626,0-5.324.118-7.927.213-1.112.047-2.2.071-3.289.118-.237,0-.473.024-.71.024a.684.684,0,0,0-.686.734A.672.672,0,0,0,998.282,700.275Z" transform="translate(-944.501 -640.15)" fill="#003"/>
  <path id="Path_48240" data-name="Path 48240" d="M998.765,728.984a.73.73,0,0,0-.781.639.716.716,0,0,0,.639.781c.189.024.4.024.592.047,3.739.308,7.5.308,11.168.308h.095a.71.71,0,1,0,0-1.42h-.071c-3.668,0-7.454,0-11.168-.308C999.073,729.008,998.907,729.008,998.765,728.984Z" transform="translate(-944.794 -663.417)" fill="#003"/>
  <path id="Path_48233" data-name="Path 48233" d="M1000.035,754.006c-.047,0-.118-.024-.166-.024a.717.717,0,0,0-.8.592.7.7,0,0,0,.592.8,2.087,2.087,0,0,0,.4.047,58.647,58.647,0,0,0,7.028.426c1.349.024,2.745.047,4.094.142h.047a.7.7,0,0,0,.71-.663.715.715,0,0,0-.663-.757h-.047c-1.372-.095-2.745-.118-4.094-.142A50.389,50.389,0,0,1,1000.035,754.006Z" transform="translate(-945.614 -682.5)" fill="#003"/>
  <path id="Path_48228" data-name="Path 48228" d="M999.115,778.532c-.142-.024-.284-.024-.45-.047a.713.713,0,0,0-.142,1.42c.189.024.379.024.568.047,2.248.189,4.33.284,6.318.284,1.656,0,3.242-.071,4.78-.213a.521.521,0,0,0,.189-.024.687.687,0,0,0,.639-.781.7.7,0,0,0-.781-.639h-.047c-1.538.142-3.147.213-4.8.213C1003.445,778.816,1001.386,778.721,999.115,778.532Z" transform="translate(-944.718 -701.205)" fill="#003"/>
  <path id="Path_48317" data-name="Path 48317" d="M1071.611,456.66a.715.715,0,0,0-.308,1.4,12.373,12.373,0,0,0,1.988.237h.047a.7.7,0,0,0,.71-.663.68.68,0,0,0-.663-.734A12.891,12.891,0,0,1,1071.611,456.66Z" transform="translate(-1000.344 -455.524)" fill="#003"/>
  <path id="Path_48318" data-name="Path 48318" d="M1097.358,456.6a.713.713,0,0,0-.662.757.7.7,0,0,0,.71.663h.047c.592-.047,1.23-.095,1.893-.142a.679.679,0,0,0,.639-.757.708.708,0,0,0-.757-.639C1098.588,456.508,1097.973,456.579,1097.358,456.6Z" transform="translate(-1020.151 -455.395)" fill="#003"/>
  <path id="Path_48320" data-name="Path 48320" d="M1123.323,454.325a.7.7,0,0,0-.639.781.683.683,0,0,0,.71.639h.071c.615-.047,1.254-.118,1.893-.166a.7.7,0,0,0-.118-1.4C1124.577,454.207,1123.939,454.278,1123.323,454.325Z" transform="translate(-1039.988 -453.639)" fill="#003"/>
  <path id="Path_48316" data-name="Path 48316" d="M1202.16,458.845a4.682,4.682,0,0,0-1.349-1.727.708.708,0,0,0-.875,1.112,3.122,3.122,0,0,1,.946,1.23.7.7,0,0,0,.639.4.729.729,0,0,0,.308-.071A.738.738,0,0,0,1202.16,458.845Z" transform="translate(-1098.76 -455.768)" fill="#003"/>
  <path id="Path_48322" data-name="Path 48322" d="M1175.31,451.9a.71.71,0,0,0,0,1.42c.781,0,1.349.024,1.846.047h.047a.7.7,0,0,0,.71-.663.715.715,0,0,0-.663-.757C1176.706,451.9,1176.114,451.9,1175.31,451.9Z" transform="translate(-1079.624 -451.9)" fill="#003"/>
  <path id="Path_48321" data-name="Path 48321" d="M1149.258,452.39a.711.711,0,0,0,.047,1.42h.047c.639-.047,1.278-.071,1.869-.118a.692.692,0,0,0,.663-.734.678.678,0,0,0-.734-.663C1150.536,452.3,1149.9,452.343,1149.258,452.39Z" transform="translate(-1059.771 -452.2)" fill="#003"/>
  <path id="Path_48309" data-name="Path 48309" d="M1208.186,484.009h.024a.723.723,0,0,0,.71-.686c.024-.544.047-1.041.047-1.491v-.45a.71.71,0,0,0-1.42.047v.426c0,.426,0,.9-.047,1.42A.728.728,0,0,0,1208.186,484.009Z" transform="translate(-1104.739 -473.881)" fill="#003"/>
  <path id="Path_48218" data-name="Path 48218" d="M1008.789,700.995a14.205,14.205,0,0,1-5.419,1.183,2.683,2.683,0,0,0-2.626,2.626q-.248,7.986.118,15.972c0,.095.024.166.024.26-.947,1.183-.544,3.407,1.159,3.762a21.143,21.143,0,0,0,7.714.308c2.248-.45,2.745-2.248,2.721-4.307-.095-5.773-.26-11.523-.379-17.3C1012.055,702.012,1010.422,700.309,1008.789,700.995Zm-1.846,18.882a11.66,11.66,0,0,0,.26-1.585c.024.521.024,1.041.047,1.562A1.455,1.455,0,0,1,1006.944,719.877Z" transform="translate(-946.632 -641.935)" fill="#fe6a00"/>
</svg>
