
<svg id="Frequently_Asked_Question" data-name="Frequently Asked  Question" xmlns="http://www.w3.org/2000/svg" width="261.793" height="258.5" viewBox="0 0 261.793 258.5">
  <path id="Path_48334" data-name="Path 48334" d="M994.3,778.4c0-29.1-33.4-59.8-65.1-59.8-33.7,0-59,33.1-59,77.1,0,5,.2,10.1.3,15l.1,4.1c-10.7,3-18.8,12.4-21,23.6-19.6-.4-44.9-27.1-52.2-41.9q-1.5-3-2.7-6c-.9-2-1.7-4-2.7-6-7.6-15.5-15.3-14.5-19.3-12.6-12.5,6.1-22.5,19.5-27.6,36.8-5,17.1-4.1,34.6,2.5,48,7,14.3,20.5,24.2,38,27.9a75.084,75.084,0,0,0,15.1,1.5c13.7,0,28.2-3.5,42.1-10.4,4.5-2.2,8.9-4.6,13.2-6.9l3.9-2.1a30.109,30.109,0,0,0,17.5,5.6,28.231,28.231,0,0,0,12.1-2.8c11.7,16,3.8,53.1-4.5,67.7-1.1,1.9-2.3,3.8-3.4,5.6-1.2,1.8-2.3,3.7-3.4,5.6a33.406,33.406,0,0,0-4.4,11.5c-.8,5.2,1,9.2,4.9,11.5,6.9,3.9,15.1,5.7,23.8,5.7,23,0,49-12.8,60.3-32.8,7.9-13.9,8.4-30.6,1.6-47.1-6.9-16.7-20.9-31.7-39.5-42.3-4.4-2.5-8.9-4.8-13.2-7.1l-3.2-1.7v-.3c0-10.9-4.2-18.8-9.9-24.1a2.586,2.586,0,0,0,1.1-1.4c7-18.7,44.4-30.6,61.7-30.6,2.2,0,4.4.1,6.6.2s4.4.2,6.5.2C991.8,790.1,994.3,782.7,994.3,778.4Zm-140.9,85c-4.3,2.3-8.7,4.6-13.1,6.8-18,8.8-36.9,11.8-53.3,8.4-15.6-3.3-27.6-12.1-33.8-24.7-5.8-11.9-6.6-28.2-2.2-43.7,4.5-15.4,13.6-27.8,24.4-33.1,4.5-2.2,9,5.2,11.2,9.8.9,1.8,1.7,3.7,2.6,5.7.9,2.1,1.8,4.2,2.8,6.3,7.7,15.7,34,44.4,57,45.3v.1a26.708,26.708,0,0,0,6.4,17.9Zm55.5-10.2c4.3,2.2,8.7,4.6,13,7,17.5,9.9,30.6,23.9,37,39.3,6.1,14.8,5.6,29.6-1.3,41.9-13.9,24.5-53.6,37.5-75.9,24.8-1.2-.7-2.4-1.9-1.9-5.4a30.136,30.136,0,0,1,3.7-9.4c1-1.8,2.1-3.5,3.3-5.3,1.2-1.9,2.4-3.8,3.6-5.9,8.8-15.5,17.8-54.5,4.6-73.6,5.6-3.8,10.1-9,12.2-14.3Zm-6.4-7.4c0,7.7-12.1,20.4-25,20.4-14.8,0-22.5-11-22.5-21.9a12.106,12.106,0,0,1,.1-1.9,4.145,4.145,0,0,0,.3-1.6.367.367,0,0,0-.1-.3c1.5-9.7,8.3-17.9,17.4-20.2h0a23.161,23.161,0,0,1,5.8-.8C888.5,819.5,902.5,827.7,902.5,845.8Zm72-61.7c-2,0-4.1-.1-6.3-.2s-4.5-.2-6.9-.2c-18.4,0-58.9,12.2-67.3,34.5h0a29.859,29.859,0,0,0-15.5-4.7,12.106,12.106,0,0,0-1.9.1l-.1-3.2c-.2-4.8-.3-9.9-.3-14.8,0-40.5,22.8-71.1,53-71.1,28.2,0,59.1,28.2,59.1,53.8C988.3,783.4,979.7,784.1,974.5,784.1Z" transform="translate(-741.907 -718.6)" fill="#003"/>
  <path id="Path_48335" data-name="Path 48335" d="M877.2,828.1a8.308,8.308,0,0,0-4.4,1.2,15.144,15.144,0,0,0-7.2,12.7c0,7.4,6.1,13.7,13.2,13.7,8.6,0,13.9-8.4,13.9-14.4C892.7,831.3,881.4,828.1,877.2,828.1Zm1.6,21.7c-3.8,0-7.2-3.7-7.2-7.7a9.03,9.03,0,0,1,4.4-7.6,2.768,2.768,0,0,1,1.3-.3c1.2,0,9.5,1.4,9.5,7.3C886.7,843.9,884,849.8,878.8,849.8Z" transform="translate(-741.907 -718.6)" fill="#fe6a00"/>
  <path id="Path_48336" data-name="Path 48336" d="M848,968.2c-19-2.1-37-17.1-43.8-36.6a2.983,2.983,0,0,0-3.8-1.9,3.023,3.023,0,0,0-1.9,3.8c7.6,21.9,27.2,38.2,48.8,40.6h.3a3.023,3.023,0,0,0,3-2.7A2.858,2.858,0,0,0,848,968.2Z" transform="translate(-741.907 -718.6)" fill="#003"/>
  <path id="Path_48337" data-name="Path 48337" d="M990.9,797.5a3.031,3.031,0,0,0-.8,4.2,47.067,47.067,0,0,1,7.7,26.4,48.171,48.171,0,0,1-4.9,21.5,3.047,3.047,0,0,0,1.3,4,3.079,3.079,0,0,0,1.3.3,2.947,2.947,0,0,0,2.7-1.7,54.318,54.318,0,0,0,5.5-24.1,53.023,53.023,0,0,0-8.8-29.8A2.692,2.692,0,0,0,990.9,797.5Z" transform="translate(-741.907 -718.6)" fill="#003"/>
  <path id="Path_48338" data-name="Path 48338" d="M830.6,727.7c-17.4,5.2-30.7,19.8-39.2,30.3a3.09,3.09,0,0,0,.4,4.2,2.805,2.805,0,0,0,1.9.7,2.99,2.99,0,0,0,2.3-1.1c8-9.9,20.5-23.6,36.3-28.3a2.932,2.932,0,0,0,2-3.7A2.878,2.878,0,0,0,830.6,727.7Z" transform="translate(-741.907 -718.6)" fill="#003"/>
</svg>
