
<svg id="Decrease_Operational_Costs" data-name="Decrease  Operational Costs" xmlns="http://www.w3.org/2000/svg" width="213.864" height="78.567" viewBox="0 0 213.864 78.567">
  <path id="Path_30111" data-name="Path 30111" d="M518.2,346.285c-3.476-3.833-7.353-3.654-11.587-1.248a29.38,29.38,0,0,1-4.768,2.317c-.579-.134-1.2-.223-1.783-.312a41.881,41.881,0,0,0-8.512-.312,19.617,19.617,0,0,0-2.585-1.114,3.919,3.919,0,0,1,.446-.267c2.54-1.6.8-4.991-1.916-4.59-5.036.758-9.269,4.546-11.542,9.047-2.54,5.08,0,7.576,4.947,8.913,6.506,1.783,13.236,3.521,20.054,3.209a38.608,38.608,0,0,0,9.537-1.693c2.763-.847,6.551-1.515,8.957-3.3C523.24,353.995,520.789,349.093,518.2,346.285Z" transform="translate(-378.182 -286.926)" fill="#fe6a00"/>
  <path id="Path_30152" data-name="Path 30152" d="M144.53,307.809a1.363,1.363,0,0,1-1.337-1.292L141.5,257.362a1.557,1.557,0,0,1,.357-.98,1.283,1.283,0,0,1,.936-.4L250.237,255a1.3,1.3,0,0,1,1.337,1.292l.267,14.483c1.159.535,2.317,1.025,3.476,1.56,3.075,1.381,6.239,2.808,9.358,4.144a1.3,1.3,0,0,1,.8,1.159,1.384,1.384,0,0,1-.713,1.248c-4.278,2.317-8.467,4.59-12.7,6.863l.357,18.762a1.353,1.353,0,0,1-.357.936,1.283,1.283,0,0,1-.936.4C251.217,305.937,144.575,307.809,144.53,307.809Zm-.312-49.2,1.6,46.48,104.013-1.827-.357-18.271a1.352,1.352,0,0,1,.713-1.2c3.654-1.961,7.309-3.922,10.963-5.927-2.317-1.025-4.635-2.05-6.907-3.075-1.426-.624-2.852-1.292-4.278-1.916a1.309,1.309,0,0,1-.8-1.2l-.267-14.038Z" transform="translate(-141.5 -239.403)" fill="#003"/>
  <g id="Group_18045" data-name="Group 18045" transform="translate(13.678 30.473)">
    <path id="Path_30153" data-name="Path 30153" d="M175.049,311.295A1.332,1.332,0,0,1,173.712,310c-.134-5.348-.579-10.473-1.114-15.909-.134-1.426-.267-2.808-.4-4.234a1.344,1.344,0,0,1,2.674-.267c.134,1.426.267,2.808.4,4.234.49,5.259.98,10.651,1.114,16.088A1.351,1.351,0,0,1,175.049,311.295Z" transform="translate(-172.194 -288.38)" fill="#003"/>
  </g>
  <g id="Group_18046" data-name="Group 18046" transform="translate(14.445 39.709)">
    <path id="Path_30154" data-name="Path 30154" d="M175.247,313.6a1.331,1.331,0,0,1-1.292-1.07,1.357,1.357,0,0,1,1.025-1.6c.847-.178,1.649-.357,2.5-.535,1.872-.4,3.61-.758,5.481-1.248a1.341,1.341,0,0,1,.713,2.585c-1.916.535-3.833.936-5.615,1.292-.8.178-1.6.357-2.451.535A1.108,1.108,0,0,1,175.247,313.6Z" transform="translate(-173.917 -309.105)" fill="#003"/>
  </g>
  <g id="Group_18047" data-name="Group 18047" transform="translate(21.414 30.905)">
    <path id="Path_30155" data-name="Path 30155" d="M192.737,309.382a1.355,1.355,0,0,1-1.337-1.248l-.178-2.5a137.451,137.451,0,0,0-1.649-14.706,1.337,1.337,0,0,1,2.629-.49,145.264,145.264,0,0,1,1.693,14.974l.178,2.5a1.316,1.316,0,0,1-1.248,1.426C192.781,309.382,192.781,309.382,192.737,309.382Z" transform="translate(-189.551 -289.351)" fill="#003"/>
  </g>
  <g id="Group_18048" data-name="Group 18048" transform="translate(27.125 32.311)">
    <path id="Path_30156" data-name="Path 30156" d="M205.146,312.465a2.491,2.491,0,0,1-1.693-.535c-1.114-.936-1.114-2.451-1.07-6.194V303.2a45.066,45.066,0,0,1,.312-7.13c.446-2.362,1.56-3.565,3.342-3.565a7.885,7.885,0,0,1,1.025.045c.579,0,1.114.045,1.738,0a1.344,1.344,0,1,1,.267,2.674,16.432,16.432,0,0,1-2.095.045c-.312,0-.624-.045-.891-.045-.134,0-.446,0-.713,1.381a44.927,44.927,0,0,0-.267,6.685v2.54a30.152,30.152,0,0,0,.134,4.055,16.038,16.038,0,0,0,1.872-.312c.668-.134,1.515-.267,2.451-.446a1.33,1.33,0,0,1,.4,2.629c-.936.134-1.693.312-2.362.4A14.686,14.686,0,0,1,205.146,312.465Z" transform="translate(-202.369 -292.5)" fill="#003"/>
  </g>
  <g id="Group_18049" data-name="Group 18049" transform="translate(27.139 40.622)">
    <path id="Path_30157" data-name="Path 30157" d="M203.737,314.116a1.337,1.337,0,0,1,0-2.674,37.641,37.641,0,0,0,5.526-.267,1.33,1.33,0,1,1,.4,2.629A38.028,38.028,0,0,1,203.737,314.116Z" transform="translate(-202.4 -311.154)" fill="#003"/>
  </g>
  <g id="Group_18050" data-name="Group 18050" transform="translate(38.627 32.611)">
    <path id="Path_30158" data-name="Path 30158" d="M230.684,312.707a2.4,2.4,0,0,1-1.916-.624c-.668-.713-.624-1.56-.49-3.788.089-1.56.223-3.922.223-7.487a51.97,51.97,0,0,0-.312-6.15,1.344,1.344,0,0,1,2.674-.267,56.781,56.781,0,0,1,.312,6.417c0,3.654-.134,6.061-.223,7.62-.045.579-.089,1.2-.089,1.6h.312a9.688,9.688,0,0,0,1.114-.045,10.5,10.5,0,0,1,2.05,0,1.348,1.348,0,0,1,1.2,1.471,1.381,1.381,0,0,1-1.471,1.2c-.535-.045-1.114,0-1.649,0a11.687,11.687,0,0,1-1.248.045h-.49Z" transform="translate(-228.178 -293.178)" fill="#003"/>
  </g>
  <g id="Group_18051" data-name="Group 18051" transform="translate(47.502 32.263)">
    <path id="Path_30159" data-name="Path 30159" d="M251.172,312.05a1.355,1.355,0,0,1-1.337-1.248c-.178-2.5-.49-4.991-.8-7.4-.357-3.119-.758-6.328-.936-9.581a1.346,1.346,0,0,1,1.248-1.426,1.374,1.374,0,0,1,1.426,1.248c.178,3.164.535,6.328.936,9.4q.468,3.677.8,7.487a1.317,1.317,0,0,1-1.248,1.426C251.261,312.05,251.216,312.05,251.172,312.05Z" transform="translate(-248.095 -292.395)" fill="#003"/>
  </g>
  <g id="Group_18052" data-name="Group 18052" transform="translate(47.404 31.373)">
    <path id="Path_30160" data-name="Path 30160" d="M251.453,304.126a1.284,1.284,0,0,1-1.248-.936,1.329,1.329,0,0,1,.847-1.693,6.735,6.735,0,0,0,4.367-5.214c0-1.872-2.317-3.253-3.922-3.253a2.126,2.126,0,0,0-1.426.49,1.327,1.327,0,0,1-1.738-2.005A4.657,4.657,0,0,1,251.5,290.4c3.12,0,6.6,2.54,6.6,5.927,0,2.317-2.228,6.417-6.194,7.754A1.373,1.373,0,0,1,251.453,304.126Z" transform="translate(-247.877 -290.4)" fill="#003"/>
  </g>
  <g id="Group_18053" data-name="Group 18053" transform="translate(61.588 34.317)">
    <path id="Path_30161" data-name="Path 30161" d="M281.037,314.16a1.584,1.584,0,0,1-.446-.089,1.3,1.3,0,0,1-.8-1.693,82.837,82.837,0,0,0,2.317-8.556c.446-1.916.891-3.922,1.426-5.838a1.341,1.341,0,1,1,2.585.713c-.535,1.872-.98,3.833-1.426,5.7a79.2,79.2,0,0,1-2.406,8.868A1.3,1.3,0,0,1,281.037,314.16Z" transform="translate(-279.701 -297.005)" fill="#003"/>
  </g>
  <g id="Group_18054" data-name="Group 18054" transform="translate(65.381 33.963)">
    <path id="Path_30162" data-name="Path 30162" d="M301.13,314.389a1.337,1.337,0,0,1-1.292-.936c-.8-2.451-1.56-4.9-2.362-7.4-.357-1.07-.713-2.184-1.07-3.253-1.337,4.278-1.916,5.882-3.565,5.838-1.783-.045-2.406-1.961-4.59-10.785a1.33,1.33,0,0,1,2.585-.624c.535,2.139,1.426,5.66,2.095,7.62.312-.891.713-2.139,1.114-3.3.312-1.025.713-2.228,1.114-3.476a1.33,1.33,0,0,1,2.54,0c.758,2.406,1.56,4.813,2.317,7.219.8,2.451,1.6,4.947,2.362,7.4a1.354,1.354,0,0,1-.891,1.693Z" transform="translate(-288.212 -296.212)" fill="#003"/>
  </g>
  <g id="Group_18055" data-name="Group 18055" transform="translate(79.975 32.807)">
    <path id="Path_30163" data-name="Path 30163" d="M322.807,312.683a1.738,1.738,0,0,1-1.159-.446c-.713-.624-.713-1.159-.668-5.259v-4.323c-.045-5.036-.045-6.907,1.159-8.111,1.025-.98,2.406-.98,4.5-.891.579,0,1.2.045,1.916.045a1.337,1.337,0,1,1,0,2.674c-.758,0-1.426,0-2.005-.045a7.951,7.951,0,0,0-2.585.134c-.4.4-.4,3.075-.356,6.194v7.309c1.381,0,2.763-.178,4.234-.312,1.159-.134,2.317-.267,3.521-.312a1.316,1.316,0,0,1,.134,2.629c-1.114.045-2.273.178-3.342.312a42.142,42.142,0,0,1-4.813.357h-.223A.661.661,0,0,1,322.807,312.683Z" transform="translate(-320.964 -293.618)" fill="#003"/>
  </g>
  <g id="Group_18056" data-name="Group 18056" transform="translate(80.168 41.023)">
    <path id="Path_30164" data-name="Path 30164" d="M322.734,314.927a1.338,1.338,0,0,1-.089-2.674c.891-.089,1.783-.045,2.674-.045h1.159a11.925,11.925,0,0,0,1.961-.134,1.33,1.33,0,0,1,.4,2.629,18.251,18.251,0,0,1-2.362.178h-1.2a21.691,21.691,0,0,0-2.406.045Z" transform="translate(-321.394 -312.054)" fill="#003"/>
  </g>
  <path id="Path_30264" data-name="Path 30264" d="M481.627,298.567c-11.631,0-21.569-4.011-28.833-11.676A37.635,37.635,0,0,1,442.5,260.776,39.918,39.918,0,0,1,455.156,231.5,41.849,41.849,0,0,1,483.588,220c10.473,0,20.455,5.125,28.165,14.439,6.373,7.665,10.473,17.514,10.473,25.134a35.118,35.118,0,0,1-5.214,18.316,46.683,46.683,0,0,1-9.849,11.587A38.22,38.22,0,0,1,481.627,298.567Zm1.961-75.848c-23.708,0-38.414,19.787-38.414,38.1,0,22.817,18.762,35.117,36.454,35.117a35.881,35.881,0,0,0,23.8-8.423,43.43,43.43,0,0,0,9.314-10.963,32.507,32.507,0,0,0,4.813-16.934C519.552,246.961,505.558,222.718,483.588,222.718Z" transform="translate(-308.361 -220)" fill="#003"/>
  <g id="Group_18157" data-name="Group 18157" transform="translate(154.816 16.444)">
    <path id="Path_30265" data-name="Path 30265" d="M530.835,311.268a1.332,1.332,0,0,1-1.337-1.292c-.267-10.829-8.244-11.631-14.706-12.3l-.49-.045a1.332,1.332,0,0,1-1.2-1.2,11.68,11.68,0,0,1-.045-1.248c0-3.788,1.515-7.175,2.941-10.473,1.471-3.3,2.807-6.417,2.807-9.893,0-7.353-5.3-15.241-13.859-15.241-9.136,0-13.369,5.125-13.369,16.132,0,10.517,3.387,10.874,7,11.186,2.674.267,6.061.579,6.907,5.3a1.337,1.337,0,1,1-2.629.49c-.49-2.629-1.738-2.852-4.546-3.12-3.966-.4-9.4-.891-9.4-13.859,0-12.478,5.392-18.806,16.043-18.806,10.205,0,16.533,9.314,16.533,17.915,0,4.055-1.56,7.576-3.03,10.963-1.381,3.164-2.718,6.15-2.718,9.314,6.328.668,16.132,2.05,16.444,14.8A1.351,1.351,0,0,1,530.835,311.268Z" transform="translate(-488.9 -256.9)" fill="#003"/>
  </g>
  <g id="Group_18158" data-name="Group 18158" transform="translate(147.053 50.692)">
    <path id="Path_30266" data-name="Path 30266" d="M472.825,353.2h-.178a1.358,1.358,0,0,1-1.159-1.515c2.139-16.221,13.9-17.246,19.564-17.692.847-.089,1.6-.134,2.139-.223a1.337,1.337,0,0,1,.49,2.629c-.668.134-1.471.178-2.406.267-5.7.49-15.241,1.337-17.113,15.419A1.347,1.347,0,0,1,472.825,353.2Z" transform="translate(-471.478 -333.751)" fill="#003"/>
  </g>
  <g id="Group_18159" data-name="Group 18159" transform="translate(162.666 52.145)">
    <path id="Path_30267" data-name="Path 30267" d="M517.2,346.677a10.7,10.7,0,0,1-10.651-8.022,1.329,1.329,0,1,1,2.585-.624A8.075,8.075,0,0,0,517.2,344c2.674,0,6.328-1.56,9.4-3.966a1.333,1.333,0,1,1,1.649,2.095C524.689,344.939,520.5,346.677,517.2,346.677Z" transform="translate(-506.512 -337.012)" fill="#003"/>
  </g>
  <g id="Group_18160" data-name="Group 18160" transform="translate(167.541 16.511)">
    <path id="Path_30268" data-name="Path 30268" d="M535.966,275.254c-.045,0-1.025-.045-1.025-.045-4.546-.134-10.205-.267-11.988-5.793-.936-2.852-2.5-7.665-5.08-10.072a1.324,1.324,0,0,1,1.827-1.916c3.075,2.9,4.768,8.111,5.793,11.23,1.114,3.476,4.367,3.788,9.537,3.922l.98.045a1.313,1.313,0,0,1,1.292,1.381A1.357,1.357,0,0,1,535.966,275.254Z" transform="translate(-517.448 -257.048)" fill="#003"/>
  </g>
  <g id="Group_18161" data-name="Group 18161" transform="translate(163.238 28.276)">
    <path id="Path_30269" data-name="Path 30269" d="M509.137,294.97a1.313,1.313,0,0,1-1.337-1.337,48.348,48.348,0,0,1,.891-9.091,1.337,1.337,0,0,1,2.629.49,42.849,42.849,0,0,0-.847,8.556A1.324,1.324,0,0,1,509.137,294.97Z" transform="translate(-507.8 -283.451)" fill="#003"/>
  </g>
</svg>
