
<svg id="Keep_your_customers" data-name="Keep your customers" xmlns="http://www.w3.org/2000/svg" width="166.996" height="157.439" viewBox="0 0 166.996 157.439">
  <g id="Group_18732" data-name="Group 18732" transform="translate(94.909 49.018)">
    <path id="Path_47807" data-name="Path 47807" d="M870.919,628.318a1.317,1.317,0,0,1-.793-.292c-4.589-4.213-9.053-8.3-13.767-12.14a1.174,1.174,0,0,1-.417-.876L854.9,538.669a1.325,1.325,0,0,1,.334-.834,1.165,1.165,0,0,1,.834-.334h2.253c7.509,0,15.185-.125,22.611-.25s15.1-.25,22.652-.25c6.842,0,12.932.083,18.564.292a1.207,1.207,0,0,1,1.126,1.085l3.713,88.4a1.346,1.346,0,0,1-.334.876,1.267,1.267,0,0,1-.876.334c-6.967-.334-14.142-.5-21.943-.5-9.553,0-19.982.25-32.831.793Zm-12.682-13.892c4.464,3.671,8.761,7.593,13.1,11.556,12.682-.542,22.986-.793,32.456-.793,7.384,0,14.225.167,20.817.459l-3.588-86.062c-5.3-.167-11.013-.25-17.4-.25-7.551,0-15.185.125-22.611.25-7.8.125-15.811.25-23.737.25Z" transform="translate(-854.9 -537)" fill="#003"/>
  </g>
  <g id="Group_18733" data-name="Group 18733" transform="translate(96.241 125.359)">
    <path id="Path_47808" data-name="Path 47808" d="M872.572,734.768a1.113,1.113,0,0,1-1.126-1.085c-.209-4-.292-7.926-.292-11.305l-1.752.083c-3.3.167-6.758.375-10.1.5a1.149,1.149,0,1,1-.125-2.294c3.337-.125,6.758-.334,10.054-.5L872.2,720a1.136,1.136,0,0,1,.834.292,1.2,1.2,0,0,1,.375.834c0,3.671.083,7.968.292,12.432a1.158,1.158,0,0,1-1.085,1.21Z" transform="translate(-858.094 -720)" fill="#003"/>
  </g>
  <g id="Group_18734" data-name="Group 18734" transform="translate(51.254 121.438)">
    <path id="Path_47809" data-name="Path 47809" d="M788.11,746.6c-15.143,0-29.953-7.843-37.67-19.982a1.134,1.134,0,0,1,.292-1.544A71.661,71.661,0,0,1,793.825,710.6c.751,0,1.5,0,2.253.042a1.186,1.186,0,0,1,1.126,1.168,1.216,1.216,0,0,1-1.168,1.126c-.709-.042-1.46-.042-2.169-.042a69.6,69.6,0,0,0-40.841,13.349c7.467,11.013,21.151,18.063,35.167,18.063,21.818,0,27.825-12.64,29.786-16.812a1.157,1.157,0,1,1,2.086,1C814.183,740.678,803.754,746.6,788.11,746.6Z" transform="translate(-750.254 -710.6)" fill="#003"/>
  </g>
  <g id="Group_18735" data-name="Group 18735" transform="translate(75.302 127.57)">
    <path id="Path_47810" data-name="Path 47810" d="M819.873,748.119a12.822,12.822,0,0,1-8.01-3.129,10.777,10.777,0,0,1-3.963-8.135,11.667,11.667,0,0,1,7.3-10.68,12.845,12.845,0,0,1,4.756-.876c8.927,0,11.722,8.343,11.722,11.43A11.8,11.8,0,0,1,819.873,748.119Zm.083-20.525a10.229,10.229,0,0,0-3.921.709,9.3,9.3,0,0,0-5.84,8.552c0,5.048,5.215,8.969,9.678,8.969,5.048,0,9.511-4.255,9.511-9.094C829.342,735.312,827.632,727.594,819.956,727.594Z" transform="translate(-807.9 -725.3)" fill="#003"/>
  </g>
  <g id="Group_18736" data-name="Group 18736" transform="translate(83.187 135.163)">
    <path id="Path_47811" data-name="Path 47811" d="M830.68,751.3a3.811,3.811,0,0,1-3.88-3.838c0-1.627,1.252-3.963,3.212-3.963a2.463,2.463,0,0,1,.584.083,4.179,4.179,0,0,1,3.087,4.213A3.231,3.231,0,0,1,830.68,751.3Z" transform="translate(-826.8 -743.5)" fill="#fe6a00"/>
  </g>
  <g id="Group_18737" data-name="Group 18737" transform="translate(109.093 64.536)">
    <path id="Path_47812" data-name="Path 47812" d="M926.779,576.536H890.068a1.166,1.166,0,0,1-1.168-1.168,1.141,1.141,0,0,1,1.168-1.168h36.711a1.168,1.168,0,1,1,0,2.336Z" transform="translate(-888.9 -574.2)" fill="#003"/>
  </g>
  <g id="Group_18738" data-name="Group 18738" transform="translate(109.343 74.799)">
    <path id="Path_47813" data-name="Path 47813" d="M894.005,601.136h-3.337a1.168,1.168,0,0,1,0-2.336h3.337a1.166,1.166,0,0,1,1.168,1.168A1.141,1.141,0,0,1,894.005,601.136Z" transform="translate(-889.5 -598.8)" fill="#003"/>
  </g>
  <g id="Group_18739" data-name="Group 18739" transform="translate(119.104 75.091)">
    <path id="Path_47814" data-name="Path 47814" d="M941.309,601.836H914.068a1.168,1.168,0,0,1,0-2.336h27.241a1.168,1.168,0,0,1,0,2.336Z" transform="translate(-912.9 -599.5)" fill="#003"/>
  </g>
  <g id="Group_18740" data-name="Group 18740" transform="translate(107.466 84.593)">
    <path id="Path_47815" data-name="Path 47815" d="M886.126,625.416a1.147,1.147,0,0,1,0-2.294c2.879-.083,5.757-.125,8.552-.167,5.548-.042,11.264-.125,16.937-.667a1.135,1.135,0,0,1,1.251,1.043,1.164,1.164,0,0,1-1.043,1.251c-5.8.542-11.556.626-17.146.667-2.8.042-5.673.042-8.552.167Z" transform="translate(-885 -622.278)" fill="#003"/>
  </g>
  <g id="Group_18741" data-name="Group 18741" transform="translate(140.255 84.811)">
    <path id="Path_47816" data-name="Path 47816" d="M966.979,625.136h-2.211a1.168,1.168,0,0,1,0-2.336h2.211a1.166,1.166,0,0,1,1.168,1.168A1.193,1.193,0,0,1,966.979,625.136Z" transform="translate(-963.6 -622.8)" fill="#003"/>
  </g>
  <g id="Group_18742" data-name="Group 18742" transform="translate(109.051 93.988)">
    <path id="Path_47817" data-name="Path 47817" d="M894.432,647.136h-4.464a1.168,1.168,0,0,1,0-2.336h4.464a1.166,1.166,0,0,1,1.168,1.168A1.141,1.141,0,0,1,894.432,647.136Z" transform="translate(-888.8 -644.8)" fill="#003"/>
  </g>
  <g id="Group_18743" data-name="Group 18743" transform="translate(121.607 94.28)">
    <path id="Path_47818" data-name="Path 47818" d="M923.406,647.836h-3.337a1.168,1.168,0,0,1,0-2.336h3.337a1.166,1.166,0,0,1,1.168,1.168A1.193,1.193,0,0,1,923.406,647.836Z" transform="translate(-918.9 -645.5)" fill="#003"/>
  </g>
  <g id="Group_18744" data-name="Group 18744" transform="translate(131.325 94.592)">
    <path id="Path_47819" data-name="Path 47819" d="M951.416,648.939c-1.043,0-2.086-.042-3.129-.083-1-.042-2-.083-3-.083-.667,0-1.293,0-1.877.042a1.149,1.149,0,1,1-.125-2.294c.626-.042,1.293-.042,2-.042,1.043,0,2.086.042,3.129.083,1,.042,2,.083,3,.083a20.492,20.492,0,0,0,4.213-.375,1.146,1.146,0,0,1,.417,2.253A21.4,21.4,0,0,1,951.416,648.939Z" transform="translate(-942.194 -646.247)" fill="#003"/>
  </g>
  <g id="Group_18745" data-name="Group 18745" transform="translate(108.801 104.282)">
    <path id="Path_47820" data-name="Path 47820" d="M899.047,672.406c-1.627,0-3.212,0-4.839-.042-1.627,0-3.212-.042-4.839-.042a1.168,1.168,0,0,1,0-2.336c1.627,0,3.212,0,4.839.042,1.627,0,3.212.042,4.839.042,4.3,0,9.345-.083,14.392-.584a1.152,1.152,0,0,1,.209,2.294A129.432,129.432,0,0,1,899.047,672.406Z" transform="translate(-888.2 -669.477)" fill="#003"/>
  </g>
  <g id="Group_18746" data-name="Group 18746" transform="translate(140.213 103.458)">
    <path id="Path_47821" data-name="Path 47821" d="M969.674,670.379a19.254,19.254,0,0,1-2.712-.292,15.393,15.393,0,0,0-2.294-.25,1.168,1.168,0,1,1,0-2.336,19.261,19.261,0,0,1,2.712.292,15.4,15.4,0,0,0,2.294.25,1.166,1.166,0,0,1,1.168,1.168A1.141,1.141,0,0,1,969.674,670.379Z" transform="translate(-963.5 -667.5)" fill="#003"/>
  </g>
  <g id="Group_18747" data-name="Group 18747" transform="translate(134.081 114.722)">
    <path id="Path_47822" data-name="Path 47822" d="M956.017,708.725a6.957,6.957,0,0,1-7.217-7.134,7.2,7.2,0,0,1,6.967-7.092,6.354,6.354,0,0,1,1.752.25,7.711,7.711,0,0,1,4.589,3.629,6.379,6.379,0,0,1,.751,3.087,7.94,7.94,0,0,1-1.669,4.756A6.308,6.308,0,0,1,956.017,708.725Zm-.209-11.931a4.858,4.858,0,0,0-4.672,4.8,4.649,4.649,0,0,0,4.923,4.839c3.17,0,4.589-2.92,4.589-5.006a4.7,4.7,0,0,0-.459-2,5.567,5.567,0,0,0-3.212-2.5C956.559,696.878,956.184,696.794,955.808,696.794Z" transform="translate(-948.8 -694.5)" fill="#003"/>
  </g>
  <g id="Group_18748" data-name="Group 18748" transform="translate(0 35.209)">
    <path id="Path_47823" data-name="Path 47823" d="M633.321,559.634a4.959,4.959,0,0,1-4.964-4.881l-.959-45.43a5.008,5.008,0,0,1,1.418-3.588,4.921,4.921,0,0,1,3.546-1.5c5.8-.042,11.639-.042,17.313-.083,10.513-.042,21.4-.042,32.122-.25a3.771,3.771,0,0,1,2.586,1.043,3.638,3.638,0,0,1,1.085,2.545c.167,15.644.167,31.413.209,46.055a5.247,5.247,0,0,1-5.048,5.256c-15.185.542-30.662.667-45.638.793h-1.627Zm48.558-53.4h0c-10.763.167-21.651.209-32.205.25-5.674,0-11.556.042-17.313.083a2.751,2.751,0,0,0-1.919.793,2.545,2.545,0,0,0-.751,1.919l.96,45.43a2.708,2.708,0,0,0,2.67,2.628h1.669c14.935-.125,30.412-.292,45.6-.793a2.922,2.922,0,0,0,2.837-2.962c0-14.643-.042-30.37-.209-46.055a1.264,1.264,0,0,0-.417-.918A1.294,1.294,0,0,0,681.879,506.236Z" transform="translate(-627.395 -503.9)" fill="#003"/>
  </g>
  <g id="Group_18749" data-name="Group 18749" transform="translate(10.923 63.435)">
    <path id="Path_47824" data-name="Path 47824" d="M655.3,587.8a1.318,1.318,0,0,1-.793-.292,1.05,1.05,0,0,1-.375-.834,116.772,116.772,0,0,0-.542-12.432,1.1,1.1,0,0,1,1-1.252,1.132,1.132,0,0,1,1.252,1c.417,3.963.5,7.8.542,11.43,7.676-.459,14.225-.793,20.858-.793,4.38,0,8.427.125,12.265.417-.167-1.46-.25-2.92-.334-4.339a33.075,33.075,0,0,0-1.043-7.676,1.135,1.135,0,0,1,2.169-.668,34.871,34.871,0,0,1,1.168,8.218,47.173,47.173,0,0,0,.542,5.548,1.153,1.153,0,0,1-.292,1,1.174,1.174,0,0,1-.959.375c-4.213-.375-8.635-.542-13.516-.542-6.925,0-13.767.334-21.9.834Z" transform="translate(-653.576 -571.56)" fill="#003"/>
  </g>
  <g id="Group_18750" data-name="Group 18750" transform="translate(28.162 46.515)">
    <path id="Path_47825" data-name="Path 47825" d="M696.318,558.867h0a1.193,1.193,0,0,1-1.168-1.168c.042-1.627.083-3.3.083-5.09,0-3.379-.083-6.8-.167-10.137-.083-3.379-.167-6.842-.167-10.3a1.168,1.168,0,1,1,2.336,0c0,3.462.083,6.883.167,10.262.083,3.337.167,6.758.167,10.179,0,1.836-.042,3.546-.083,5.173A1.181,1.181,0,0,1,696.318,558.867Z" transform="translate(-694.9 -531)" fill="#003"/>
  </g>
  <g id="Group_18751" data-name="Group 18751" transform="translate(22.578 65.418)">
    <path id="Path_47826" data-name="Path 47826" d="M688.809,586.237h-.167a1.107,1.107,0,0,1-.751-.459c-.793-1.085-1.669-2.044-2.586-3.087a31.247,31.247,0,0,1-3.629-4.631,1.159,1.159,0,0,1,2-1.168,24.978,24.978,0,0,0,3.337,4.255c.667.751,1.377,1.544,2.044,2.336.918-.709,1.794-1.5,2.753-2.336.793-.667,1.585-1.377,2.42-2.086a1.156,1.156,0,1,1,1.46,1.794c-.793.667-1.585,1.335-2.336,2a48.408,48.408,0,0,1-3.838,3.17A1.405,1.405,0,0,1,688.809,586.237Z" transform="translate(-681.515 -576.315)" fill="#003"/>
  </g>
  <g id="Group_18752" data-name="Group 18752" transform="translate(10.391)">
    <path id="Path_47827" data-name="Path 47827" d="M654.01,457.3a1.114,1.114,0,0,1-1.126-1.085c-.083-1.544-.167-3.087-.25-4.589-.167-2.586-.334-5.256-.334-7.926,0-7.134,2.211-13.266,6.383-17.688a21.087,21.087,0,0,1,15.56-6.508c11.138,0,17.271,11.138,17.271,31.288v5.173a1.122,1.122,0,0,1-1.126,1.126,1.166,1.166,0,0,1-1.168-1.168v-5.173c0-8.01-1.043-14.81-2.962-19.649-2.545-6.3-6.466-9.386-11.973-9.386-11.556,0-19.649,9.011-19.649,21.9,0,2.586.167,5.215.334,7.759.083,1.5.209,3.087.25,4.631a1.159,1.159,0,0,1-1.085,1.21Z" transform="translate(-652.3 -419.5)" fill="#003"/>
  </g>
  <g id="Group_18753" data-name="Group 18753" transform="translate(17.398 9.428)">
    <path id="Path_47828" data-name="Path 47828" d="M670.268,470.467A1.166,1.166,0,0,1,669.1,469.3v-4.714c0-10.262,2.336-22.485,13.558-22.485,7.718,0,8.635,4.505,10.429,13.475.667,3.3,1.5,7.384,2.878,12.265a9.615,9.615,0,0,1,.25,1.168,1.146,1.146,0,0,1-2.253.417c-.083-.334-.125-.667-.209-.96-1.377-4.964-2.211-9.094-2.92-12.432-1.836-8.927-2.378-11.639-8.218-11.639-7.467,0-11.263,6.8-11.263,20.191V469.3A1.073,1.073,0,0,1,670.268,470.467Z" transform="translate(-669.1 -442.1)" fill="#003"/>
  </g>
  <g id="Group_18754" data-name="Group 18754" transform="translate(67.96 46.181)">
    <path id="Path_47829" data-name="Path 47829" d="M797.225,546.636c-2.878,0-6.925-2.545-6.925-8.218a8.329,8.329,0,0,1,3.045-6.758,7.4,7.4,0,0,1,2.712-1.293,5.183,5.183,0,0,1,1.377-.167c3.755,0,6.842,3.713,6.842,8.3C804.275,542.423,801.438,546.636,797.225,546.636Zm.209-14.142a4.623,4.623,0,0,0-.793.083,4.4,4.4,0,0,0-1.877.918,6.012,6.012,0,0,0-2.128,4.923c0,4.088,2.712,5.924,4.631,5.924,2.294,0,4.756-2.336,4.756-5.8C801.981,535.248,799.895,532.494,797.434,532.494Z" transform="translate(-790.3 -530.2)" fill="#003"/>
  </g>
  <g id="Group_18755" data-name="Group 18755" transform="translate(68.429 50.504)">
    <path id="Path_47830" data-name="Path 47830" d="M797.88,545.208a8.659,8.659,0,0,1-6.132-2.712,1.134,1.134,0,0,1,.042-1.627,1.172,1.172,0,0,1,1.627.042,6.228,6.228,0,0,0,4.464,2,13.336,13.336,0,0,0,3.921-.96c.459-.167.959-.334,1.418-.459a1.161,1.161,0,1,1,.709,2.211c-.459.167-.918.292-1.377.459A16.948,16.948,0,0,1,797.88,545.208Z" transform="translate(-791.423 -540.562)" fill="#003"/>
  </g>
  <g id="Group_18756" data-name="Group 18756" transform="translate(40.343 87.961)">
    <path id="Path_47831" data-name="Path 47831" d="M742.789,674.55a1.122,1.122,0,0,1-1.126-1.126c-.042-2.253-.083-4.589-.083-7.008,0-10.846.667-29.786.667-29.995,0-1.418-.375-2.044-.5-2.086-.083,0-5.006.793-12.974,31.955v.083c-.25,1.043-.959,3.8-2.837,3.8-1.126,0-1.836-1.085-1.836-2.753V667c.959-15.268,2.753-26.991,5.423-35.835a1.135,1.135,0,0,1,2.169.667c-2.586,8.469-4.339,19.69-5.3,34.25.042-.083.042-.208.083-.292l.042-.083c3.3-12.891,9.72-34.416,15.519-33.666,1.585.209,2.5,1.836,2.5,4.422,0,.25-.667,19.148-.667,29.953,0,2.378.042,4.714.083,6.967a1.166,1.166,0,0,1-1.168,1.168Z" transform="translate(-724.1 -630.351)" fill="#003"/>
  </g>
  <g id="Group_18757" data-name="Group 18757" transform="translate(55.99 59.655)">
    <path id="Path_47832" data-name="Path 47832" d="M762.731,574.973a1.05,1.05,0,0,1-.834-.375,1.173,1.173,0,0,1,.083-1.627,23.523,23.523,0,0,1,14.893-6.007c.042-1.126.083-2.253.083-3.337a1.132,1.132,0,0,1,1.168-1.126,1.166,1.166,0,0,1,1.168,1.168c0,1.46-.042,2.962-.125,4.464a1.142,1.142,0,0,1-1.126,1.085,21.553,21.553,0,0,0-14.518,5.465A1.17,1.17,0,0,1,762.731,574.973Z" transform="translate(-761.609 -562.5)" fill="#003"/>
  </g>
  <g id="Group_18758" data-name="Group 18758" transform="translate(76.426 59.521)">
    <path id="Path_47833" data-name="Path 47833" d="M830.537,576.913a1.325,1.325,0,0,1-.834-.334c-5.59-5.715-12.682-6.925-17.563-7.342a1.117,1.117,0,0,1-1.043-1c-.167-1.46-.334-3.129-.5-4.8a1.164,1.164,0,0,1,1.043-1.251,1.135,1.135,0,0,1,1.251,1.043c.125,1.293.25,2.628.375,3.838,10.3,1.085,15.227,5.048,18.105,7.926a1.171,1.171,0,0,1,0,1.627A1.275,1.275,0,0,1,830.537,576.913Z" transform="translate(-810.594 -562.178)" fill="#003"/>
  </g>
  <g id="Group_18759" data-name="Group 18759" transform="translate(66.91 64.488)">
    <path id="Path_47834" data-name="Path 47834" d="M795.926,582.226c-5.3,0-7.384-4.923-8.051-6.55A1.15,1.15,0,0,1,790,574.8c1.46,3.5,3.379,5.131,5.924,5.131,2.5,0,4.464-1.5,6.3-4.881a1.139,1.139,0,1,1,2,1.085C802.809,578.763,800.389,582.226,795.926,582.226Z" transform="translate(-787.784 -574.084)" fill="#003"/>
  </g>
  <g id="Group_18760" data-name="Group 18760" transform="translate(57.989 110.8)">
    <path id="Path_47835" data-name="Path 47835" d="M793.1,687.686h-1.836c-.167,0-15.477,0-23.737-.292a1.147,1.147,0,0,1,.042-2.294c8.176.292,23.487.292,23.653.292h5.715a1.147,1.147,0,1,1,.042,2.294Z" transform="translate(-766.4 -685.1)" fill="#003"/>
  </g>
  <g id="Group_18761" data-name="Group 18761" transform="translate(87.27 87.897)">
    <path id="Path_47836" data-name="Path 47836" d="M838.345,666.285a1.114,1.114,0,0,1-1.126-1.085c-.042-1.46-.125-2.878-.167-4.339-.209-5.215-.459-10.554-.459-15.852v-.793c-.042-5.131.125-10.8,2.336-13.016a3.227,3.227,0,0,1,2.294-1c1.543,0,3.337.918,5.507,2.878a1.152,1.152,0,1,1-1.544,1.71c-2.253-2-3.463-2.294-3.963-2.294a.913.913,0,0,0-.667.292c-1.71,1.752-1.71,8.51-1.669,11.389v.834c0,5.256.25,10.6.459,15.769.083,1.46.125,2.92.167,4.339a1.159,1.159,0,0,1-1.085,1.21A.129.129,0,0,0,838.345,666.285Z" transform="translate(-836.588 -630.2)" fill="#003"/>
  </g>
  <g id="Group_18762" data-name="Group 18762" transform="translate(73.467 120.187)">
    <path id="Path_47837" data-name="Path 47837" d="M804.668,714.15a1.166,1.166,0,0,1-1.168-1.168v-4.213a1.168,1.168,0,0,1,2.336,0v4.213A1.194,1.194,0,0,1,804.668,714.15Z" transform="translate(-803.5 -707.6)" fill="#003"/>
  </g>
</svg>
