
<svg xmlns="http://www.w3.org/2000/svg" width="197.761" height="112.154" viewBox="0 0 197.761 112.154">
  <g id="Wait_from_anywhere" data-name="Wait from  anywhere" transform="translate(0 0)">
    <g id="Group_19271" data-name="Group 19271" transform="translate(-17589.24 13014.522)">
      <path id="Path_27263" data-name="Path 27263" d="M2213.11,137.326c.341-3.016,1.07-6.129.438-9.145-.632-3.065-2.967-4.524-5.5-5.983a23.682,23.682,0,0,1-6.859-6.518c-.876-1.119-2.53-1.994-3.892-1.022-2.53,1.8-4.816,3.843-7.394,5.643a9.114,9.114,0,0,0-2.968,3.162c-1.605-.924-2.87,1.459-1.849,2.821-.438-.535-.292.632-.292.973,0,.827.049,1.654.049,2.432q-.073,2.846-.292,5.692c-.292,4.621.438,9.437-.73,13.913a2.291,2.291,0,0,0,1.07,2.578c2.578,1.119,5.643,1.8,7.929-.389,1.946-1.9,2.238-4.962,2.384-7.54.049-1.265.1-2.481.1-3.746a23.826,23.826,0,0,0,7.88-.195,9.591,9.591,0,0,0,1.654,2.189,4.989,4.989,0,0,0,1.9,1.07c0,1.022.048,1.994.048,3.016a7.96,7.96,0,0,0-1.119,1.362,3.168,3.168,0,0,0,1.9,4.621C2216.709,154.4,2214.18,142.774,2213.11,137.326Zm-5.4,9.729c.1-.1.146-.243.243-.341,0,.049,0,.1.049.1C2208.245,147.638,2207.9,147.444,2207.71,147.055Z" transform="translate(15542.798 -13104.917)" fill="#fe6a00"/>
      <path id="Path_27659" data-name="Path 27659" d="M2079.154,257.117c-9.826,0-7.54-13.864,1.557-13.621C2089.223,243.837,2088.1,257.117,2079.154,257.117Zm1.265-10.945c-5.156,0-7.443,8.27-1.265,8.27C2084.6,254.442,2085.672,246.318,2080.418,246.172Z" transform="translate(15601.341 -13172.183)" fill="#003"/>
      <path id="Path_27667" data-name="Path 27667" d="M2170.575,153.759c-23.107,0-42.565-17.512-43.732-40.668-1.313-26.414,21.355-47.867,47.283-45.921,21.7,1.557,38.576,19.166,39.257,41.495C2214.113,132.453,2195.919,153.759,2170.575,153.759Zm.487-84.059c-23.107,0-42.711,19.312-41.495,43.246,1.119,22.572,20.82,39.257,43.392,38.041,22.231-1.167,38.479-20.48,37.8-42.322C2210.026,86.726,2192.611,69.7,2171.062,69.7Zm-4.184-1.119Z" transform="translate(15573.597 -13081.57)" fill="#003"/>
      <path id="Path_27668" data-name="Path 27668" d="M2180.072,161.658c.827-3.989,1.119-27.1,1.119-27.144a1.338,1.338,0,0,1,2.676,0c0,.049-.146,21.55-.924,26.22a51.7,51.7,0,0,0,9.1-.243c1.605-9.583-5.935-11.48,9.729-11.529.827,0,1.946-.195,2.286.924.875,2.675.146,7.881-.535,10.653a25.955,25.955,0,0,0,6.129-.195c5.156-.632.875.827.827-23.447a1.338,1.338,0,0,1,2.676,0c0,15.421,3.6,25.588-.195,25.782-1.751.1-13.523,2.092-12.4-1.557a29.5,29.5,0,0,0,1.07-9.486,36.1,36.1,0,0,0-7.3.486c.341,2.53,1.411,10.6-1.07,10.9C2190.385,163.36,2179.44,164.528,2180.072,161.658Z" transform="translate(15546.246 -13115.542)" fill="#003"/>
      <path id="Path_27669" data-name="Path 27669" d="M2165.9,128.094a1.345,1.345,0,0,1-.779-2.432c23.885-17.707,23.3-18.485,24.517-16.929,1.167,1.508-1.119,2.384-3.113,4.135C2185.892,113.743,2166.531,128.094,2165.9,128.094Z" transform="translate(15554.193 -13102.701)" fill="#003"/>
      <path id="Path_27670" data-name="Path 27670" d="M2234.148,125.984c-1.605,0-16.442-9.34-21.891-15.81a1.33,1.33,0,0,1,2.043-1.7c4.962,5.886,18.485,14.4,20.188,14.886A1.339,1.339,0,0,1,2234.148,125.984Z" transform="translate(15529.871 -13102.586)" fill="#003"/>
      <path id="Path_27813" data-name="Path 27813" d="M2124.036,268.448a1.34,1.34,0,0,1-.1-2.675c5.205-.389,6.567-1.994,7.1-.049C2131.674,267.864,2126.274,268.448,2124.036,268.448Zm-11.918-1.216a1.333,1.333,0,0,1,.681-2.578c4.913,1.362,6.908.584,6.713,2.53C2119.366,268.934,2116.837,268.5,2112.118,267.232Zm-10.994-4.767a1.331,1.331,0,0,1,1.362-2.286c4.524,2.724,6.47,2.627,5.74,4.378C2107.4,266.356,2104.675,264.6,2101.124,262.464Zm34.052,2.724a1.35,1.35,0,0,1-.633-2.53c4.378-2.384,5.108-4.524,6.421-3.016C2142.667,261.589,2135.906,265.188,2135.176,265.188Zm-43.489-10.167a1.324,1.324,0,0,1,1.9-1.849c3.648,3.746,5.594,4.184,4.427,5.643C2096.892,260.324,2094.751,258.135,2091.687,255.021Zm51.078.389c2.87-4.086,2.432-6.324,4.33-5.594,2.092.778-.486,4.865-2.14,7.151A1.343,1.343,0,0,1,2142.765,255.411Zm5.108-8.708c-2.092,0-.924-2.335-1.411-4.135-.389-1.557,3.308-4.038,2.724,2.919A1.229,1.229,0,0,1,2147.873,246.7Z" transform="translate(15591.823 -13170.816)" fill="#003"/>
    </g>
    <g id="Group_19272" data-name="Group 19272" transform="translate(-520.189 -1727.876)">
      <path id="Path_48172" data-name="Path 48172" d="M133.644,418.33c-23.494,0-32.338-26-20.68-43.639,6.477-9.782,18.983-14.382,23.048-14.293,4.869.045,10.362.313,14.114,2.546C177.237,379.069,167.634,418.33,133.644,418.33Zm2.457-55.475c-37.519,7.057-32.249,58.6,3.305,52.482,28.006-4.824,31.847-36.983,9.469-50.294C145.435,362.989,139.629,362.9,136.1,362.855Z" transform="translate(412.341 1390.43)" fill="#003"/>
      <path id="Path_48173" data-name="Path 48173" d="M126,417.495c0-14.114,3.395-8.576,7.281-11.479,2.859-2.144-1.519-5.673,8.71-7.325,22.958-3.707,15.008,2.5,17.464,6.387.715,1.117,3.752.536,5.583,2.1,2.5,2.144,1.251,6.3,1.563,8.487.4,2.144-1.474,1.474-10.229,1.563C126.8,417.629,126,419.907,126,417.495Zm27.47-17.6a77.474,77.474,0,0,0-11.032,1.206c-5.181.849-5.315,1.742-5.449,2.9-.759,6.119-7.325,4.958-7.817,6.075-.4.893-.625,2.814-.67,5.985,9.291-1.027,18.76-1.161,27.916-1.3,8.933-.134,7.683.357,7.772-1.519.179-4.422-.447-4.467-2.814-4.869-3.127-.536-5.047-1.653-4.824-6.387C156.6,400.522,156.864,399.9,153.47,399.9Z" transform="translate(402.297 1369.87)" fill="#003"/>
      <path id="Path_48174" data-name="Path 48174" d="M136.078,431.191a1.229,1.229,0,0,1-.045-2.457c.759,0,1.474-.134,2.367-.134a1.229,1.229,0,0,1,.045,2.457C137.775,431.057,136.659,431.191,136.078,431.191Z" transform="translate(397.4 1352.69)" fill="#003"/>
      <path id="Path_48175" data-name="Path 48175" d="M194.093,428.094c-.581,0-1.3-.045-1.787-.045a1.229,1.229,0,0,1,0-2.457,11.733,11.733,0,0,0,3.395-.179C197.264,424.834,199.319,428.094,194.093,428.094Z" transform="translate(366.274 1354.491)" fill="#003"/>
      <path id="Path_48176" data-name="Path 48176" d="M140.794,418.643a1.236,1.236,0,0,1-.357-2.412c2.233-.67,24.12-1.831,24.745-1.831a1.229,1.229,0,0,1,.045,2.457C142.759,417.929,141.151,418.643,140.794,418.643Z" transform="translate(394.783 1360.548)" fill="#003"/>
      <path id="Path_48177" data-name="Path 48177" d="M132.084,445.668c-1.429,0-1.385-1.831-1.385-3.439,0-.983.134-1.787,1.161-1.831,1.072-.045,1.251.8,1.3,1.787C133.156,443.748,133.826,445.668,132.084,445.668Z" transform="translate(399.696 1346.163)" fill="#003"/>
      <path id="Path_48178" data-name="Path 48178" d="M205.709,442.892c-1.608,0-1.251-2.01-1.251-3.886a1.229,1.229,0,0,1,2.457,0C206.959,440.837,207.361,442.892,205.709,442.892Z" transform="translate(358.901 1347.6)" fill="#003"/>
      <path id="Path_48179" data-name="Path 48179" d="M199.942,508.664a1.23,1.23,0,0,1-.089-2.457c4.154-.268,5.539-2.412,6.343-.581C207.134,507.637,201.55,508.664,199.942,508.664Zm-10.9-2.769a1.239,1.239,0,0,1,1.385-2.055c3.484,2.367,5.851,1.474,5.4,3.395C195.342,509.468,190.562,506.922,189.044,505.895Zm20.68-1.251a1.228,1.228,0,0,1-.715-2.233c3.886-2.769,4.779-4.422,5.9-3.082a1.221,1.221,0,0,1-.179,1.742C210.171,504.778,210.126,504.644,209.724,504.644Zm-27.157-8a1.222,1.222,0,0,1,2.323-.759c1.429,4.422,3.35,5.181,1.787,6.209C184.935,503.3,183.193,498.659,182.567,496.649Zm34.839-.893c2.814-2.1,5.628-4.109,6.432-2.323.715,1.608-1.117,1.429-4.958,4.288A1.228,1.228,0,0,1,217.407,495.756Zm14.65.045c-.8,0-1.787-1.251-4.288-1.563a1.236,1.236,0,0,1,.268-2.457C234.29,492.5,233.888,495.8,232.057,495.8Zm-49.445-3.529c-1.7,0-1.519-2.9-1.519-6.566a1.229,1.229,0,0,1,2.457,0C183.505,490.351,184.533,492.272,182.612,492.272Z" transform="translate(371.814 1321.759)" fill="#003"/>
    </g>
  </g>
</svg>
