<svg width="1440" height="825" viewBox="0 0 1440 825" fill="none" xmlns="http://www.w3.org/2000/svg">
<mask id="mask0_213_1469" style="mask-type:alpha" maskUnits="userSpaceOnUse" x="0" y="0" width="1440" height="825">
<rect width="1440" height="825" fill="#C4C4C4"/>
</mask>
<g mask="url(#mask0_213_1469)">
<rect x="-66" y="0.329468" width="1572" height="851.632" fill="#605FA7"/>
<g filter="url(#filter0_f_213_1469)">
<path d="M-57.8296 355.558L744.278 -11.0304L1108.87 -11.0304L1555.07 86.7267L-9.21729 633.118L-57.8296 355.558Z" fill="url(#paint0_linear_213_1469)"/>
<path d="M-57.8296 355.558L744.278 -11.0304L1108.87 -11.0304L1555.07 86.7267L-9.21729 633.118L-57.8296 355.558Z" fill="url(#paint1_linear_213_1469)"/>
</g>
<g filter="url(#filter1_f_213_1469)">
<path d="M-101.107 336.995L800.122 -7.13381L1108.87 -18.3636L1555.07 79.3935L-9.21662 625.785L-101.107 336.995Z" fill="url(#paint2_linear_213_1469)"/>
</g>
<g filter="url(#filter2_f_213_1469)">
<path d="M-101.107 329.662L800.122 -13.5507L1108.87 -24.7804L1555.07 72.0601L-9.21662 618.451L-101.107 329.662Z" fill="url(#paint3_linear_213_1469)"/>
</g>
<g filter="url(#filter3_f_213_1469)">
<ellipse cx="324.48" cy="97.6273" rx="324.48" ry="97.6273" transform="matrix(0.929978 -0.367616 0.364159 0.931337 508.14 307.073)" fill="#C193C2"/>
</g>
<g filter="url(#filter4_f_213_1469)">
<path d="M673.463 27.1422C498.517 49.8394 280.305 93.3422 65.8549 27.1422C54.5679 22.0984 45.9145 27.5205 101.596 89.5594C171.199 167.108 398.817 134.954 673.463 27.1422Z" fill="#8B95E8"/>
</g>
<g opacity="0.4" filter="url(#filter5_f_213_1469)">
<path d="M609.751 37.8722C470.997 55.8739 297.927 90.3772 127.841 37.8722C118.889 33.8718 112.026 38.1722 156.188 87.3769C211.392 148.883 391.922 123.38 609.751 37.8722Z" fill="#8B95E8"/>
</g>
<path d="M683.23 294.352C1018.31 147.716 1157.2 140.734 1478.39 196.595L1584.3 385.126L35.639 812.813C7.28175 808.158 89.4594 690.617 313.426 512.559C355.643 478.996 348.151 440.987 683.23 294.352Z" fill="url(#paint4_linear_213_1469)"/>
<g opacity="0.7" filter="url(#filter6_f_213_1469)">
<path d="M898.979 230.549C1242.14 104.205 1157.2 140.733 1478.39 196.594L1584.3 385.126L47.7915 809.321C19.4342 804.666 -12.9741 705.978 84.2511 564.928C205.783 388.617 499.515 377.624 898.979 230.549Z" fill="#8E9AD6"/>
</g>
<g filter="url(#filter7_f_213_1469)">
<path d="M806.495 310.062C1198.82 222.036 1179.04 140.734 1534.2 196.595L1584.3 385.126L-114.729 809.321C-146.086 804.666 -181.922 705.978 -74.4129 564.929C59.9733 388.617 510.846 376.397 806.495 310.062Z" fill="#7C91B9"/>
</g>
<g filter="url(#filter8_f_213_1469)">
<ellipse cx="324.48" cy="97.6273" rx="324.48" ry="97.6273" transform="matrix(0.929978 -0.367616 0.364159 0.931337 -67.2598 451.271)" fill="#C193C2"/>
</g>
<g opacity="0.4" filter="url(#filter9_f_213_1469)">
<ellipse cx="324.48" cy="141.73" rx="324.48" ry="141.73" transform="matrix(0.929978 -0.367616 0.364159 0.931337 437.841 502.479)" fill="#C193C2"/>
</g>
<g filter="url(#filter10_f_213_1469)">
<ellipse cx="324.48" cy="97.6273" rx="324.48" ry="97.6273" transform="matrix(0.929978 -0.367616 0.364159 0.931337 980.78 387.404)" fill="#D28AF5"/>
</g>
<g filter="url(#filter11_f_213_1469)">
<ellipse cx="291.575" cy="150.386" rx="291.575" ry="150.386" transform="matrix(0.929978 -0.367616 0.364159 0.931337 -370.611 456.048)" fill="#605FA7"/>
</g>
<g filter="url(#filter12_f_213_1469)">
<path d="M-431 706.55V1242.08H1785V314.035L-431 706.55Z" fill="#D8CEF4"/>
</g>
<g filter="url(#filter13_f_213_1469)">
<path d="M1168.87 175.035L1651.63 -44.9167L1531.83 219.901L1168.87 175.035Z" fill="#6F67A2"/>
</g>
<g opacity="0.4" filter="url(#filter14_f_213_1469)">
<path d="M298.035 639.445L1093.86 399.095L1458.33 388.905L1905.99 434.549L351.195 803.091L298.035 639.445Z" fill="url(#paint5_linear_213_1469)"/>
</g>
<g opacity="0.4" filter="url(#filter15_f_213_1469)">
<path d="M338.843 610.786L1233.97 381.022L1542.39 365.718L1989.97 411.364L435.436 779.899L338.843 610.786Z" fill="url(#paint6_linear_213_1469)"/>
</g>
<g opacity="0.4" filter="url(#filter16_f_213_1469)">
<path d="M888 557.187L1690.16 339.172L2054.78 339.172L2501 397.31L936.616 722.256L888 557.187Z" fill="url(#paint7_linear_213_1469)"/>
</g>
<g opacity="0.4" filter="url(#filter17_f_213_1469)">
<path d="M845 574.64L1746.13 369.982L2054.85 363.304L2501 421.441L936.881 746.387L845 574.64Z" fill="url(#paint8_linear_213_1469)"/>
</g>
</g>
<defs>
<filter id="filter0_f_213_1469" x="-67.6296" y="-20.8304" width="1632.5" height="663.748" filterUnits="userSpaceOnUse" color-interpolation-filters="sRGB">
<feFlood flood-opacity="0" result="BackgroundImageFix"/>
<feBlend mode="normal" in="SourceGraphic" in2="BackgroundImageFix" result="shape"/>
<feGaussianBlur stdDeviation="4.9" result="effect1_foregroundBlur_213_1469"/>
</filter>
<filter id="filter1_f_213_1469" x="-134.707" y="-51.9636" width="1723.38" height="711.348" filterUnits="userSpaceOnUse" color-interpolation-filters="sRGB">
<feFlood flood-opacity="0" result="BackgroundImageFix"/>
<feBlend mode="normal" in="SourceGraphic" in2="BackgroundImageFix" result="shape"/>
<feGaussianBlur stdDeviation="16.8" result="effect1_foregroundBlur_213_1469"/>
</filter>
<filter id="filter2_f_213_1469" x="-134.707" y="-58.3804" width="1723.38" height="710.432" filterUnits="userSpaceOnUse" color-interpolation-filters="sRGB">
<feFlood flood-opacity="0" result="BackgroundImageFix"/>
<feBlend mode="normal" in="SourceGraphic" in2="BackgroundImageFix" result="shape"/>
<feGaussianBlur stdDeviation="16.8" result="effect1_foregroundBlur_213_1469"/>
</filter>
<filter id="filter3_f_213_1469" x="311.975" y="-100.881" width="1066.95" height="759.188" filterUnits="userSpaceOnUse" color-interpolation-filters="sRGB">
<feFlood flood-opacity="0" result="BackgroundImageFix"/>
<feBlend mode="normal" in="SourceGraphic" in2="BackgroundImageFix" result="shape"/>
<feGaussianBlur stdDeviation="114.8" result="effect1_foregroundBlur_213_1469"/>
</filter>
<filter id="filter4_f_213_1469" x="-37.6897" y="-69.4969" width="806.353" height="297.013" filterUnits="userSpaceOnUse" color-interpolation-filters="sRGB">
<feFlood flood-opacity="0" result="BackgroundImageFix"/>
<feBlend mode="normal" in="SourceGraphic" in2="BackgroundImageFix" result="shape"/>
<feGaussianBlur stdDeviation="47.6" result="effect1_foregroundBlur_213_1469"/>
</filter>
<filter id="filter5_f_213_1469" x="70.8227" y="-13.6692" width="589.329" height="185.358" filterUnits="userSpaceOnUse" color-interpolation-filters="sRGB">
<feFlood flood-opacity="0" result="BackgroundImageFix"/>
<feBlend mode="normal" in="SourceGraphic" in2="BackgroundImageFix" result="shape"/>
<feGaussianBlur stdDeviation="25.2" result="effect1_foregroundBlur_213_1469"/>
</filter>
<filter id="filter6_f_213_1469" x="3.51553" y="129.842" width="1596.18" height="694.879" filterUnits="userSpaceOnUse" color-interpolation-filters="sRGB">
<feFlood flood-opacity="0" result="BackgroundImageFix"/>
<feBlend mode="normal" in="SourceGraphic" in2="BackgroundImageFix" result="shape"/>
<feGaussianBlur stdDeviation="7.7" result="effect1_foregroundBlur_213_1469"/>
</filter>
<filter id="filter7_f_213_1469" x="-211.059" y="113.831" width="1859.76" height="759.891" filterUnits="userSpaceOnUse" color-interpolation-filters="sRGB">
<feFlood flood-opacity="0" result="BackgroundImageFix"/>
<feBlend mode="normal" in="SourceGraphic" in2="BackgroundImageFix" result="shape"/>
<feGaussianBlur stdDeviation="32.2" result="effect1_foregroundBlur_213_1469"/>
</filter>
<filter id="filter8_f_213_1469" x="-263.424" y="43.3165" width="1066.95" height="759.188" filterUnits="userSpaceOnUse" color-interpolation-filters="sRGB">
<feFlood flood-opacity="0" result="BackgroundImageFix"/>
<feBlend mode="normal" in="SourceGraphic" in2="BackgroundImageFix" result="shape"/>
<feGaussianBlur stdDeviation="114.8" result="effect1_foregroundBlur_213_1469"/>
</filter>
<filter id="filter9_f_213_1469" x="255.422" y="107.681" width="1071.58" height="815.024" filterUnits="userSpaceOnUse" color-interpolation-filters="sRGB">
<feFlood flood-opacity="0" result="BackgroundImageFix"/>
<feBlend mode="normal" in="SourceGraphic" in2="BackgroundImageFix" result="shape"/>
<feGaussianBlur stdDeviation="114.8" result="effect1_foregroundBlur_213_1469"/>
</filter>
<filter id="filter10_f_213_1469" x="784.616" y="-20.5503" width="1066.95" height="759.188" filterUnits="userSpaceOnUse" color-interpolation-filters="sRGB">
<feFlood flood-opacity="0" result="BackgroundImageFix"/>
<feBlend mode="normal" in="SourceGraphic" in2="BackgroundImageFix" result="shape"/>
<feGaussianBlur stdDeviation="114.8" result="effect1_foregroundBlur_213_1469"/>
</filter>
<filter id="filter11_f_213_1469" x="-550.976" y="82.9426" width="1012.57" height="811.955" filterUnits="userSpaceOnUse" color-interpolation-filters="sRGB">
<feFlood flood-opacity="0" result="BackgroundImageFix"/>
<feBlend mode="normal" in="SourceGraphic" in2="BackgroundImageFix" result="shape"/>
<feGaussianBlur stdDeviation="114.8" result="effect1_foregroundBlur_213_1469"/>
</filter>
<filter id="filter12_f_213_1469" x="-649.4" y="95.6352" width="2652.8" height="1364.85" filterUnits="userSpaceOnUse" color-interpolation-filters="sRGB">
<feFlood flood-opacity="0" result="BackgroundImageFix"/>
<feBlend mode="normal" in="SourceGraphic" in2="BackgroundImageFix" result="shape"/>
<feGaussianBlur stdDeviation="109.2" result="effect1_foregroundBlur_213_1469"/>
</filter>
<filter id="filter13_f_213_1469" x="1073.67" y="-140.117" width="673.159" height="455.218" filterUnits="userSpaceOnUse" color-interpolation-filters="sRGB">
<feFlood flood-opacity="0" result="BackgroundImageFix"/>
<feBlend mode="normal" in="SourceGraphic" in2="BackgroundImageFix" result="shape"/>
<feGaussianBlur stdDeviation="47.6" result="effect1_foregroundBlur_213_1469"/>
</filter>
<filter id="filter14_f_213_1469" x="288.235" y="379.105" width="1627.56" height="433.786" filterUnits="userSpaceOnUse" color-interpolation-filters="sRGB">
<feFlood flood-opacity="0" result="BackgroundImageFix"/>
<feBlend mode="normal" in="SourceGraphic" in2="BackgroundImageFix" result="shape"/>
<feGaussianBlur stdDeviation="4.9" result="effect1_foregroundBlur_213_1469"/>
</filter>
<filter id="filter15_f_213_1469" x="305.243" y="332.118" width="1718.32" height="481.38" filterUnits="userSpaceOnUse" color-interpolation-filters="sRGB">
<feFlood flood-opacity="0" result="BackgroundImageFix"/>
<feBlend mode="normal" in="SourceGraphic" in2="BackgroundImageFix" result="shape"/>
<feGaussianBlur stdDeviation="16.8" result="effect1_foregroundBlur_213_1469"/>
</filter>
<filter id="filter16_f_213_1469" x="878.2" y="329.372" width="1632.6" height="402.684" filterUnits="userSpaceOnUse" color-interpolation-filters="sRGB">
<feFlood flood-opacity="0" result="BackgroundImageFix"/>
<feBlend mode="normal" in="SourceGraphic" in2="BackgroundImageFix" result="shape"/>
<feGaussianBlur stdDeviation="4.9" result="effect1_foregroundBlur_213_1469"/>
</filter>
<filter id="filter17_f_213_1469" x="811.4" y="329.704" width="1723.2" height="450.284" filterUnits="userSpaceOnUse" color-interpolation-filters="sRGB">
<feFlood flood-opacity="0" result="BackgroundImageFix"/>
<feBlend mode="normal" in="SourceGraphic" in2="BackgroundImageFix" result="shape"/>
<feGaussianBlur stdDeviation="16.8" result="effect1_foregroundBlur_213_1469"/>
</filter>
<linearGradient id="paint0_linear_213_1469" x1="748.619" y1="-11.0304" x2="143.928" y2="559.998" gradientUnits="userSpaceOnUse">
<stop stop-color="#8375AB"/>
<stop offset="1" stop-color="white" stop-opacity="0"/>
</linearGradient>
<linearGradient id="paint1_linear_213_1469" x1="528.754" y1="217.651" x2="100.757" y2="596.809" gradientUnits="userSpaceOnUse">
<stop offset="0.0104167" stop-color="#5F77D4"/>
<stop offset="0.677083" stop-color="#C293EC"/>
<stop offset="1" stop-color="#4C62C5" stop-opacity="0.2"/>
</linearGradient>
<linearGradient id="paint2_linear_213_1469" x1="501.216" y1="210.318" x2="71.9985" y2="600.76" gradientUnits="userSpaceOnUse">
<stop offset="0.0104167" stop-color="#5F77D4"/>
<stop offset="0.677083" stop-color="#C293EC"/>
<stop offset="1" stop-color="#4C62C5" stop-opacity="0.2"/>
</linearGradient>
<linearGradient id="paint3_linear_213_1469" x1="501.216" y1="202.984" x2="71.9985" y2="593.426" gradientUnits="userSpaceOnUse">
<stop offset="0.0104167" stop-color="#93B6C5"/>
<stop offset="0.677083" stop-color="#BB95B9" stop-opacity="0.484375"/>
<stop offset="1" stop-color="#9CB8BC" stop-opacity="0"/>
</linearGradient>
<linearGradient id="paint4_linear_213_1469" x1="1164.15" y1="241.982" x2="435.598" y2="532.508" gradientUnits="userSpaceOnUse">
<stop stop-color="#9FAED3"/>
<stop offset="0.65537" stop-color="#A788BF"/>
<stop offset="1" stop-color="#A5ACC4"/>
</linearGradient>
<linearGradient id="paint5_linear_213_1469" x1="1098.2" y1="398.974" x2="787.808" y2="923.746" gradientUnits="userSpaceOnUse">
<stop stop-color="#8375AB"/>
<stop offset="1" stop-color="white" stop-opacity="0"/>
</linearGradient>
<linearGradient id="paint6_linear_213_1469" x1="938.787" y1="518.646" x2="713.972" y2="884.336" gradientUnits="userSpaceOnUse">
<stop offset="0.0104167" stop-color="#5F77D4"/>
<stop offset="0.677083" stop-color="#C293EC"/>
<stop offset="1" stop-color="#4C62C5" stop-opacity="0.2"/>
</linearGradient>
<linearGradient id="paint7_linear_213_1469" x1="1694.5" y1="339.172" x2="1369.65" y2="855.022" gradientUnits="userSpaceOnUse">
<stop stop-color="#8375AB"/>
<stop offset="1" stop-color="white" stop-opacity="0"/>
</linearGradient>
<linearGradient id="paint8_linear_213_1469" x1="1447.26" y1="499.304" x2="1212.38" y2="858.539" gradientUnits="userSpaceOnUse">
<stop offset="0.0104167" stop-color="#ACB1CD" stop-opacity="0.22"/>
<stop offset="0.677083" stop-color="#A2C6DA" stop-opacity="0.484375"/>
<stop offset="1" stop-color="#C2ADD7" stop-opacity="0"/>
</linearGradient>
</defs>
</svg>
