<svg width="361" height="359" viewBox="0 0 361 359" fill="none" xmlns="http://www.w3.org/2000/svg">
<g filter="url(#filter0_dif_213_1549)">
<path d="M22.4961 200.495C22.4962 214.072 33.5026 225.078 47.0796 225.079H133.416C148.249 225.079 155.666 225.079 160.275 229.687C164.883 234.295 164.883 241.712 164.883 256.546L164.883 311.384C164.883 324.961 175.889 335.968 189.466 335.968H323.781C337.358 335.968 348.365 324.961 348.365 311.384V186.33C348.365 172.753 337.358 161.747 323.781 161.747H235.13C220.296 161.747 212.879 161.747 208.271 157.138C203.663 152.53 203.663 145.113 203.663 130.279V47.0794C203.663 33.5023 192.656 22.496 179.079 22.4959L47.0796 22.4958C33.5026 22.496 22.4962 33.5023 22.4961 47.0794L22.4961 200.495Z" fill="url(#paint0_linear_213_1549)"/>
</g>
<defs>
<filter id="filter0_dif_213_1549" x="0.000189304" y="-5.48363e-05" width="370.86" height="358.464" filterUnits="userSpaceOnUse" color-interpolation-filters="sRGB">
<feFlood flood-opacity="0" result="BackgroundImageFix"/>
<feColorMatrix in="SourceAlpha" type="matrix" values="0 0 0 0 0 0 0 0 0 0 0 0 0 0 0 0 0 0 127 0" result="hardAlpha"/>
<feMorphology radius="7.49863" operator="dilate" in="SourceAlpha" result="effect1_dropShadow_213_1549"/>
<feOffset/>
<feGaussianBlur stdDeviation="7.49863"/>
<feComposite in2="hardAlpha" operator="out"/>
<feColorMatrix type="matrix" values="0 0 0 0 0 0 0 0 0 0 0 0 0 0 0 0 0 0 0.1 0"/>
<feBlend mode="normal" in2="BackgroundImageFix" result="effect1_dropShadow_213_1549"/>
<feBlend mode="normal" in="SourceGraphic" in2="effect1_dropShadow_213_1549" result="shape"/>
<feColorMatrix in="SourceAlpha" type="matrix" values="0 0 0 0 0 0 0 0 0 0 0 0 0 0 0 0 0 0 127 0" result="hardAlpha"/>
<feMorphology radius="3.74932" operator="erode" in="SourceAlpha" result="effect2_innerShadow_213_1549"/>
<feOffset/>
<feGaussianBlur stdDeviation="7.49863"/>
<feComposite in2="hardAlpha" operator="arithmetic" k2="-1" k3="1"/>
<feColorMatrix type="matrix" values="0 0 0 0 0.998649 0 0 0 0 0.998649 0 0 0 0 0.998649 0 0 0 0.8 0"/>
<feBlend mode="normal" in2="shape" result="effect2_innerShadow_213_1549"/>
<feGaussianBlur stdDeviation="1.78333" result="effect3_foregroundBlur_213_1549"/>
</filter>
<linearGradient id="paint0_linear_213_1549" x1="319.983" y1="323.283" x2="222.323" y2="27.9268" gradientUnits="userSpaceOnUse">
<stop stop-color="#01286F"/>
<stop offset="0.496014" stop-color="#7E16A4"/>
<stop offset="1" stop-color="#C293EC"/>
</linearGradient>
</defs>
</svg>
